ply
format ascii 1.0
element vertex 256
comment vertices
property float x
property float y
property float z
end_header
-0.0775837898254394531 -1.26867353916168213 0.41399383544921875
-1.27944374084472656 4.39128446578979492 0.674292445182800293
1.92654144763946533 2.02862453460693359 0.948720693588256836
-1.0132300853729248 1.7799607515335083 0.669464230537414551
-2.66801905632019043 -2.04937124252319336 0.470662683248519897
0.373242199420928955 -2.20717310905456543 0.210801273584365845
0.499557197093963623 3.22418022155761719 0.507208585739135742
0.196708738803863525 -2.86708188056945801 0.641741275787353516
1.7303462028503418 -1.57971668243408203 0.801946043968200684
-1.8453449010848999 1.90081632137298584 0.707120895385742188
1.73719418048858643 2.80828142166137695 0.617563605308532715
-1.60565173625946045 -1.76592791080474854 0.5654449462890625
-1.45193123817443848 0.784430563449859619 0.492714881896972656
1.85841798782348633 -3.54168295860290527 0.76384890079498291
-0.0476046539843082428 3.51446294784545898 0.778361022472381592
0.941817879676818848 1.21608638763427734 0.523039102554321289
-1.59925270080566406 2.87311172485351562 0.596385955810546875
-1.85930895805358887 -0.485565125942230225 0.745191276073455811
0.581491947174072266 -1.47943735122680664 0.597962260246276855
-0.851906657218933105 0.932411074638366699 0.534869372844696045
0.762596249580383301 -4.64197921752929688 0.810632228851318359
2.43916797637939453 -2.64809298515319824 0.994979262351989746
0.617520332336425781 2.44583511352539062 0.509116768836975098
0.593250751495361328 -1.16228842735290527 0.485335677862167358
0.539724111557006836 -4.1865992546081543 0.775694847106933594
0.574385344982147217 -1.36073064804077148 0.454110920429229736
-1.79647517204284668 -2.09617114067077637 0.517693877220153809
-1.09793269634246826 -1.22115516662597656 0.904296517372131348
1.1396411657333374 2.31785988807678223 0.602388262748718262
0.742747187614440918 2.58438467979431152 0.491969078779220581
1.30287373065948486 -1.67434239387512207 0.610860526561737061
-2.51333761215209961 1.37971878051757812 0.857154011726379395
-2.17226171493530273 -1.67409920692443848 0.537061870098114014
-0.52170860767364502 0.429847478866577148 0.510636508464813232
-0.530438423156738281 -1.7081298828125 0.569693863391876221
-1.27364075183868408 -2.94443750381469727 0.719971776008605957
-0.921467363834381104 2.13228797912597656 0.578336954116821289
1.51305639743804932 -2.72944450378417969 0.63209831714630127
0.733670055866241455 -2.77685880661010742 0.597402215003967285
-0.0822468101978302002 -2.07275962829589844 0.515061616897583008
0.448954135179519653 2.49182462692260742 0.545533061027526855
1.90714359283447266 -1.74525868892669678 1.03499209880828857
0.929968118667602539 -0.847963035106658936 0.451295346021652222
-1.79499721527099609 3.93948459625244141 1.0370023250579834
-2.20773410797119141 2.75018739700317383 0.768039226531982422
-2.2492215633392334 0.725072860717773438 0.738221049308776855
0.663737118244171143 2.45561671257019043 0.555316627025604248
0.94151538610458374 -4.07658052444458008 0.584785521030426025
-1.50953769683837891 2.27248167991638184 0.702971875667572021
-0.858468472957611084 0.365770399570465088 0.506962716579437256
-1.98777675628662109 3.10579609870910645 0.659918367862701416
-0.717930018901824951 -1.8701399564743042 0.760872960090637207
-0.867277979850769043 4.36389875411987305 0.86668241024017334
0.770119965076446533 2.59875059127807617 0.586344242095947266
1.17038977146148682 2.79359626770019531 0.439963102340698242
0.0261573642492294312 2.64318346977233887 0.68331444263458252
1.41297495365142822 -1.75890398025512695 0.677113592624664307
0.997095227241516113 -3.997833251953125 0.723541378974914551
-1.59788072109222412 0.818328022956848145 0.512480974197387695
0.9487801194190979 -0.220757976174354553 0.572647392749786377
0.279322624206542969 -2.25084233283996582 0.559120297431945801
0.783039331436157227 -2.16185927391052246 0.432131439447402954
-1.36545693874359131 2.94468474388122559 0.551692306995391846
-1.23911011219024658 1.05238962173461914 0.421044081449508667
0.466565579175949097 -1.01738119125366211 0.443617582321166992
0.709527194499969482 -2.32448315620422363 0.362997055053710938
-1.25016212463378906 -2.53722381591796875 0.579024851322174072
1.94601607322692871 -3.2985529899597168 0.916693389415740967
0.836538851261138916 2.26777458190917969 0.541014790534973145
-1.7755284309387207 2.90623092651367188 0.604428529739379883
-0.757531881332397461 0.784190714359283447 0.63355332612991333
1.46951389312744141 1.94199085235595703 0.687200307846069336
0.665469169616699219 2.63549065589904785 0.498380959033966064
0.488166213035583496 -1.85649466514587402 0.306686431169509888
1.64323163032531738 -1.75466692447662354 0.616180300712585449
0.943536877632141113 1.06717181205749512 0.678658246994018555
0.943232119083404541 -0.804936587810516357 0.474388003349304199
0.770788192749023438 -3.36686229705810547 0.469945996999740601
-1.65376079082489014 -1.98533129692077637 0.576237916946411133
-1.43373012542724609 -1.88919305801391602 0.721908748149871826
0.15929451584815979 -0.391464948654174805 0.598272085189819336
0.597417891025543213 2.91079044342041016 0.49944576621055603
0.744002640247344971 -0.965717077255249023 0.192306220531463623
-1.0309598445892334 3.88923287391662598 0.645834565162658691
-0.790589451789855957 1.59119462966918945 0.637486815452575684
1.57162189483642578 -0.654453396797180176 0.66739964485168457
-1.87878894805908203 2.14336180686950684 0.592003107070922852
-0.808812916278839111 2.86149430274963379 0.727108001708984375
0.581634342670440674 3.01466464996337891 0.543124198913574219
-1.39028000831604004 0.746761500835418701 0.471151769161224365
0.259617745876312256 0.332336902618408203 0.5387687087059021
0.503497004508972168 3.31439900398254395 0.505384325981140137
0.512750387191772461 -1.92142617702484131 0.416792005300521851
0.443398654460906982 2.46787261962890625 0.635917305946350098
1.28781461715698242 3.04036831855773926 0.762125492095947266
0.662240266799926758 -1.36260437965393066 0.406745702028274536
-1.57897102832794189 -1.99381077289581299 0.538287758827209473
0.90677034854888916 2.34240913391113281 0.567231416702270508
-1.4661862850189209 0.733266770839691162 0.484773904085159302
-1.46812617778778076 0.768198966979980469 0.502936482429504395
-1.34047806262969971 -2.04496121406555176 0.634980082511901855
1.14060366153717041 -4.23893928527832031 0.687996566295623779
-2.41459822654724121 -1.32188594341278076 0.527586996555328369
1.6375356912612915 -1.82558619976043701 0.672637701034545898
-0.817126989364624023 2.81412124633789062 0.73528444766998291
0.0461794435977935791 1.93276810646057129 0.649632692337036133
-0.928241848945617676 -0.921165347099304199 0.447456538677215576
-1.46470355987548828 -2.65292477607727051 0.587472259998321533
1.0111926794052124 -2.03255343437194824 0.525823712348937988
-0.241049617528915405 1.7093653678894043 0.537508368492126465
-1.17663872241973877 1.3988196849822998 0.4998912513256073
0.728552460670471191 2.34917759895324707 0.547847568988800049
-1.26486515998840332 0.876095175743103027 0.563365340232849121
0.0814775377511978149 1.82793748378753662 0.558297038078308105
-1.46465778350830078 0.707362771034240723 0.459315836429595947
-1.26897764205932617 -2.62616705894470215 0.614967286586761475
0.0141324400901794434 -1.76340365409851074 0.465127438306808472
0.754365324974060059 1.94481134414672852 0.536906421184539795
-1.37145078182220459 -1.04608595371246338 0.637459933757781982
0.851973295211791992 -2.01235818862915039 0.529757499694824219
1.49090027809143066 -2.31759262084960938 0.607169270515441895
0.99396049976348877 -0.983946740627288818 0.373527377843856812
-2.30766820907592773 0.532816767692565918 0.74399101734161377
-1.56779718399047852 2.4347083568572998 0.591219663619995117
-0.860117673873901367 -0.115872383117675781 0.526160120964050293
0.539900660514831543 -1.5180516242980957 0.534003853797912598
0.936448335647583008 -0.741901040077209473 0.456327676773071289
0.516374111175537109 -1.17245900630950928 0.597214460372924805
0.532129347324371338 -1.12905824184417725 0.454529702663421631
-1.57572567462921143 2.75349020957946777 0.60399472713470459
-2.10328483581542969 0.68509519100189209 0.567445516586303711
0.174790486693382263 1.42042779922485352 0.653339624404907227
0.591276049613952637 -4.17633247375488281 0.793784976005554199
-1.80183923244476318 2.4123079776763916 0.756628811359405518
0.791335761547088623 -2.3051903247833252 0.397516012191772461
-1.41489231586456299 0.84378969669342041 0.41221126914024353
0.847386717796325684 -2.39832448959350586 0.56187129020690918
-1.49814081192016602 -2.10418009757995605 0.723885059356689453
-1.44305622577667236 2.77591824531555176 0.591214179992675781
0.0133833885192871094 2.42490696907043457 0.656799435615539551
0.723286688327789307 -2.81817507743835449 0.565868616104125977
1.8804466724395752 1.64098703861236572 1.0361940860748291
0.980820894241333008 1.05176341533660889 0.659739494323730469
-0.241953343152999878 3.42315292358398438 0.754786014556884766
0.026157572865486145 3.26887702941894531 0.700634598731994629
0.411218345165252686 -4.69585895538330078 0.870613455772399902
-0.142475217580795288 -3.16222000122070312 0.743495762348175049
1.45994150638580322 2.30934548377990723 0.723314642906188965
-0.79449993371963501 0.858793020248413086 0.569352090358734131
-1.6876068115234375 4.13433361053466797 0.863158822059631348
0.81749415397644043 -2.29183363914489746 0.448175758123397827
-0.494985133409500122 1.12989950180053711 0.515894234180450439
1.51226961612701416 1.92915630340576172 0.676532447338104248
0.965749144554138184 -0.256772220134735107 0.648982048034667969
1.91738486289978027 -1.21622729301452637 0.665295958518981934
0.731920480728149414 -0.826764702796936035 0.492108583450317383
1.85685098171234131 -3.01576447486877441 0.849045515060424805
1.53699171543121338 -1.02098548412322998 0.704219996929168701
-0.460304319858551025 -1.17718708515167236 0.41908678412437439
-1.31463050842285156 -1.85320568084716797 0.772459089756011963
-0.00945004820823669434 3.24309897422790527 0.728642761707305908
1.42470824718475342 -1.17641258239746094 0.547840714454650879
0.662230849266052246 2.35639810562133789 0.607801079750061035
0.151615545153617859 -0.383634477853775024 0.573604226112365723
1.49405002593994141 -2.31977415084838867 0.638758599758148193
1.84350371360778809 -1.69927394390106201 0.881545782089233398
-0.982224881649017334 4.33519744873046875 0.825523555278778076
-2.20442771911621094 2.7178041934967041 0.736576557159423828
0.856791138648986816 -4.02224349975585938 0.660842418670654297
2.38646268844604492 -2.74931097030639648 0.682456731796264648
0.719103336334228516 2.4156191349029541 0.510965228080749512
0.767401456832885742 -2.70601463317871094 0.508018136024475098
2.40656590461730957 -3.20481538772583008 0.951054036617279053
0.395071536302566528 -1.96184563636779785 0.369158387184143066
1.22149980068206787 3.0894780158996582 0.765646517276763916
-1.40596258640289307 1.98589801788330078 0.519767284393310547
0.994610965251922607 2.22386860847473145 0.532338976860046387
-1.3383711576461792 -2.84999632835388184 0.769011557102203369
-1.5331043004989624 2.78726840019226074 0.67390894889831543
0.443742752075195312 3.01593112945556641 0.398946493864059448
1.30833768844604492 2.90376496315002441 0.752219557762145996
0.187755078077316284 -1.85319197177886963 0.229730457067489624
0.333254069089889526 2.39881277084350586 0.514645695686340332
1.03813552856445312 1.84647393226623535 0.575309514999389648
0.64793848991394043 2.54234480857849121 0.546090781688690186
1.10668206214904785 -4.44130373001098633 0.604459047317504883
-1.57270574569702148 3.00082039833068848 0.576250553131103516
-1.21203052997589111 1.1866309642791748 0.518756270408630371
-1.20170938968658447 -1.60573863983154297 0.614718317985534668
-2.23171782493591309 2.65238809585571289 0.731679201126098633
-2.20798850059509277 2.60196328163146973 0.701878547668457031
-1.3392937183380127 0.847506046295166016 0.503662765026092529
0.510560870170593262 -1.76334655284881592 0.370816737413406372
0.191973194479942322 -2.24378061294555664 0.543671548366546631
-0.244305878877639771 -1.05446493625640869 0.555707693099975586
-1.46908724308013916 1.16594564914703369 0.56634443998336792
-1.13527369499206543 2.87900900840759277 0.582190632820129395
0.927519798278808594 2.519439697265625 0.533432960510253906
-0.00954932067543268204 1.94137847423553467 0.664578735828399658
-1.24398720264434814 -2.25101184844970703 0.594309866428375244
0.84053957462310791 -2.32706093788146973 0.369152933359146118
-0.0266740918159484863 3.07152366638183594 0.679127812385559082
-1.52141404151916504 2.82525944709777832 0.618728280067443848
0.810738563537597656 -2.32475686073303223 0.406635433435440063
-1.55138790607452393 2.31647062301635742 0.679473280906677246
-1.50181114673614502 1.39436721801757812 0.654922127723693848
-1.31772160530090332 -2.91918206214904785 0.471319854259490967
-1.15426492691040039 -1.96435189247131348 0.678423643112182617
-1.84746742248535156 3.76036643981933594 0.604888498783111572
-2.29113626480102539 0.720170795917510986 0.710638105869293213
-1.51175951957702637 0.747513175010681152 0.489986658096313477
0.962508916854858398 1.02310490608215332 0.665636301040649414
0.978398561477661133 -0.4769439697265625 0.564094305038452148
-0.889215230941772461 1.92116713523864746 0.584226608276367188
-1.2183678150177002 1.12934374809265137 0.519733726978302002
0.0999459624290466309 2.43592929840087891 0.506465554237365723
-0.835583031177520752 2.84379863739013672 0.729680180549621582
0.636818230152130127 2.50144267082214355 0.559274733066558838
0.193837746977806091 -1.50843644142150879 0.269130170345306396
0.701649904251098633 -0.74562835693359375 0.289138585329055786
0.982526898384094238 -4.09283924102783203 0.651880443096160889
-1.48145377635955811 2.79820156097412109 0.702471375465393066
-1.67149603366851807 2.93859624862670898 0.621174097061157227
0.873158752918243408 -0.753761768341064453 0.464205116033554077
1.73250651359558105 2.14732456207275391 0.846779584884643555
0.554328501224517822 -3.95816874504089355 0.719542026519775391
0.497512638568878174 2.15601348876953125 0.561628520488739014
-1.44994068145751953 0.763210475444793701 0.483782380819320679
0.633256673812866211 -2.01544094085693359 0.387443095445632935
-0.707349121570587158 0.821452975273132324 0.596726059913635254
1.24679195880889893 2.49372482299804688 0.733671784400939941
-1.68614113330841064 2.61847138404846191 0.553832650184631348
0.540913164615631104 -1.51137709617614746 0.564458370208740234
-1.51534926891326904 2.64272618293762207 0.615728557109832764
0.654371023178100586 -1.85671401023864746 0.436705708503723145
0.580923020839691162 -3.09818792343139648 0.616280853748321533
1.01312172412872314 -4.07315635681152344 0.671557426452636719
-0.772873163223266602 1.91152215003967285 0.603435873985290527
-1.32394945621490479 -2.78218698501586914 0.509008169174194336
-0.215282261371612549 2.89581537246704102 0.534283161163330078
1.45206427574157715 -1.283058762550354 0.607014298439025879
-1.47244787216186523 -1.92902791500091553 0.625699996948242188
-0.139876127243041992 -1.59485626220703125 0.131315171718597412
0.515688717365264893 2.30283379554748535 0.560768842697143555
0.5520668625831604 0.651314318180084229 0.57475888729095459
0.699088513851165771 -0.907752156257629395 0.378357529640197754
0.731181502342224121 2.30665135383605957 0.506726086139678955
-1.80591940879821777 4.08690404891967773 0.807150900363922119
-1.35663378238677979 3.36522841453552246 0.717991828918457031
1.51329386234283447 -2.41469740867614746 0.639156341552734375
-1.19400525093078613 -2.75122404098510742 0.696940183639526367
0.73495030403137207 2.53583407402038574 0.596261382102966309
-1.75103974342346191 -1.98719501495361328 0.573282837867736816
-1.48003697395324707 2.27002143859863281 0.689096570014953613
0.64812004566192627 -2.07068705558776855 0.477428853511810303
1.90146350860595703 -3.63081049919128418 0.760419964790344238
