ply
format ascii 1.0
element vertex 256
comment vertices
property float x
property float y
property float z
end_header
-0.0837232768535614014 -1.26951479911804199 0.480392545461654663
-1.26276397705078125 4.4044952392578125 0.649150669574737549
1.85250592231750488 1.98385953903198242 1.04048275947570801
-1.02077412605285645 1.77694821357727051 0.723884344100952148
-2.66692996025085449 -2.05363273620605469 0.478328883647918701
0.349612027406692505 -2.25456714630126953 0.347586989402770996
0.514578580856323242 3.15204381942749023 0.584715425968170166
0.200261026620864868 -2.85938501358032227 0.685085833072662354
1.69910585880279541 -1.72405946254730225 0.733541548252105713
-1.86446225643157959 1.92126274108886719 0.743660926818847656
1.75947785377502441 2.87995576858520508 0.599314391613006592
-1.56766200065612793 -1.89190924167633057 0.607387185096740723
-1.46117067337036133 0.792318403720855713 0.486312001943588257
1.94611787796020508 -3.60169172286987305 0.944735407829284668
-0.0470480658113956451 3.48338913917541504 0.764416635036468506
0.948341310024261475 1.04277026653289795 0.636931896209716797
-1.57347226142883301 2.87314558029174805 0.57479560375213623
-1.85405063629150391 -0.456445544958114624 0.713111221790313721
0.557976245880126953 -1.49397027492523193 0.577455341815948486
-0.756782054901123047 0.833917915821075439 0.557542741298675537
0.731942474842071533 -4.64359426498413086 0.835600376129150391
2.44628500938415527 -2.68976616859436035 0.883776843547821045
0.678310036659240723 2.4759829044342041 0.527207851409912109
0.48061409592628479 -1.39097094535827637 0.574066638946533203
0.540441036224365234 -4.16030168533325195 0.838680922985076904
0.570290565490722656 -1.48474180698394775 0.556039154529571533
-1.65569531917572021 -1.99956798553466797 0.564847409725189209
-1.13727378845214844 -1.21097409725189209 0.971476376056671143
1.27388012409210205 2.47445082664489746 0.711775422096252441
0.675351142883300781 2.48519754409790039 0.521793007850646973
1.47805297374725342 -1.66398489475250244 0.66157001256942749
-2.51343846321105957 1.38597786426544189 0.906593561172485352
-2.17188405990600586 -1.67377698421478271 0.562307059764862061
-0.527271151542663574 0.410321593284606934 0.594249725341796875
-0.53370898962020874 -1.72919571399688721 0.637615323066711426
-1.25549769401550293 -2.86730265617370605 0.674681782722473145
-0.909007728099822998 2.11293339729309082 0.657348752021789551
1.46680474281311035 -2.48880243301391602 0.578424155712127686
0.713784992694854736 -2.80457830429077148 0.558200299739837646
-0.0808162391185760498 -2.07665681838989258 0.558285117149353027
0.70831596851348877 2.47257256507873535 0.523403584957122803
1.89661872386932373 -1.70762383937835693 1.03757262229919434
0.950745701789855957 -0.7443428635597229 0.456916540861129761
-1.78734719753265381 4.06553792953491211 0.938517928123474121
-2.22942256927490234 2.6994178295135498 0.77722930908203125
-2.30294942855834961 0.725618839263916016 0.769821882247924805
0.674845099449157715 2.46450638771057129 0.514823019504547119
0.972328901290893555 -4.02868270874023438 0.587122678756713867
-1.51064252853393555 2.28510117530822754 0.649545550346374512
-0.851522684097290039 0.3505115807056427 0.587401688098907471
-2.01159119606018066 3.12547016143798828 0.690825521945953369
-0.750396668910980225 -1.79575777053833008 0.778599917888641357
-0.910921335220336914 4.35862016677856445 0.821947574615478516
0.674107253551483154 2.48604512214660645 0.530379891395568848
1.18327891826629639 2.81867408752441406 0.576055407524108887
0.0376875363290309906 2.63453936576843262 0.672350168228149414
1.59238827228546143 -1.81785321235656738 0.679818034172058105
0.978327810764312744 -4.02894926071166992 0.646796226501464844
-1.4531855583190918 0.787461757659912109 0.491919845342636108
0.9450339674949646 -0.246594250202178955 0.630970895290374756
0.238228768110275269 -2.27568221092224121 0.528222858905792236
0.77876967191696167 -2.28085088729858398 0.375838577747344971
-1.55606389045715332 2.8898463249206543 0.600145459175109863
-1.33338284492492676 0.856674373149871826 0.45498695969581604
0.469820588827133179 -1.04921054840087891 0.50982588529586792
0.774459242820739746 -2.27669167518615723 0.36723792552947998
-1.19559752941131592 -2.72831320762634277 0.5886269211769104
1.97791624069213867 -3.37026190757751465 1.04600214958190918
0.687836110591888428 2.40608119964599609 0.586435258388519287
-1.59778404235839844 2.89501500129699707 0.63940197229385376
-0.768913805484771729 0.843628823757171631 0.554467439651489258
1.49622941017150879 1.93579304218292236 0.711820662021636963
0.696855425834655762 2.48710131645202637 0.522006571292877197
0.484228610992431641 -1.87030160427093506 0.35749971866607666
1.62303221225738525 -1.81032884120941162 0.661645293235778809
0.956595838069915771 1.04764330387115479 0.662918925285339355
0.952003955841064453 -0.73867875337600708 0.460136741399765015
0.765975058078765869 -3.39730286598205566 0.509080827236175537
-1.62915980815887451 -1.93066394329071045 0.588355839252471924
-1.46766769886016846 -1.86668097972869873 0.644723594188690186
0.160605773329734802 -0.375513851642608643 0.558005869388580322
0.597842812538146973 2.87525844573974609 0.600312352180480957
0.747868061065673828 -1.00758242607116699 0.283254474401473999
-0.994682788848876953 3.96632266044616699 0.689580321311950684
-0.811872482299804688 1.58841943740844727 0.689489841461181641
1.60770022869110107 -0.688297390937805176 0.644119381904602051
-1.89575874805450439 2.15369987487792969 0.63562697172164917
-0.837135076522827148 2.85701131820678711 0.717315375804901123
0.554661214351654053 3.00658535957336426 0.671561717987060547
-1.4742659330368042 0.804578065872192383 0.484641879796981812
0.253798097372055054 0.312708884477615356 0.611225426197052002
0.489377439022064209 3.28910136222839355 0.55648726224899292
0.525571286678314209 -1.93590033054351807 0.487363636493682861
0.695237994194030762 2.41954588890075684 0.521060585975646973
1.26627635955810547 3.0451662540435791 0.786300539970397949
0.566187262535095215 -1.49924874305725098 0.566528618335723877
-1.60775387287139893 -1.90045475959777832 0.573760688304901123
0.703071475028991699 2.41835880279541016 0.602730154991149902
-1.46241879463195801 0.800838649272918701 0.485900372266769409
-1.45720410346984863 0.795437455177307129 0.487416923046112061
-1.43830215930938721 -1.88580918312072754 0.605420887470245361
0.970169782638549805 -4.08336257934570312 0.623783230781555176
-2.41378211975097656 -1.34909987449645996 0.566092073917388916
1.63140451908111572 -1.82213437557220459 0.676330983638763428
-0.83772742748260498 2.8555901050567627 0.718791604042053223
0.0370087847113609314 1.94209194183349609 0.666139721870422363
-0.912745773792266846 -0.934421837329864502 0.512450337409973145
-1.29128420352935791 -2.79760313034057617 0.636786818504333496
0.878285467624664307 -2.22634553909301758 0.461831152439117432
-0.238338977098464966 1.71053850650787354 0.613827705383300781
-1.17543303966522217 1.39254677295684814 0.546093523502349854
0.678588211536407471 2.45694828033447266 0.50011897087097168
-1.4881751537322998 0.79268258810043335 0.535527288913726807
0.0277272909879684448 1.94271624088287354 0.645662546157836914
-1.46657478809356689 0.804620862007141113 0.478774577379226685
-1.2179330587387085 -2.76596665382385254 0.65638047456741333
0.00577043741941452026 -1.77278280258178711 0.523474812507629395
0.740425527095794678 2.13881325721740723 0.644192159175872803
-1.38995099067687988 -1.05458307266235352 0.639283061027526855
0.793337583541870117 -2.21994733810424805 0.537910103797912598
1.50288748741149902 -2.41091537475585938 0.621959090232849121
0.946309864521026611 -0.767229974269866943 0.453226566314697266
-2.31063318252563477 0.70966804027557373 0.788737058639526367
-1.50238633155822754 2.2809300422668457 0.644666731357574463
-0.863511621952056885 -0.133669868111610413 0.590704739093780518
0.556337594985961914 -1.49439966678619385 0.567007720470428467
0.960496425628662109 -0.742696583271026611 0.444112062454223633
0.505774855613708496 -1.41833996772766113 0.612017810344696045
0.528729856014251709 -1.1508406400680542 0.518150746822357178
-1.57696139812469482 2.87195014953613281 0.575354516506195068
-2.2825014591217041 0.719864845275878906 0.737626314163208008
0.176962003111839294 1.40757334232330322 0.702504336833953857
0.559134840965270996 -4.17175006866455078 0.869120240211486816
-1.51628673076629639 2.3151092529296875 0.62864840030670166
0.759603142738342285 -2.26954245567321777 0.368624597787857056
-1.50358021259307861 0.810265064239501953 0.453436791896820068
0.787499129772186279 -2.31316208839416504 0.423802405595779419
-1.52741098403930664 -1.96454620361328125 0.635006606578826904
-1.57731616497039795 2.87476015090942383 0.574671447277069092
0.0270631611347198486 2.53705406188964844 0.669295787811279297
0.717127442359924316 -2.80644989013671875 0.566118299961090088
1.90793883800506592 1.56045806407928467 1.06215369701385498
0.967413961887359619 1.04042661190032959 0.659615933895111084
-0.0535001903772354126 3.45117020606994629 0.776698827743530273
-0.00855579972267150879 3.17366862297058105 0.68759763240814209
0.395661830902099609 -4.68691682815551758 0.871271193027496338
-0.137861683964729309 -3.15976214408874512 0.778835535049438477
1.26337575912475586 2.45332765579223633 0.732519388198852539
-0.75794374942779541 0.839070975780487061 0.559833109378814697
-1.74530315399169922 4.09099960327148438 0.908514499664306641
0.771741151809692383 -2.27455496788024902 0.376732498407363892
-0.487136185169219971 1.1177976131439209 0.600001633167266846
1.50682520866394043 1.92900741100311279 0.709760129451751709
0.94516146183013916 -0.246796905994415283 0.639244616031646729
1.93311846256256104 -1.23013472557067871 0.720776796340942383
0.937021493911743164 -0.760693371295928955 0.458383321762084961
1.94795036315917969 -3.07539582252502441 0.966484010219573975
1.53482389450073242 -0.991699039936065674 0.624594807624816895
-0.461241394281387329 -1.17871272563934326 0.485656917095184326
-1.37546253204345703 -1.81165194511413574 0.811993896961212158
-0.0145626133307814598 3.18092250823974609 0.694861173629760742
1.52178215980529785 -1.19182038307189941 0.652151823043823242
0.675051033496856689 2.45570015907287598 0.5096854567527771
0.164038166403770447 -0.377156227827072144 0.557162046432495117
1.50007343292236328 -2.40874338150024414 0.621748566627502441
1.90251028537750244 -1.71579098701477051 0.973714590072631836
-0.899031162261962891 4.35463428497314453 0.823909103870391846
-2.22390031814575195 2.69381499290466309 0.775898218154907227
0.97540658712387085 -4.01118087768554688 0.615800142288208008
2.41745495796203613 -2.74761629104614258 0.64317023754119873
0.670798063278198242 2.45927667617797852 0.511934161186218262
0.716102182865142822 -2.78913426399230957 0.553341805934906006
2.43876171112060547 -3.24774646759033203 0.886838674545288086
0.390826940536499023 -1.96598005294799805 0.43330034613609314
1.26098513603210449 3.05772089958190918 0.794663071632385254
-1.4007568359375 1.99603700637817383 0.555836677551269531
0.75663226842880249 2.30901598930358887 0.626821577548980713
-1.25513732433319092 -2.83915472030639648 0.705712437629699707
-1.57406497001647949 2.87175559997558594 0.574352502822875977
0.473280519247055054 2.97440695762634277 0.548827111721038818
1.26569914817810059 2.98869657516479492 0.759760618209838867
0.203924700617790222 -1.85904395580291748 0.247188389301300049
0.568310916423797607 2.40988802909851074 0.530112028121948242
1.03958034515380859 1.84520590305328369 0.664670467376708984
0.674043595790863037 2.49481701850891113 0.535736382007598877
1.14114284515380859 -4.39658975601196289 0.577859640121459961
-1.56917214393615723 2.87768912315368652 0.599452793598175049
-1.22414195537567139 1.17951202392578125 0.58336561918258667
-1.26512372493743896 -1.6282726526260376 0.630619823932647705
-2.22632098197937012 2.68810725212097168 0.772675931453704834
-2.22788357734680176 2.69041132926940918 0.767855226993560791
-1.49919092655181885 0.796665668487548828 0.485661715269088745
0.445776432752609253 -1.51672697067260742 0.538422644138336182
0.223885953426361084 -2.26251792907714844 0.529289782047271729
-0.256843060255050659 -1.06966507434844971 0.619681835174560547
-1.51496982574462891 1.40110981464385986 0.613934934139251709
-1.14696145057678223 2.89094758033752441 0.626012146472930908
0.728851974010467529 2.47475814819335938 0.557718753814697266
0.0213154181838035583 1.94554412364959717 0.663456320762634277
-1.27623593807220459 -2.1784965991973877 0.626586198806762695
0.773068010807037354 -2.28512144088745117 0.368989497423171997
-0.0107390787452459335 3.10481166839599609 0.686277270317077637
-1.58101630210876465 2.88210868835449219 0.576739788055419922
0.773840188980102539 -2.2916874885559082 0.377054750919342041
-1.50962364673614502 2.29399657249450684 0.649921119213104248
-1.51403319835662842 1.40198993682861328 0.615408778190612793
-1.28054404258728027 -2.92069149017333984 0.595012128353118896
-1.23642098903656006 -1.97299826145172119 0.669254004955291748
-1.83730971813201904 3.75509810447692871 0.654841899871826172
-2.29955697059631348 0.716725289821624756 0.775860130786895752
-1.45017898082733154 0.795993208885192871 0.484453976154327393
0.96452486515045166 1.04165971279144287 0.662955224514007568
0.957834422588348389 -0.352860897779464722 0.628273129463195801
-0.89827340841293335 1.90415549278259277 0.665269136428833008
-1.23034787178039551 1.12114691734313965 0.588788866996765137
0.0203691497445106506 2.47935795783996582 0.670240402221679688
-0.833503484725952148 2.85307979583740234 0.720715999603271484
0.675732791423797607 2.4897923469543457 0.532726585865020752
0.193528324365615845 -1.53175830841064453 0.285395324230194092
0.913385272026062012 -0.734567701816558838 0.390997827053070068
0.990348100662231445 -4.02627754211425781 0.61280667781829834
-1.56267654895782471 2.86429834365844727 0.575315237045288086
-1.5712888240814209 2.87815308570861816 0.644877314567565918
0.967276275157928467 -0.748180389404296875 0.44742119312286377
1.48997676372528076 2.0340421199798584 0.756545305252075195
0.542485833168029785 -4.16112184524536133 0.835065484046936035
0.753098189830780029 2.33788681030273438 0.572992563247680664
-1.46349167823791504 0.7996407151222229 0.485608220100402832
0.740603864192962646 -2.21831464767456055 0.416947394609451294
-0.765509665012359619 0.846067428588867188 0.561112761497497559
1.27862370014190674 2.51732897758483887 0.739177942276000977
-1.55854165554046631 2.77068805694580078 0.589670896530151367
0.559084773063659668 -1.49306559562683105 0.578055083751678467
-1.58028364181518555 2.78538918495178223 0.586575686931610107
0.740944027900695801 -1.9966437816619873 0.527135908603668213
0.709478318691253662 -2.86984848976135254 0.539621591567993164
0.989420950412750244 -4.02172708511352539 0.621090292930603027
-0.781596183776855469 1.90166628360748291 0.683920741081237793
-1.23689508438110352 -2.84459543228149414 0.618628621101379395
-0.0433414280414581299 3.02425789833068848 0.65709078311920166
1.51998019218444824 -1.24315214157104492 0.635210514068603516
-1.54137229919433594 -1.87189292907714844 0.59763258695602417
-0.138181969523429871 -1.60850107669830322 0.115146443247795105
0.743960678577423096 2.39481377601623535 0.519219756126403809
0.551485061645507812 0.641626834869384766 0.642129898071289062
0.933765172958374023 -0.767864048480987549 0.437915056943893433
0.688260495662689209 2.44934535026550293 0.525726795196533203
-1.7726142406463623 4.07178449630737305 0.906710386276245117
-1.35767924785614014 3.36333131790161133 0.78645092248916626
1.50359439849853516 -2.40906977653503418 0.619228363037109375
-1.24107551574707031 -2.81172752380371094 0.686885297298431396
0.672354757785797119 2.48212671279907227 0.53491818904876709
-1.64384257793426514 -1.9410860538482666 0.580837130546569824
-1.51325559616088867 2.28740954399108887 0.652350008487701416
0.7562369704246521 -2.26270318031311035 0.425320148468017578
1.95559787750244141 -3.64584112167358398 0.94480443000793457
