ply
format ascii 1.0
element vertex 256
comment vertices
property float x
property float y
property float z
end_header
-1.61016678810119629 2.0818784236907959 -0.773768782615661621
1.20865941047668457 3.60318994522094727 -1.12225174903869629
0.194123774766921997 1.36895251274108887 -1.123191237449646
0.708764493465423584 4.55449628829956055 -0.837108194828033447
1.64313769340515137 3.91525983810424805 -0.238231509923934937
-0.00187601149082183838 2.73261666297912598 -1.14778506755828857
-1.96541297435760498 2.67778348922729492 -1.22101497650146484
1.11183309555053711 2.6526644229888916 -1.09154367446899414
-0.677291035652160645 4.72164440155029297 -0.277853548526763916
-0.917925238609313965 3.24091839790344238 -1.26480495929718018
-0.668412089347839355 1.92680108547210693 -1.16123712062835693
0.65691828727722168 3.99088835716247559 -1.09274125099182129
0.867281734943389893 3.73769187927246094 -1.07074272632598877
1.09465289115905762 2.64071226119995117 -1.04526996612548828
-1.55494081974029541 3.6279301643371582 -0.968054831027984619
0.637160837650299072 2.1736304759979248 -1.10803735256195068
0.447362124919891357 2.82847857475280762 -1.2047727108001709
-0.293472349643707275 3.90735244750976562 -1.10162580013275146
0.753148674964904785 3.5562443733215332 -1.119620680809021
-1.32509541511535645 2.30176019668579102 -1.25776970386505127
0.760969817638397217 3.52517986297607422 -1.11403548717498779
-0.480670154094696045 2.46733403205871582 -1.14997148513793945
-0.602808654308319092 4.38881492614746094 -0.373748272657394409
1.44212675094604492 2.93506836891174316 -1.10887086391448975
0.206651821732521057 2.71661138534545898 -1.17287874221801758
-0.292531877756118774 3.88675355911254883 -1.08352828025817871
0.983294844627380371 4.12814950942993164 -0.987748265266418457
-0.0306591503322124481 2.26158237457275391 -1.17404639720916748
-0.416401267051696777 1.86604297161102295 -1.2164161205291748
0.762083590030670166 4.12707233428955078 -0.979807376861572266
1.47260832786560059 4.08035755157470703 0.0201842337846755981
-2.18210458755493164 -0.522756576538085938 -1.21768832206726074
0.136255845427513123 2.82588958740234375 -1.17475783824920654
-1.0914313793182373 3.17732906341552734 -0.572845458984375
0.852766871452331543 3.30266141891479492 -0.730052471160888672
0.110056862235069275 3.00923442840576172 -1.18543970584869385
-1.09381723403930664 2.46785593032836914 -1.09752178192138672
0.226032182574272156 1.36804461479187012 -1.08325004577636719
-1.18981635570526123 3.58553051948547363 -1.20243608951568604
0.107930421829223633 2.76035189628601074 -1.16866886615753174
-1.00030255317687988 4.27213859558105469 -1.11786448955535889
-1.50278127193450928 2.84524393081665039 -1.13998973369598389
0.311363458633422852 2.36194753646850586 -1.31616270542144775
1.11063623428344727 2.61932921409606934 -1.07855308055877686
-0.781314671039581299 4.06580877304077148 -0.467404007911682129
0.940531253814697266 4.81740140914916992 -0.273302435874938965
0.548381567001342773 4.50326204299926758 -0.0400843173265457153
0.19240453839302063 1.39426100254058838 -1.11022591590881348
-1.78104984760284424 2.62308096885681152 -1.12305164337158203
0.297876060009002686 4.01726627349853516 -0.977811336517333984
1.72471737861633301 4.23100662231445312 -0.971544206142425537
-0.0880149304866790771 2.61842203140258789 -1.17366111278533936
0.895647764205932617 2.72544956207275391 -1.14515149593353271
0.648692905902862549 2.17242550849914551 -1.112571120262146
0.212628290057182312 2.9329988956451416 -1.17149782180786133
-0.602487504482269287 1.02432656288146973 -1.20203900337219238
0.656104207038879395 2.16209125518798828 -1.10370159149169922
-1.56404197216033936 3.80185985565185547 -1.15175831317901611
0.11610817164182663 2.79922962188720703 -1.17406582832336426
-0.378970593214035034 2.07438492774963379 -1.17351949214935303
-2.91519522666931152 0.955648064613342285 -1.01808047294616699
0.682701826095581055 4.36266136169433594 -0.368191927671432495
0.730625689029693604 3.5430300235748291 -1.11501193046569824
0.674463272094726562 4.11601543426513672 -0.894638419151306152
-1.07643234729766846 4.12377595901489258 -0.639598548412322998
0.00731009244918823242 2.98543214797973633 -1.17727041244506836
-1.7307208776473999 3.92325735092163086 -0.770917415618896484
1.21538543701171875 2.044921875 -1.1416480541229248
-0.356334269046783447 3.44181442260742188 -1.29932713508605957
0.596744775772094727 3.7258906364440918 -1.13559460639953613
-0.37452736496925354 2.04838132858276367 -1.21312499046325684
-1.05603742599487305 2.69810891151428223 -1.26356661319732666
-0.369035691022872925 1.9729992151260376 -1.19716358184814453
0.636072337627410889 2.16978335380554199 -1.10368752479553223
0.105284348130226135 2.67893838882446289 -1.18889856338500977
1.1385570764541626 2.61497926712036133 -1.1007080078125
0.388454616069793701 3.59672737121582031 -1.1656806468963623
0.752631962299346924 3.55212259292602539 -1.12113487720489502
0.401537030935287476 1.75622010231018066 -1.39380002021789551
-0.00108634959906339645 2.54911971092224121 -1.18737959861755371
0.851545155048370361 4.27591276168823242 -0.517279982566833496
-0.0108038932085037231 2.62066268920898438 -1.14813542366027832
-1.09454584121704102 2.47897028923034668 -1.13812935352325439
0.213902473449707031 1.35943484306335449 -1.10527050495147705
0.956908106803894043 2.81212520599365234 -1.13226020336151123
-0.977728605270385742 3.24224185943603516 -1.22632050514221191
-1.81961584091186523 3.01703047752380371 -1.0797351598739624
1.1301499605178833 2.61499381065368652 -1.07173573970794678
-0.296219468116760254 3.91191959381103516 -1.11820721626281738
0.651350975036621094 2.17312121391296387 -1.11486971378326416
0.934357583522796631 4.01364803314208984 -1.0439915657043457
1.12000036239624023 3.45399379730224609 -1.12107217311859131
-1.30057191848754883 3.94289612770080566 -1.09832227230072021
1.12221264839172363 2.61384129524230957 -1.06511378288269043
-1.2060694694519043 2.61467933654785156 -0.626887679100036621
-1.09827232360839844 2.47319674491882324 -1.13588273525238037
0.92030024528503418 3.89647340774536133 -0.851414978504180908
-1.26261591911315918 3.05365800857543945 -0.8168601393699646
0.219341754913330078 1.36400294303894043 -1.11528658866882324
-1.35264968872070312 2.39879369735717773 -1.16617798805236816
0.612356960773468018 4.42015218734741211 -0.782909512519836426
0.528458118438720703 3.44338536262512207 -1.07338237762451172
1.56164181232452393 2.91996431350708008 -1.03679394721984863
-1.53368401527404785 3.99277067184448242 -1.09716963768005371
-0.181244611740112305 2.13890624046325684 -1.19981467723846436
-0.219067364931106567 2.27143168449401855 -1.17274177074432373
0.758415699005126953 3.52732515335083008 -1.11109960079193115
0.629981935024261475 2.16429948806762695 -1.10621345043182373
-0.712062358856201172 2.65271973609924316 -1.10059881210327148
0.266991376876831055 4.99972867965698242 -0.478221595287322998
-1.3045879602432251 3.25484800338745117 -1.23659431934356689
0.248621255159378052 1.45722031593322754 -1.06165504455566406
0.737090945243835449 3.67912721633911133 -0.618290901184082031
-0.00220330804586410522 2.57846999168395996 -1.16456961631774902
-0.0989910364151000977 2.64085054397583008 -1.21174824237823486
1.42468535900115967 4.06913232803344727 -1.03056085109710693
0.0188443623483181 2.72341370582580566 -1.16486942768096924
0.0987657308578491211 1.97793102264404297 -1.32029581069946289
-1.78802883625030518 3.94757390022277832 -0.807134449481964111
0.285246372222900391 3.65752577781677246 -1.02815091609954834
1.51155328750610352 3.93308544158935547 0.0113894566893577576
0.643246054649353027 2.17141532897949219 -1.10619556903839111
-0.187528237700462341 2.34731078147888184 -1.17241322994232178
0.756530523300170898 3.53737258911132812 -1.11636102199554443
1.12296676635742188 4.21885490417480469 -1.00838685035705566
-1.87220203876495361 2.32273387908935547 -0.991378188133239746
0.64833909273147583 2.165313720703125 -1.1105952262878418
-1.46613752841949463 3.09947943687438965 -1.26026999950408936
-0.938420534133911133 3.16260433197021484 -1.12634372711181641
0.0810499787330627441 2.65871167182922363 -1.19688558578491211
1.10609054565429688 2.64881348609924316 -1.0663449764251709
-0.0124988928437232971 2.89559507369995117 -1.18220877647399902
1.44124484062194824 4.09008979797363281 -1.02319073677062988
-1.09678483009338379 2.47338509559631348 -1.12561535835266113
-0.443932712078094482 1.82477939128875732 -1.21490347385406494
-2.34373378753662109 1.2143406867980957 -1.12944233417510986
-0.267237395048141479 3.77851748466491699 -1.27160751819610596
0.518019199371337891 4.1522526741027832 -0.835081517696380615
0.600421428680419922 3.06434345245361328 -1.13506388664245605
0.102802082896232605 2.82028341293334961 -1.18142807483673096
0.542300045490264893 3.14663410186767578 -1.16234004497528076
-1.61311042308807373 1.93235254287719727 -1.21804749965667725
0.6437034010887146 2.18051338195800781 -1.1295696496963501
-0.858875513076782227 3.82630586624145508 -0.540249764919281006
-0.277486860752105713 3.90330076217651367 -1.12905073165893555
-0.507363855838775635 1.56442475318908691 -1.35294818878173828
0.0618752464652061462 2.69614076614379883 -1.1798396110534668
1.29137158393859863 3.37804222106933594 -0.618498563766479492
-1.95485901832580566 2.75675010681152344 -1.22945165634155273
1.08036196231842041 3.96178984642028809 -0.756268024444580078
1.4976956844329834 4.48781442642211914 -0.919752597808837891
-2.65229296684265137 4.10326957702636719 -0.664026618003845215
0.0858094915747642517 2.68321108818054199 -1.17025911808013916
0.564877748489379883 3.94726395606994629 -1.10796880722045898
0.915194988250732422 3.83343219757080078 -1.11492609977722168
0.212448775768280029 1.36748290061950684 -1.11686801910400391
-0.223313286900520325 2.18507647514343262 -1.177482008934021
-0.0132853761315345764 2.22974753379821777 -1.19052398204803467
0.461705595254898071 2.54213333129882812 -1.13208544254302979
-1.08455193042755127 2.4825904369354248 -1.07869195938110352
1.47002124786376953 0.578390359878540039 -1.15536391735076904
-0.868583500385284424 2.84659910202026367 -0.849408566951751709
0.464651495218276978 3.53182339668273926 -1.06775534152984619
1.09467446804046631 2.6452183723449707 -1.06918549537658691
0.650098919868469238 2.15999341011047363 -1.10351288318634033
-0.908242702484130859 3.50134444236755371 -0.596636295318603516
-1.07379484176635742 2.48214507102966309 -1.12204694747924805
-0.29336315393447876 3.91904926300048828 -1.09350264072418213
-0.368157625198364258 1.8871082067489624 -1.23216497898101807
-1.48172652721405029 3.23856353759765625 -0.784527182579040527
0.0106041133403778076 2.73166346549987793 -1.15293872356414795
-0.103472113609313965 4.54576969146728516 -0.445576936006546021
1.12029445171356201 2.61377668380737305 -1.06384849548339844
-0.989182651042938232 3.67237758636474609 -1.12074649333953857
-0.117664650082588196 2.55065464973449707 -1.15394794940948486
-2.74322032928466797 1.19909608364105225 -1.02155780792236328
-0.295267581939697266 3.90896105766296387 -1.11451923847198486
1.09096169471740723 2.65670084953308105 -1.07127809524536133
1.1097177267074585 2.61897373199462891 -1.07684195041656494
-1.71356868743896484 2.72989654541015625 -0.806493997573852539
0.501635313034057617 4.24238777160644531 -1.05581402778625488
0.024488791823387146 2.74873757362365723 -1.1692955493927002
0.8401222825050354 4.07834005355834961 -1.08016312122344971
-0.353026598691940308 1.95984435081481934 -1.2057654857635498
-0.47874787449836731 1.94157159328460693 -1.20212471485137939
0.324102461338043213 2.69292068481445312 -1.11976146697998047
-1.95087110996246338 3.81640744209289551 -1.2279515266418457
0.892691969871520996 3.99001669883728027 -1.09547758102416992
1.52233254909515381 3.61405754089355469 -0.708754599094390869
0.907989144325256348 3.5276494026184082 -0.867918014526367188
1.1047661304473877 2.62282824516296387 -1.06590020656585693
0.123460538685321808 3.03784751892089844 -1.16604721546173096
-1.08588790893554688 3.53975439071655273 -1.19935619831085205
-0.472931206226348877 2.69538259506225586 -1.25491738319396973
0.81300663948059082 3.27456283569335938 -1.07756352424621582
0.208185449242591858 4.98438167572021484 -0.400092035531997681
-1.36616599559783936 2.95726466178894043 -1.17962479591369629
0.822687387466430664 4.30869913101196289 -0.965681910514831543
-0.260970413684844971 2.01663851737976074 -1.20728039741516113
0.747527539730072021 3.54752516746520996 -1.10430216789245605
-0.342929482460021973 2.05238747596740723 -1.18083178997039795
-0.535144448280334473 1.80981063842773438 -1.17985916137695312
-2.18670177459716797 -0.38721919059753418 -1.23080539703369141
-0.77192986011505127 2.83389759063720703 -1.15972220897674561
1.12733399868011475 2.61736321449279785 -1.08299684524536133
0.24969153106212616 3.0068206787109375 -1.11233735084533691
-0.27223050594329834 2.03392863273620605 -1.19579124450683594
-1.09306252002716064 2.47589778900146484 -1.10203695297241211
-0.00296975672245025635 2.84250473976135254 -1.18146884441375732
0.829702377319335938 4.08739614486694336 -0.743323802947998047
-1.84963726997375488 2.04293274879455566 -1.07215690612792969
-0.000418771058320999146 0.898487091064453125 -1.36337971687316895
0.215533390641212463 1.36047637462615967 -1.10609543323516846
1.64963102340698242 3.58447074890136719 -0.668483853340148926
0.280326724052429199 3.92060422897338867 -0.704230785369873047
1.02900838851928711 3.8644108772277832 -0.908090949058532715
0.926265239715576172 3.8947758674621582 -1.04748296737670898
1.29588222503662109 3.14133214950561523 -1.11393439769744873
-3.28917741775512695 1.76655316352844238 -1.17378175258636475
-0.0916865319013595581 2.37516307830810547 -1.18950486183166504
-0.339148938655853271 1.9316561222076416 -1.21042478084564209
0.732654452323913574 3.9379267692565918 -1.11753392219543457
-1.45806682109832764 3.19946479797363281 -1.17836987972259521
-1.81059932708740234 2.07293009757995605 -1.04216444492340088
0.698060870170593262 2.15442585945129395 -1.12291598320007324
-0.436006128787994385 2.66484928131103516 -1.32895100116729736
-2.09927630424499512 3.0305790901184082 -1.25496947765350342
1.52300035953521729 3.23461508750915527 -0.750307738780975342
1.48810863494873047 3.80392956733703613 -0.689752936363220215
0.957324445247650146 4.56798362731933594 -0.945469021797180176
0.763063967227935791 3.52578163146972656 -1.1165996789932251
-0.289312422275543213 3.90680932998657227 -1.09857606887817383
0.0401869937777519226 2.66463088989257812 -1.16954255104064941
0.566811561584472656 1.02612924575805664 -1.41620373725891113
-1.27545845508575439 3.31200265884399414 -0.598745107650756836
-0.781475067138671875 2.59114599227905273 -1.31531929969787598
0.432366907596588135 3.61335396766662598 -0.684690773487091064
1.04028499126434326 3.90189838409423828 -0.862421154975891113
-0.198411911725997925 2.43763375282287598 -1.14620399475097656
0.219989225268363953 1.3620525598526001 -1.1197350025177002
0.318485468626022339 4.22337007522583008 -0.957944512367248535
-1.09452760219573975 2.47463345527648926 -1.12302052974700928
0.102645322680473328 2.7735905647277832 -1.18968069553375244
-1.65852952003479004 1.96747303009033203 -1.02343058586120605
0.271208286285400391 3.88779807090759277 -0.64372551441192627
-1.13511383533477783 2.24942350387573242 -1.25520467758178711
0.653203606605529785 2.16945266723632812 -1.11271989345550537
0.305925101041793823 3.37431526184082031 -1.13518285751342773
0.135108664631843567 2.67772173881530762 -1.18000006675720215
0.0619116351008415222 2.42352533340454102 -1.16447687149047852
-0.253866732120513916 2.07130146026611328 -1.21339046955108643
0.0976191461086273193 2.78045821189880371 -1.17637038230895996
0.208678722381591797 1.40088236331939697 -1.09879815578460693
1.14759182929992676 2.61959648132324219 -1.07973158359527588
0.739213645458221436 3.57311105728149414 -1.13601374626159668
-2.01262784004211426 3.93032431602478027 -1.06599843502044678
