ply
format ascii 1.0
element vertex 115
comment vertices
property float x
property float y
property float z
end_header
0.194123774766921997 1.36895251274108887 -1.123191237449646
-0.00187601149082183838 2.73261666297912598 -1.14778506755828857
1.11183309555053711 2.6526644229888916 -1.09154367446899414
-0.668412089347839355 1.92680108547210693 -1.16123712062835693
1.09465289115905762 2.64071226119995117 -1.04526996612548828
0.637160837650299072 2.1736304759979248 -1.10803735256195068
-0.293472349643707275 3.90735244750976562 -1.10162580013275146
0.753148674964904785 3.5562443733215332 -1.119620680809021
0.760969817638397217 3.52517986297607422 -1.11403548717498779
-0.480670154094696045 2.46733403205871582 -1.14997148513793945
0.206651821732521057 2.71661138534545898 -1.17287874221801758
-0.292531877756118774 3.88675355911254883 -1.08352828025817871
-0.0306591503322124481 2.26158237457275391 -1.17404639720916748
-0.416401267051696777 1.86604297161102295 -1.2164161205291748
0.136255845427513123 2.82588958740234375 -1.17475783824920654
0.110056862235069275 3.00923442840576172 -1.18543970584869385
-1.09381723403930664 2.46785593032836914 -1.09752178192138672
0.226032182574272156 1.36804461479187012 -1.08325004577636719
0.107930421829223633 2.76035189628601074 -1.16866886615753174
1.11063623428344727 2.61932921409606934 -1.07855308055877686
0.19240453839302063 1.39426100254058838 -1.11022591590881348
-0.0880149304866790771 2.61842203140258789 -1.17366111278533936
0.895647764205932617 2.72544956207275391 -1.14515149593353271
0.648692905902862549 2.17242550849914551 -1.112571120262146
0.212628290057182312 2.9329988956451416 -1.17149782180786133
0.656104207038879395 2.16209125518798828 -1.10370159149169922
0.11610817164182663 2.79922962188720703 -1.17406582832336426
-0.378970593214035034 2.07438492774963379 -1.17351949214935303
0.730625689029693604 3.5430300235748291 -1.11501193046569824
0.00731009244918823242 2.98543214797973633 -1.17727041244506836
-0.37452736496925354 2.04838132858276367 -1.21312499046325684
-0.369035691022872925 1.9729992151260376 -1.19716358184814453
0.636072337627410889 2.16978335380554199 -1.10368752479553223
0.105284348130226135 2.67893838882446289 -1.18889856338500977
1.1385570764541626 2.61497926712036133 -1.1007080078125
0.752631962299346924 3.55212259292602539 -1.12113487720489502
-0.00108634959906339645 2.54911971092224121 -1.18737959861755371
-0.0108038932085037231 2.62066268920898438 -1.14813542366027832
-1.09454584121704102 2.47897028923034668 -1.13812935352325439
0.213902473449707031 1.35943484306335449 -1.10527050495147705
1.1301499605178833 2.61499381065368652 -1.07173573970794678
-0.296219468116760254 3.91191959381103516 -1.11820721626281738
0.651350975036621094 2.17312121391296387 -1.11486971378326416
1.12221264839172363 2.61384129524230957 -1.06511378288269043
-1.09827232360839844 2.47319674491882324 -1.13588273525238037
0.219341754913330078 1.36400294303894043 -1.11528658866882324
-0.181244611740112305 2.13890624046325684 -1.19981467723846436
0.758415699005126953 3.52732515335083008 -1.11109960079193115
0.629981935024261475 2.16429948806762695 -1.10621345043182373
0.248621255159378052 1.45722031593322754 -1.06165504455566406
-0.00220330804586410522 2.57846999168395996 -1.16456961631774902
0.0188443623483181 2.72341370582580566 -1.16486942768096924
0.643246054649353027 2.17141532897949219 -1.10619556903839111
-0.187528237700462341 2.34731078147888184 -1.17241322994232178
0.756530523300170898 3.53737258911132812 -1.11636102199554443
0.64833909273147583 2.165313720703125 -1.1105952262878418
0.0810499787330627441 2.65871167182922363 -1.19688558578491211
1.10609054565429688 2.64881348609924316 -1.0663449764251709
-0.0124988928437232971 2.89559507369995117 -1.18220877647399902
-1.09678483009338379 2.47338509559631348 -1.12561535835266113
-0.443932712078094482 1.82477939128875732 -1.21490347385406494
0.102802082896232605 2.82028341293334961 -1.18142807483673096
0.6437034010887146 2.18051338195800781 -1.1295696496963501
-0.277486860752105713 3.90330076217651367 -1.12905073165893555
0.0618752464652061462 2.69614076614379883 -1.1798396110534668
0.0858094915747642517 2.68321108818054199 -1.17025911808013916
0.212448775768280029 1.36748290061950684 -1.11686801910400391
-0.223313286900520325 2.18507647514343262 -1.177482008934021
-0.0132853761315345764 2.22974753379821777 -1.19052398204803467
0.461705595254898071 2.54213333129882812 -1.13208544254302979
-1.08455193042755127 2.4825904369354248 -1.07869195938110352
1.09467446804046631 2.6452183723449707 -1.06918549537658691
0.650098919868469238 2.15999341011047363 -1.10351288318634033
-1.07379484176635742 2.48214507102966309 -1.12204694747924805
-0.29336315393447876 3.91904926300048828 -1.09350264072418213
0.0106041133403778076 2.73166346549987793 -1.15293872356414795
1.12029445171356201 2.61377668380737305 -1.06384849548339844
-0.117664650082588196 2.55065464973449707 -1.15394794940948486
-0.295267581939697266 3.90896105766296387 -1.11451923847198486
1.09096169471740723 2.65670084953308105 -1.07127809524536133
1.1097177267074585 2.61897373199462891 -1.07684195041656494
0.024488791823387146 2.74873757362365723 -1.1692955493927002
-0.353026598691940308 1.95984435081481934 -1.2057654857635498
-0.47874787449836731 1.94157159328460693 -1.20212471485137939
0.324102461338043213 2.69292068481445312 -1.11976146697998047
1.1047661304473877 2.62282824516296387 -1.06590020656585693
0.123460538685321808 3.03784751892089844 -1.16604721546173096
-0.260970413684844971 2.01663851737976074 -1.20728039741516113
0.747527539730072021 3.54752516746520996 -1.10430216789245605
-0.342929482460021973 2.05238747596740723 -1.18083178997039795
-0.535144448280334473 1.80981063842773438 -1.17985916137695312
1.12733399868011475 2.61736321449279785 -1.08299684524536133
0.24969153106212616 3.0068206787109375 -1.11233735084533691
-0.27223050594329834 2.03392863273620605 -1.19579124450683594
-1.09306252002716064 2.47589778900146484 -1.10203695297241211
-0.00296975672245025635 2.84250473976135254 -1.18146884441375732
0.215533390641212463 1.36047637462615967 -1.10609543323516846
-0.0916865319013595581 2.37516307830810547 -1.18950486183166504
-0.339148938655853271 1.9316561222076416 -1.21042478084564209
0.698060870170593262 2.15442585945129395 -1.12291598320007324
0.763063967227935791 3.52578163146972656 -1.1165996789932251
-0.289312422275543213 3.90680932998657227 -1.09857606887817383
0.0401869937777519226 2.66463088989257812 -1.16954255104064941
-0.198411911725997925 2.43763375282287598 -1.14620399475097656
0.219989225268363953 1.3620525598526001 -1.1197350025177002
-1.09452760219573975 2.47463345527648926 -1.12302052974700928
0.102645322680473328 2.7735905647277832 -1.18968069553375244
0.653203606605529785 2.16945266723632812 -1.11271989345550537
0.135108664631843567 2.67772173881530762 -1.18000006675720215
0.0619116351008415222 2.42352533340454102 -1.16447687149047852
-0.253866732120513916 2.07130146026611328 -1.21339046955108643
0.0976191461086273193 2.78045821189880371 -1.17637038230895996
0.208678722381591797 1.40088236331939697 -1.09879815578460693
1.14759182929992676 2.61959648132324219 -1.07973158359527588
0.739213645458221436 3.57311105728149414 -1.13601374626159668
