ply
format ascii 1.0
element vertex 256
comment vertices
property float x
property float y
property float z
end_header
-1.78759539127349854 3.51016998291015625 -0.467570841312408447
1.23758184909820557 3.61953258514404297 -1.13814830780029297
0.0852667391300201416 1.35611081123352051 -1.13653504848480225
0.563270688056945801 4.68445205688476562 -0.758313655853271484
0.964380741119384766 4.4389491081237793 -0.156035095453262329
-0.0801251530647277832 2.77872490882873535 -1.14383792877197266
-1.72769820690155029 2.77382588386535645 -1.23399174213409424
1.06863009929656982 2.50087332725524902 -1.16695213317871094
-0.621456623077392578 4.95255947113037109 -0.370614677667617798
-1.15825462341308594 3.63968658447265625 -1.19811129570007324
-0.522939920425415039 2.03958392143249512 -1.16294360160827637
0.611303567886352539 4.1765446662902832 -0.895204842090606689
0.928502261638641357 3.89870715141296387 -0.893327713012695312
1.06067633628845215 2.69411396980285645 -1.03895795345306396
-1.19727921485900879 4.40124988555908203 -0.721286773681640625
0.590827465057373047 2.25840377807617188 -1.10298562049865723
0.319124132394790649 4.19360256195068359 -0.71322321891784668
-0.324015706777572632 3.91320466995239258 -1.12173712253570557
0.673061490058898926 3.32332897186279297 -1.23645246028900146
-1.23753178119659424 3.12670207023620605 -1.20981431007385254
0.74004364013671875 3.55392718315124512 -1.10625720024108887
-0.444114536046981812 2.46329736709594727 -1.14707612991333008
-0.664961516857147217 4.77097988128662109 -0.372176319360733032
1.33744585514068604 2.99319338798522949 -1.17013132572174072
0.248389720916748047 2.71258449554443359 -1.23792219161987305
-0.475312650203704834 4.10126972198486328 -0.976023077964782715
0.998104333877563477 4.26312637329101562 -0.83987724781036377
-0.0288845598697662354 2.27458357810974121 -1.18794965744018555
-0.369297325611114502 1.94211506843566895 -1.24322545528411865
0.677508175373077393 4.40099716186523438 -0.785546660423278809
1.27736806869506836 4.21465396881103516 -0.159382224082946777
-2.0244898796081543 2.59915924072265625 -0.682896018028259277
0.123186230659484863 2.88359713554382324 -1.16931366920471191
-1.26206612586975098 4.23063850402832031 -0.378320485353469849
0.524753272533416748 4.56573581695556641 -0.460708916187286377
0.0582208782434463501 3.07589387893676758 -1.18988585472106934
-1.08928060531616211 2.47978782653808594 -1.06183147430419922
0.24064520001411438 1.41210794448852539 -1.03999996185302734
-1.22508478164672852 3.74448227882385254 -1.10962033271789551
0.0886333435773849487 2.78199958801269531 -1.16711246967315674
-0.8792380690574646 4.36074495315551758 -1.01915383338928223
-1.38627612590789795 3.1582334041595459 -1.05514001846313477
0.294818848371505737 4.14385557174682617 -0.824722647666931152
1.10710179805755615 2.65185141563415527 -1.09606719017028809
-0.914425253868103027 4.73216962814331055 -0.434657931327819824
0.661082267761230469 4.85134315490722656 -0.151576757431030273
0.194202572107315063 4.88124513626098633 -0.21378740668296814
0.167634621262550354 1.5126798152923584 -1.1462022066116333
-1.60294055938720703 2.80725479125976562 -1.01287949085235596
0.2536277174949646 4.47842168807983398 -0.708778858184814453
1.37905251979827881 4.31295013427734375 -0.923995375633239746
-0.159403532743453979 2.65047550201416016 -1.18292951583862305
0.78390425443649292 2.69730281829833984 -1.18213808536529541
0.66026604175567627 2.18268537521362305 -1.10505914688110352
0.262548267841339111 2.98077630996704102 -1.14119267463684082
-1.20287966728210449 3.60727143287658691 -0.650795817375183105
0.675810098648071289 2.21494483947753906 -1.08336985111236572
-1.23232161998748779 4.00289344787597656 -0.994548380374908447
0.109664648771286011 2.828826904296875 -1.17934632301330566
-0.356313019990921021 2.14415264129638672 -1.159737229347229
-2.03175640106201172 2.8101963996887207 -0.492299944162368774
0.47328948974609375 4.76383209228515625 -0.364531040191650391
0.829290390014648438 3.65691518783569336 -1.07600498199462891
0.598959505558013916 4.48127412796020508 -0.684806764125823975
-1.11308956146240234 4.74931049346923828 -0.604416847229003906
-0.0488948896527290344 3.04085922241210938 -1.16931402683258057
-1.39277553558349609 4.55689907073974609 -0.572638630867004395
0.863753199577331543 3.96688508987426758 -0.520866930484771729
-0.406710982322692871 4.56939315795898438 -0.948608279228210449
0.814599514007568359 3.94695353507995605 -1.04948806762695312
-0.350679606199264526 2.11279988288879395 -1.23224782943725586
-1.17404615879058838 3.28613710403442383 -1.11986398696899414
-0.345033109188079834 2.03338289260864258 -1.20935440063476562
0.656981348991394043 2.38220834732055664 -1.1684039831161499
0.119013622403144836 2.6916656494140625 -1.19942140579223633
1.20673608779907227 2.54916882514953613 -1.14982891082763672
0.705851197242736816 4.04643344879150391 -1.09752368927001953
0.653341710567474365 3.45336461067199707 -1.13954591751098633
0.250912219285964966 4.07522916793823242 -0.811374306678771973
0.0124552370980381966 2.53206896781921387 -1.21728503704071045
0.716619729995727539 4.58252525329589844 -0.414124906063079834
-0.0862898081541061401 2.64024019241333008 -1.15599274635314941
-1.07594501972198486 2.4962775707244873 -1.15542387962341309
0.2004355788230896 1.38789212703704834 -1.08081912994384766
0.798818111419677734 3.95515799522399902 -0.677732229232788086
-0.967406988143920898 3.97725510597229004 -1.18219161033630371
-1.40831470489501953 3.63425850868225098 -0.860881686210632324
1.16136705875396729 2.64646387100219727 -1.07621514797210693
-0.386062741279602051 3.92882895469665527 -1.17161822319030762
0.670466721057891846 2.18039417266845703 -1.11337482929229736
0.927018404006958008 4.20491313934326172 -0.865215122699737549
1.19652295112609863 3.45683598518371582 -1.14380061626434326
-0.989486575126647949 4.55698299407958984 -0.859526634216308594
1.13988173007965088 2.61663198471069336 -1.05387544631958008
-1.4663923978805542 3.69809341430664062 -0.381408840417861938
-1.10848152637481689 2.44427633285522461 -1.14079892635345459
0.803946793079376221 4.22164773941040039 -0.630704939365386963
-1.11173200607299805 4.29064130783081055 -0.565576672554016113
0.235575824975967407 1.42011344432830811 -1.11268901824951172
-1.27661848068237305 3.18040275573730469 -0.914488136768341064
0.584482789039611816 4.66641759872436523 -0.614405333995819092
0.722660303115844727 3.92777824401855469 -0.820583820343017578
1.03748595714569092 3.99677729606628418 -0.625265777111053467
-1.10876190662384033 4.25522232055664062 -0.969658195972442627
-0.158015131950378418 2.1261594295501709 -1.22213900089263916
0.0371059775352478027 4.28613662719726562 -0.568301498889923096
0.722087323665618896 3.58938145637512207 -1.13485276699066162
0.82024228572845459 2.35893654823303223 -1.16502499580383301
-0.665223956108093262 4.06037425994873047 -0.900542080402374268
0.378031909465789795 4.9066462516784668 -0.522729575634002686
-1.20143747329711914 3.6934199333190918 -1.24348676204681396
0.285232484340667725 1.6412203311920166 -1.0651470422744751
0.396281063556671143 4.58015346527099609 -0.384420871734619141
-0.0509037673473358154 2.58197999000549316 -1.18759965896606445
0.282917886972427368 4.04768228530883789 -0.709428548812866211
1.29804158210754395 4.15863943099975586 -1.02300035953521729
-0.0267689526081085205 2.75245356559753418 -1.14165019989013672
-0.0480169504880905151 4.30502414703369141 -0.594617962837219238
-1.41053664684295654 4.62584590911865234 -0.574739694595336914
0.150974303483963013 4.45664691925048828 -0.633672535419464111
1.31150078773498535 4.12906360626220703 -0.110809892416000366
0.531845986843109131 2.30336689949035645 -1.15415322780609131
-0.233623206615447998 2.39570021629333496 -1.17154288291931152
0.717743098735809326 3.53650856018066406 -1.14186620712280273
1.1278153657913208 4.29963159561157227 -0.898323535919189453
-1.77301657199859619 3.60962224006652832 -0.57928311824798584
0.656058251857757568 2.21553945541381836 -1.09957039356231689
-1.29861748218536377 3.49897456169128418 -1.18496024608612061
-0.986169040203094482 4.21100997924804688 -0.814590156078338623
0.0741864144802093506 2.66415119171142578 -1.22640454769134521
0.995284676551818848 2.63614916801452637 -1.07885336875915527
-0.0445943176746368408 2.94690036773681641 -1.1972811222076416
1.24778234958648682 4.18243503570556641 -0.955352902412414551
-1.06234204769134521 2.40439295768737793 -1.11468267440795898
-0.373721122741699219 1.9102635383605957 -1.23847556114196777
-1.88655781745910645 3.01131176948547363 -0.627381265163421631
-0.138356506824493408 4.56888389587402344 -0.877999186515808105
0.610342621803283691 4.56417655944824219 -0.622082829475402832
0.735696136951446533 3.08269596099853516 -1.17612457275390625
0.0852981209754943848 2.87717080116271973 -1.1866525411605835
0.366062194108963013 4.20315265655517578 -0.761882960796356201
-1.44470381736755371 2.90633225440979004 -1.10960817337036133
0.648471176624298096 2.17240047454833984 -1.16085362434387207
-0.875664234161376953 4.52970790863037109 -0.417999744415283203
-0.166400730609893799 3.80272459983825684 -1.13034272193908691
-1.17022621631622314 2.95941853523254395 -1.18037998676300049
0.0359646379947662354 2.71566224098205566 -1.18659067153930664
0.718840599060058594 4.25355339050292969 -0.319710612297058105
-1.39077377319335938 3.50022006034851074 -1.10087525844573975
0.684053421020507812 4.45146608352661133 -0.466520845890045166
1.14868927001953125 4.43889713287353516 -0.824063897132873535
-1.39463353157043457 4.80287981033325195 -0.274383217096328735
0.0802396684885025024 2.7010500431060791 -1.15410506725311279
0.713211655616760254 4.15308237075805664 -0.977708935737609863
0.990076541900634766 3.99603033065795898 -0.992197751998901367
0.215427741408348083 1.425453782081604 -1.12106263637542725
-0.233791440725326538 2.22783279418945312 -1.15414679050445557
-0.00895160436630249023 2.22879981994628906 -1.21625983715057373
0.470603585243225098 2.56567263603210449 -1.20004904270172119
-1.05281054973602295 2.54049396514892578 -1.03518271446228027
1.00272560119628906 3.65234184265136719 -0.407976925373077393
-1.04738891124725342 4.28772783279418945 -0.530836224555969238
0.734679162502288818 3.95766782760620117 -0.878200769424438477
0.927087068557739258 2.79000687599182129 -1.13084220886230469
0.635924577713012695 2.21382403373718262 -1.07349479198455811
-1.13237416744232178 4.34691143035888672 -0.428409576416015625
-1.01322293281555176 2.5291135311126709 -1.1335299015045166
-0.371393263339996338 3.95362639427185059 -1.0765082836151123
-1.12861764430999756 3.65437412261962891 -0.825391769409179688
-1.37667381763458252 4.39009284973144531 -0.569723844528198242
-0.0616744756698608398 2.7740483283996582 -1.16007733345031738
-0.378760933876037598 4.90465545654296875 -0.452338993549346924
1.12949872016906738 2.64815664291381836 -1.05570650100708008
-0.837523698806762695 4.47262668609619141 -0.898468732833862305
-0.210488498210906982 2.61790227890014648 -1.13589775562286377
-1.87164735794067383 3.16160202026367188 -0.512701988220214844
-0.310641437768936157 3.9458010196685791 -1.15236246585845947
0.902349650859832764 2.71203923225402832 -1.11937904357910156
1.11485815048217773 2.59190011024475098 -1.08298373222351074
-1.33186280727386475 3.76216387748718262 -0.535130679607391357
0.623105823993682861 4.4100341796875 -0.909487605094909668
-0.0437680184841156006 2.7922661304473877 -1.19061267375946045
0.865074992179870605 4.19481611251831055 -0.970869362354278564
-0.327739536762237549 2.00701093673706055 -1.22866904735565186
-0.422563016414642334 2.03405523300170898 -1.22179770469665527
0.411190629005432129 2.69417262077331543 -1.12358617782592773
-1.28898155689239502 4.00140714645385742 -1.16275453567504883
0.965578913688659668 4.08977127075195312 -0.974048733711242676
1.05583131313323975 4.13131332397460938 -0.489480912685394287
0.577563345432281494 4.25932788848876953 -0.540801465511322021
1.09282326698303223 2.66233325004577637 -1.07058298587799072
0.107963114976882935 3.09073925018310547 -1.14595019817352295
-1.07648611068725586 3.95543003082275391 -1.16440320014953613
0.0757526755332946777 4.21654415130615234 -0.720619380474090576
0.578819155693054199 4.03959751129150391 -0.73317873477935791
-0.041371908038854599 5.01857948303222656 -0.398867368698120117
-1.27475821971893311 3.6084439754486084 -0.947986483573913574
0.788133740425109863 4.43923377990722656 -0.864401340484619141
-0.217079490423202515 2.04838752746582031 -1.23729324340820312
0.776194334030151367 3.48728299140930176 -1.08223104476928711
-0.329607665538787842 2.11725187301635742 -1.17781543731689453
-0.443170905113220215 1.93743479251861572 -1.17364168167114258
-2.00746369361877441 2.65502214431762695 -0.637094020843505859
-0.863718867301940918 4.12230825424194336 -0.862763524055480957
1.15554618835449219 2.6365969181060791 -1.10429179668426514
0.298150479793548584 3.04606866836547852 -1.06852364540100098
-0.241655200719833374 2.07493233680725098 -1.21461236476898193
-1.06856775283813477 2.40660309791564941 -1.0633547306060791
-0.070040091872215271 2.90717840194702148 -1.17870783805847168
0.579631447792053223 4.58605194091796875 -0.603636324405670166
-1.55057907104492188 2.8377373218536377 -0.906682610511779785
0.0205795764923095703 3.83799648284912109 -0.722331225872039795
0.212782219052314758 1.39958477020263672 -1.08685433864593506
1.13306188583374023 4.09601211547851562 -0.439453184604644775
0.477645337581634521 4.64007377624511719 -0.591107964515686035
0.686017870903015137 4.43549871444702148 -0.590637326240539551
0.95675581693649292 4.04393291473388672 -0.895493030548095703
1.26639699935913086 3.17302227020263672 -1.17419099807739258
-1.96476602554321289 3.60026001930236816 -0.628750860691070557
-0.119340531527996063 2.37637615203857422 -1.22067904472351074
-0.305038571357727051 1.96069157123565674 -1.23997223377227783
0.872271895408630371 4.07605266571044922 -1.0094372034072876
-1.28311061859130859 3.56177854537963867 -1.08263313770294189
-1.70636475086212158 3.0876164436340332 -0.710777997970581055
0.851175963878631592 2.06017827987670898 -1.16191291809082031
-0.00385755300521850586 4.415557861328125 -0.839890837669372559
-1.42400705814361572 3.60059881210327148 -1.10769140720367432
1.00112128257751465 4.02829790115356445 -0.421969681978225708
0.702549278736114502 4.62792396545410156 -0.394424170255661011
0.842663168907165527 4.58208847045898438 -0.810689747333526611
0.719133913516998291 3.54386734962463379 -1.1008603572845459
-0.312432378530502319 3.90257644653320312 -1.10757768154144287
0.0106437355279922485 2.66944432258605957 -1.16995429992675781
0.241659581661224365 3.94418835639953613 -0.743822216987609863
-1.29000997543334961 4.01326990127563477 -0.471658229827880859
-1.13334012031555176 3.2634882926940918 -1.26547765731811523
0.0642507821321487427 4.56336498260498047 -0.442191898822784424
0.710697412490844727 4.51685333251953125 -0.61907958984375
-0.269253998994827271 2.47627162933349609 -1.13089978694915771
0.19837835431098938 1.36282992362976074 -1.11398351192474365
0.0362828373908996582 4.78346967697143555 -0.647702217102050781
-1.07052886486053467 2.46051144599914551 -1.11788928508758545
0.0694675222039222717 2.79633092880249023 -1.22472143173217773
-1.44297599792480469 3.51700210571289062 -0.665223121643066406
0.403989940881729126 4.66438961029052734 -0.52039039134979248
-1.17248141765594482 3.13135600090026855 -1.14598989486694336
0.673834323883056641 2.20016860961914062 -1.10834813117980957
0.67660832405090332 3.95661115646362305 -0.988456845283508301
0.16080319881439209 2.6835479736328125 -1.19682908058166504
0.0726160928606987 2.39205765724182129 -1.18913578987121582
-0.226489514112472534 2.10608220100402832 -1.23972213268280029
0.060037076473236084 2.81377315521240234 -1.17942619323730469
0.213123232126235962 1.52950906753540039 -1.12974286079406738
1.26335501670837402 2.7530217170715332 -1.15241169929504395
1.01524925231933594 3.66535687446594238 -1.14026784896850586
-1.29753530025482178 4.19716596603393555 -0.874450922012329102
