ply
format ascii 1.0
element vertex 10
comment vertices
property float x
property float y
property float z
end_header
49.4786415100097656 -38.9513626098632812 1.28367352485656738
47.3960685729980469 -42.5730514526367188 1.30403399467468262
48.6333961486816406 -37.5679664611816406 1.4285280704498291
48.0246772766113281 -40.5550346374511719 1.35812246799468994
50.3692054748535156 -43.6694183349609375 1.43193602561950684
51.6522445678710938 -43.7477951049804688 1.410125732421875
48.6998786926269531 -41.2405509948730469 1.38068532943725586
47.4143486022949219 -39.3687820434570312 1.36970531940460205
52.5417404174804688 -40.4806137084960938 1.37143933773040771
52.5511856079101562 -42.5153999328613281 1.31802737712860107
