ply
format ascii 1.0
element vertex 400
comment vertices
property float x
property float y
property float z
end_header
41.1901435852050781 -41.7849807739257812 2.71499991416931152
38.6099052429199219 -39.18499755859375 2.71499991416931152
41.589996337890625 -38.3349990844726562 2.71499991416931152
39.2450027465820312 -37.5100021362304688 2.71499991416931152
38.2299995422363281 -37.75 2.71499991416931152
39.0550003051757812 -42.5973663330078125 1.07999992370605469
39.8352127075195312 -41.1063156127929688 1.08000004291534424
39.7473678588867188 -39.6299972534179688 1.07999992370605469
41.1901435852050781 -41.7849807739257812 0.0249999985098838806
38.6099052429199219 -39.18499755859375 0.0249999985098838806
41.589996337890625 -38.3349990844726562 0.0249999985098838806
39.2450027465820312 -37.5100021362304688 0.0249999985098838806
38.2299995422363281 -37.75 0.0249999985098838806
41.2000198364257812 -40.6926307678222656 1.3674999475479126
41.1899604797363281 -42.8673667907714844 1.3674999475479126
39.7473678588867188 -39.18499755859375 1.3674999475479126
38.6100006103515625 -39.9973678588867188 1.3674999475479126
41.5893096923828125 -37.4645729064941406 1.3674999475479126
42.5873680114746094 -38.3349990844726562 1.3674999475479126
41.589996337890625 -39.2273674011230469 1.3674999475479126
40.5926322937011719 -38.3349990844726562 1.3674999475479126
39.2449989318847656 -37.1826324462890625 1.3674999475479126
39.2449989318847656 -37.8373680114746094 1.3674999475479126
38.2299995422363281 -37.1826324462890625 1.3674999475479126
38.7273674011230469 -38.066314697265625 1.3674999475479126
40.150146484375 -37.4719657897949219 1.3674999475479126
39.2211837768554688 -37.4645652770996094 1.3674999475479126
37.6519126892089844 -37.4520606994628906 1.3674999475479126
38.2388153076171875 -37.4567375183105469 1.3674999475479126
42.568206787109375 -39.9786567687988281 1.3674999475479126
38.6437568664550781 -42.5973663330078125 1.3674999475479126
41.16375732421875 -42.5973663330078125 1.3674999475479126
37.4826316833496094 -37.9261970520019531 1.3674999475479126
37.4826316833496094 -41.2813186645507812 1.3674999475479126
37.4851303100585938 -39.1887741088867188 1.3674999475479126
42.5662956237792969 -41.6485710144042969 1.3674999475479126
42.57611083984375 -42.7138214111328125 1.3674999475479126
39.80548095703125 -42.7339134216308594 1.3674999475479126
39.8251228332519531 -41.6585006713867188 1.3674999475479126
39.2286834716796875 -38.3726310729980469 1.3674999475479126
37.6338157653808594 -38.3726310729980469 1.3674999475479126
38.2262496948242188 -38.345001220703125 1.3674999475479126
39.6973686218261719 -37.6441802978515625 1.3674999475479126
39.6973686218261719 -37.3341789245605469 1.3674999475479126
38.7599983215332031 -37.3341941833496094 1.3674999475479126
38.7599983215332031 -37.6398506164550781 1.3674999475479126
37.7326316833496094 -37.8763542175292969 1.3674999475479126
37.7326316833496094 -37.3263511657714844 1.3674999475479126
0 0 0
0 0 0
0 0 0
0 0 0
0 0 0
0 0 0
0 0 0
0 0 0
0 0 0
0 0 0
0 0 0
0 0 0
0 0 0
0 0 0
0 0 0
0 0 0
0 0 0
0 0 0
0 0 0
0 0 0
0 0 0
0 0 0
0 0 0
0 0 0
0 0 0
0 0 0
0 0 0
0 0 0
0 0 0
0 0 0
0 0 0
0 0 0
0 0 0
0 0 0
0 0 0
0 0 0
0 0 0
0 0 0
0 0 0
0 0 0
0 0 0
0 0 0
0 0 0
0 0 0
0 0 0
0 0 0
0 0 0
0 0 0
0 0 0
0 0 0
0 0 0
0 0 0
0 0 0
0 0 0
0 0 0
0 0 0
0 0 0
0 0 0
0 0 0
0 0 0
0 0 0
0 0 0
0 0 0
0 0 0
0 0 0
0 0 0
0 0 0
0 0 0
0 0 0
0 0 0
0 0 0
0 0 0
0 0 0
0 0 0
0 0 0
0 0 0
0 0 0
0 0 0
0 0 0
0 0 0
0 0 0
0 0 0
0 0 0
0 0 0
0 0 0
0 0 0
0 0 0
0 0 0
0 0 0
0 0 0
0 0 0
0 0 0
0 0 0
0 0 0
0 0 0
0 0 0
0 0 0
0 0 0
0 0 0
0 0 0
0 0 0
0 0 0
0 0 0
0 0 0
0 0 0
0 0 0
0 0 0
0 0 0
0 0 0
0 0 0
0 0 0
0 0 0
0 0 0
0 0 0
0 0 0
0 0 0
0 0 0
0 0 0
0 0 0
0 0 0
0 0 0
0 0 0
0 0 0
0 0 0
0 0 0
0 0 0
0 0 0
0 0 0
0 0 0
0 0 0
0 0 0
0 0 0
0 0 0
0 0 0
0 0 0
0 0 0
0 0 0
0 0 0
0 0 0
0 0 0
0 0 0
0 0 0
0 0 0
0 0 0
0 0 0
0 0 0
0 0 0
0 0 0
0 0 0
0 0 0
0 0 0
0 0 0
0 0 0
0 0 0
0 0 0
0 0 0
0 0 0
0 0 0
0 0 0
0 0 0
0 0 0
0 0 0
0 0 0
0 0 0
0 0 0
0 0 0
0 0 0
0 0 0
0 0 0
0 0 0
0 0 0
0 0 0
0 0 0
0 0 0
0 0 0
0 0 0
0 0 0
0 0 0
0 0 0
0 0 0
0 0 0
0 0 0
0 0 0
0 0 0
0 0 0
0 0 0
0 0 0
0 0 0
0 0 0
0 0 0
0 0 0
0 0 0
0 0 0
0 0 0
0 0 0
0 0 0
0 0 0
0 0 0
0 0 0
0 0 0
0 0 0
0 0 0
0 0 0
0 0 0
0 0 0
0 0 0
0 0 0
0 0 0
0 0 0
0 0 0
0 0 0
0 0 0
0 0 0
0 0 0
0 0 0
0 0 0
0 0 0
0 0 0
0 0 0
0 0 0
0 0 0
0 0 0
0 0 0
0 0 0
0 0 0
0 0 0
0 0 0
0 0 0
0 0 0
0 0 0
0 0 0
0 0 0
0 0 0
0 0 0
0 0 0
0 0 0
0 0 0
0 0 0
0 0 0
0 0 0
0 0 0
0 0 0
0 0 0
0 0 0
0 0 0
0 0 0
0 0 0
0 0 0
0 0 0
0 0 0
0 0 0
0 0 0
0 0 0
0 0 0
0 0 0
0 0 0
0 0 0
0 0 0
0 0 0
0 0 0
0 0 0
0 0 0
0 0 0
0 0 0
0 0 0
0 0 0
0 0 0
0 0 0
0 0 0
0 0 0
0 0 0
0 0 0
0 0 0
0 0 0
0 0 0
0 0 0
0 0 0
0 0 0
0 0 0
0 0 0
0 0 0
0 0 0
0 0 0
0 0 0
0 0 0
0 0 0
0 0 0
0 0 0
0 0 0
0 0 0
0 0 0
0 0 0
0 0 0
0 0 0
0 0 0
0 0 0
0 0 0
0 0 0
0 0 0
0 0 0
0 0 0
0 0 0
0 0 0
0 0 0
0 0 0
0 0 0
0 0 0
0 0 0
0 0 0
0 0 0
0 0 0
0 0 0
0 0 0
0 0 0
0 0 0
0 0 0
0 0 0
0 0 0
0 0 0
0 0 0
0 0 0
0 0 0
0 0 0
0 0 0
0 0 0
0 0 0
0 0 0
0 0 0
0 0 0
0 0 0
0 0 0
0 0 0
0 0 0
0 0 0
0 0 0
0 0 0
0 0 0
0 0 0
0 0 0
0 0 0
0 0 0
0 0 0
0 0 0
0 0 0
0 0 0
0 0 0
0 0 0
0 0 0
0 0 0
0 0 0
0 0 0
0 0 0
