ply
format ascii 1.0
element vertex 256
comment vertices
property float x
property float y
property float z
end_header
47.8975830078125 -34.9768638610839844 0.0504940524697303772
34.1641960144042969 -44.8354835510253906 1.92464327812194824
35.5770759582519531 -33.51715087890625 0.387033402919769287
43.4485435485839844 -44.2551803588867188 0.0104988645762205124
41.2964286804199219 -37.633758544921875 2.68952703475952148
52.4479446411132812 -37.8492202758789062 3.85541081428527832
35.3222579956054688 -39.3379898071289062 0.26256483793258667
38.9389076232910156 -42.438751220703125 2.68919491767883301
42.6997032165527344 -33.2736549377441406 0.133917257189750671
35.5517730712890625 -36.1970863342285156 4.84885311126708984
52.0702133178710938 -33.4764900207519531 1.68017542362213135
39.2545623779296875 -33.8370895385742188 2.68958020210266113
45.5988616943359375 -37.4127960205078125 2.68973588943481445
51.0330657958984375 -38.0400352478027344 0.0504212416708469391
43.054779052734375 -40.2401771545410156 0.0495798662304878235
38.4567642211914062 -36.7414321899414062 0.0506991073489189148
35.2720489501953125 -42.5363273620605469 4.87160062789916992
45.6390151977539062 -33.4167633056640625 2.68952703475952148
50.4986953735351562 -35.015380859375 4.71002674102783203
39.5165939331054688 -40.1563453674316406 0.0505259409546852112
37.5365982055664062 -44.1655960083007812 0.0279546622186899185
43.5003204345703125 -36.735443115234375 0.0501648113131523132
42.3597908020019531 -42.295440673828125 2.68956303596496582
48.9826774597167969 -37.3399238586425781 2.68968462944030762
37.656097412109375 -39.0555267333984375 2.68941760063171387
34.19415283203125 -36.5177536010742188 1.77203333377838135
48.9391059875488281 -33.2452392578125 2.52940750122070312
35.8892555236816406 -42.1939163208007812 1.72120678424835205
42.8965797424316406 -34.9531059265136719 2.68971538543701172
40.47723388671875 -44.2476959228515625 0.749488770961761475
37.5610122680664062 -36.1178855895996094 2.68480706214904785
46.7547264099121094 -37.5301780700683594 0.00411133375018835068
39.9561500549316406 -34.3964347839355469 0.0506913699209690094
43.2287063598632812 -39.6140823364257812 2.68979239463806152
41.3158493041992188 -38.2166099548339844 0.0507668107748031616
45.3373985290527344 -34.8361320495605469 0.471301764249801636
50.9851799011230469 -35.8275909423828125 1.47455942630767822
40.0151290893554688 -40.0567207336425781 2.68938660621643066
47.3157196044921875 -35.4769248962402344 2.68937134742736816
50.7872543334960938 -39.158782958984375 2.57259058952331543
37.7119293212890625 -41.7689170837402344 0.129415333271026611
41.860382080078125 -42.3348808288574219 0.331165581941604614
36.2747383117675781 -35.9206275939941406 0.544206380844116211
35.9803085327148438 -44.083984375 3.21799874305725098
34.7147064208984375 -43.3853759765625 0.0756843909621238708
35.7702217102050781 -34.7056350708007812 2.57897830009460449
37.8580780029296875 -33.9379653930664062 0.807652950286865234
49.0351600646972656 -36.9552841186523438 0.0500270910561084747
49.4153785705566406 -33.2964553833007812 0.189552366733551025
33.9286346435546875 -40.7541847229003906 1.33936703205108643
43.4376754760742188 -44.2551345825195312 2.46841287612915039
37.4641838073730469 -38.7389373779296875 0.0287688449025154114
50.29901123046875 -37.3319740295410156 4.47996950149536133
33.6554450988769531 -37.8194313049316406 0.0558553934097290039
43.4342193603515625 -37.4487113952636719 2.14616489410400391
52.3820343017578125 -34.4374923706054688 3.74447441101074219
39.1961936950683594 -37.4491996765136719 1.99015128612518311
33.8137474060058594 -42.7311668395996094 2.42828607559204102
40.6185302734375 -35.5582122802734375 2.68941807746887207
41.4625129699707031 -36.1855239868164062 0.800369739532470703
41.3606796264648438 -33.3643302917480469 2.58402252197265625
36.0932350158691406 -37.4884300231933594 1.98491358757019043
47.1193199157714844 -33.3453330993652344 1.14901268482208252
44.9760894775390625 -35.4156913757324219 2.68969035148620605
39.716705322265625 -42.3257827758789062 0.274050503969192505
41.7204971313476562 -40.6449470520019531 1.60679161548614502
41.1777305603027344 -44.24249267578125 2.69007039070129395
37.6979866027832031 -44.069671630859375 2.06651663780212402
52.5960273742675781 -37.0556602478027344 1.56855893135070801
38.3599472045898438 -40.7346534729003906 1.76087963581085205
49.3196983337402344 -35.276397705078125 2.64014077186584473
43.8421287536621094 -33.361053466796875 1.85066771507263184
51.3973426818847656 -34.5378303527832031 0.0538594946265220642
43.2536201477050781 -34.9594039916992188 0.827536582946777344
35.6786079406738281 -40.2973976135253906 1.85297441482543945
45.0982894897460938 -37.4425697326660156 0.885554373264312744
40.6895332336425781 -42.2643814086914062 1.86982905864715576
37.4641761779785156 -33.3748397827148438 2.52782726287841797
47.4561233520507812 -37.4329833984375 1.69222033023834229
39.4750404357910156 -38.3340835571289062 0.05077328160405159
35.731781005859375 -44.3494415283203125 1.19431746006011963
50.8762321472167969 -33.5189247131347656 3.4325556755065918
43.3478126525878906 -42.8966712951660156 1.1497875452041626
34.9364395141601562 -37.1961631774902344 3.29622888565063477
42.7623367309570312 -38.6951217651367188 0.949819028377532959
39.4173927307128906 -44.165191650390625 2.6714332103729248
34.2139472961425781 -35.6015205383300781 3.88157868385314941
35.658843994140625 -41.1035041809082031 0.297618299722671509
50.4989967346191406 -37.6532020568847656 1.67208385467529297
34.6531715393066406 -34.9628410339355469 1.11610019207000732
42.1587409973144531 -44.1617813110351562 1.22636818885803223
34.852691650390625 -44.1981010437011719 4.59690093994140625
49.366485595703125 -35.3574752807617188 0.9083901047706604
40.3270492553710938 -33.2652206420898438 1.25549578666687012
41.2345771789550781 -40.2571182250976562 0.050383545458316803
37.6276664733886719 -37.8658714294433594 1.46738433837890625
52.3545989990234375 -35.2345962524414062 2.20809531211853027
44.9257621765136719 -33.2582359313964844 0.245121389627456665
51.2690925598144531 -35.9284019470214844 3.58227086067199707
46.5378799438476562 -35.8956871032714844 0.0505292117595672607
47.3759651184082031 -33.8169441223144531 2.68966436386108398
39.9960289001464844 -36.2176055908203125 0.0504379048943519592
37.4906501770019531 -42.43695068359375 1.64975476264953613
41.814727783203125 -34.6158447265625 0.050380706787109375
38.8561630249023438 -44.0695343017578125 0.950598001480102539
41.7594871520996094 -39.1548080444335938 2.20836424827575684
50.3055419921875 -33.7834434509277344 1.90616297721862793
37.6750869750976562 -35.3536376953125 0.0503684468567371368
39.9480056762695312 -40.9560394287109375 1.38509619235992432
35.2036857604980469 -37.1751022338867188 0.743474483489990234
35.3481903076171875 -42.5174522399902344 3.32296347618103027
40.6359481811523438 -37.4493942260742188 1.20751857757568359
39.0980110168457031 -35.9764518737792969 2.68929839134216309
48.3095054626464844 -36.1597251892089844 1.71101117134094238
37.5601348876953125 -40.2558708190917969 0.293639481067657471
42.2546958923339844 -33.9976234436035156 1.46860289573669434
42.3968315124511719 -36.3957443237304688 2.6893010139465332
48.39208984375 -34.2628135681152344 1.5544813871383667
51.3969345092773438 -33.8314056396484375 4.88241243362426758
51.32391357421875 -39.0154457092285156 1.19214904308319092
36.4967765808105469 -35.4175262451171875 3.66521620750427246
39.15618896484375 -38.7577133178710938 2.6894989013671875
51.0914688110351562 -38.4503288269042969 3.89495325088500977
37.4753646850585938 -34.7660751342773438 2.02221274375915527
37.495574951171875 -36.396881103515625 1.22988617420196533
34.2092781066894531 -35.0506401062011719 2.49470067024230957
46.3776817321777344 -33.9132461547851562 0.0507332757115364075
50.3269386291503906 -36.8551177978515625 3.01054668426513672
42.7825355529785156 -36.5248870849609375 1.26939964294433594
37.4622879028320312 -41.4184074401855469 2.65003418922424316
43.1367988586425781 -40.3312835693359375 1.46899819374084473
52.0139007568359375 -36.9437217712402344 2.85368108749389648
44.8410072326660156 -36.2940711975097656 0.0502845682203769684
48.0223312377929688 -33.4491996765136719 0.0506684966385364532
39.0378990173339844 -33.355926513671875 0.270430892705917358
41.1932716369628906 -33.3632049560546875 0.0496482178568840027
47.7979965209960938 -36.3944168090820312 0.391308695077896118
38.5983963012695312 -39.2980194091796875 0.654877424240112305
36.2805633544921875 -36.903228759765625 3.50272345542907715
42.7495384216308594 -33.5369071960449219 2.68966174125671387
34.5278511047363281 -44.471466064453125 3.27709794044494629
42.6577911376953125 -40.8788909912109375 2.68940210342407227
48.9964752197265625 -37.5352363586425781 1.30780625343322754
43.7374191284179688 -36.057525634765625 2.68952107429504395
42.1759033203125 -37.1390419006347656 0.0505554527044296265
52.6165199279785156 -38.3605384826660156 2.01121616363525391
38.3184280395507812 -42.9995498657226562 0.0506176017224788666
39.9173049926757812 -41.4791145324707031 2.68967676162719727
34.9957542419433594 -36.0160560607910156 0.0542211346328258514
46.2751350402832031 -34.6162528991699219 2.6893012523651123
36.0335197448730469 -43.2842178344726562 0.430205702781677246
45.7970542907714844 -33.3500900268554688 1.34796750545501709
37.4952354431152344 -39.6570854187011719 1.5090632438659668
42.4991493225097656 -35.8184318542480469 0.050551246851682663
41.8604393005371094 -37.8847579956054688 1.495552659034729
44.0987815856933594 -34.2790145874023438 0.050776403397321701
46.8571662902832031 -36.7969474792480469 2.68933272361755371
37.9960136413574219 -37.4494171142578125 2.66943073272705078
42.7313804626464844 -41.5788917541503906 1.30166208744049072
38.9968185424804688 -35.3149871826171875 0.050686277449131012
47.0146255493164062 -34.6571311950683594 1.03034257888793945
42.27642822265625 -43.5806655883789062 0.0505337268114089966
40.2601814270019531 -43.5081825256347656 1.85731601715087891
33.8141899108886719 -43.2234115600585938 1.01036667823791504
40.191619873046875 -36.9369087219238281 2.68924546241760254
40.4619293212890625 -38.7969169616699219 2.68970394134521484
38.7763824462890625 -33.3549575805664062 1.54828786849975586
41.759521484375 -42.9981575012207031 1.6489483118057251
50.0359230041503906 -38.1126251220703125 2.86954283714294434
40.9770584106445312 -43.2745819091796875 0.0502729266881942749
43.4558296203613281 -38.0273246765136719 0.0671685561537742615
33.95892333984375 -42.9505767822265625 3.68764567375183105
38.9590873718261719 -41.2610969543457031 0.389844596385955811
36.3337135314941406 -36.2438468933105469 1.83423066139221191
52.2561264038085938 -37.4716300964355469 0.408712208271026611
50.2019157409667969 -34.2071609497070312 0.600329279899597168
52.2114601135253906 -35.1075782775878906 0.845317244529724121
44.1588249206542969 -34.2557716369628906 2.68957018852233887
42.3960456848144531 -43.5566864013671875 2.68909001350402832
38.6596488952636719 -39.9166641235351562 2.68952226638793945
41.7194786071777344 -39.554901123046875 0.988723993301391602
37.4644508361816406 -37.4778785705566406 0.28698962926864624
41.2763519287109375 -40.2033920288085938 2.68983125686645508
42.1973114013671875 -41.1366615295410156 0.0504911281168460846
49.1360321044921875 -34.4981231689453125 0.0506557486951351166
40.4374427795410156 -39.315521240234375 0.0503869354724884033
46.1358528137207031 -37.5337142944335938 1.54624760150909424
34.7128562927246094 -41.8957862854003906 2.45018315315246582
34.6322097778320312 -41.6562309265136719 0.672128736972808838
41.5237884521484375 -34.7366294860839844 2.68960285186767578
35.5333671569824219 -44.8979034423828125 2.26656007766723633
39.3555183410644531 -37.0574684143066406 0.811089456081390381
36.1752204895019531 -43.3727035522460938 1.82746601104736328
37.7373580932617188 -43.0184402465820312 2.68953633308410645
40.3369369506835938 -34.3801460266113281 2.6896967887878418
44.4572715759277344 -37.0347518920898438 2.68987274169921875
48.2577362060546875 -34.7144851684570312 2.68913769721984863
42.3985939025878906 -38.2586441040039062 2.68945789337158203
47.958831787109375 -37.5260543823242188 0.0244842767715454102
40.705230712890625 -41.5441741943359375 0.664375662803649902
49.0006065368652344 -33.245208740234375 1.33195114135742188
51.863739013671875 -33.8411521911621094 2.80190491676330566
39.5350112915039062 -43.4934310913085938 0.0875502899289131165
34.6384429931640625 -39.81231689453125 1.1438300609588623
46.0779914855957031 -35.8755035400390625 2.68945860862731934
37.5528373718261719 -43.3365745544433594 0.888238310813903809
43.3590812683105469 -42.8749237060546875 2.32936000823974609
43.2306137084960938 -42.4845161437988281 0.0524431578814983368
43.8403396606445312 -35.0165519714355469 1.84819471836090088
38.4873428344726562 -38.0914764404296875 0.639464318752288818
43.9362640380859375 -35.5183906555175781 0.0505746603012084961
35.8731575012207031 -43.3917579650878906 4.329681396484375
40.7577590942382812 -35.2551689147949219 0.050486493855714798
35.308197021484375 -35.9256401062011719 1.2249833345413208
33.918182373046875 -36.149871826171875 2.84617161750793457
43.7639961242675781 -37.4467811584472656 1.0291290283203125
49.3844757080078125 -36.3577651977539062 2.10860157012939453
43.3036384582519531 -38.5958099365234375 1.96788358688354492
38.4200897216796875 -34.7734756469726562 2.68961429595947266
37.4649505615234375 -40.1958427429199219 2.66961932182312012
50.2738304138183594 -36.9805831909179688 0.759576857089996338
43.3596000671386719 -44.0595474243164062 1.33188366889953613
33.9757537841796875 -44.2800369262695312 0.594127178192138672
37.4627456665039062 -41.3159675598144531 1.15018367767333984
34.6584587097167969 -42.712371826171875 1.65208494663238525
41.0347480773925781 -42.9795036315917969 2.68930983543395996
42.2397689819335938 -39.1719932556152344 0.0511116720736026764
43.3596878051757812 -41.7431564331054688 2.43349194526672363
43.84222412109375 -33.3615989685058594 0.66776275634765625
39.639312744140625 -42.4963226318359375 1.50813400745391846
45.7323455810546875 -37.0223503112792969 0.0505095236003398895
36.3388633728027344 -40.4057502746582031 0.856563925743103027
38.8458404541015625 -41.1440811157226562 2.68930697441101074
41.1381721496582031 -34.0300369262695312 1.40934741497039795
41.0293464660644531 -36.8892555236816406 0.0514120683073997498
48.0197181701660156 -33.2464447021484375 1.91003537178039551
38.6766128540039062 -42.2774543762207031 0.810558140277862549
35.0158157348632812 -37.2340469360351562 1.97112047672271729
48.0198402404785156 -36.5785560607910156 2.68970370292663574
36.3952178955078125 -35.2249832153320312 1.41893470287322998
39.5817451477050781 -34.0366020202636719 1.02888643741607666
41.451904296875 -41.5773582458496094 2.22502994537353516
49.384429931640625 -34.3169097900390625 2.10974788665771484
42.6857414245605469 -37.6063613891601562 0.869614124298095703
50.1204605102539062 -38.2943840026855469 0.901847660541534424
44.4494094848632812 -37.2887535095214844 0.0502416789531707764
41.3975410461425781 -44.2441368103027344 0.208589330315589905
40.0983047485351562 -38.0105018615722656 1.96914398670196533
41.1768569946289062 -44.146392822265625 1.62842917442321777
36.360992431640625 -43.1368331909179688 2.94579696655273438
38.7160911560058594 -43.6094856262207031 1.88781416416168213
43.3040428161621094 -39.1351318359375 0.161827877163887024
48.3094711303710938 -35.4564971923828125 0.928762614727020264
37.4953842163085938 -35.3544540405273438 1.09095358848571777
39.87652587890625 -42.9948005676269531 2.6893608570098877
40.8602333068847656 -42.9975433349609375 1.11010849475860596
