ply
format ascii 1.0
element vertex 10
comment vertices
property float x
property float y
property float z
end_header
41.84442138671875 -41.3728065490722656 1.39482474327087402
34.4541397094726562 -41.2834434509277344 1.3585587739944458
43.0678482055664062 -42.52606201171875 1.31934559345245361
44.5219039916992188 -40.9785690307617188 1.49533462524414062
35.8641777038574219 -37.4792747497558594 1.24112594127655029
41.8608436584472656 -38.5829658508300781 1.24811863899230957
41.2788124084472656 -37.4547805786132812 1.44835376739501953
35.2896499633789062 -40.5510482788085938 1.38792288303375244
40.3860511779785156 -37.55816650390625 1.40597653388977051
34.6276130676269531 -39.101806640625 1.34584236145019531
