ply
format ascii 1.0
element vertex 213
comment vertices
property float x
property float y
property float z
end_header
40.1882705688476562 -41.0468826293945312 1.30357050895690918
42.6660842895507812 -37.5125732421875 0.0230833888053894043
40.2832717895507812 -37.5836181640625 2.71701407432556152
42.60772705078125 -42.8674697875976562 0.576426863670349121
37.7404289245605469 -42.6002655029296875 1.0062410831451416
37.5547943115234375 -39.4096832275390625 2.72805500030517578
42.7371482849121094 -39.440704345703125 2.33146095275878906
40.2794723510742188 -38.8824234008789062 0.0190536081790924072
42.4829139709472656 -42.2786102294921875 2.72086644172668457
37.8238296508789062 -40.1220016479492188 0.579441547393798828
38.3015861511230469 -42.4876670837402344 2.73146510124206543
39.9858741760253906 -43.0346832275390625 0.840166032314300537
42.6705055236816406 -40.1820640563964844 0.0168777909129858017
42.4025688171386719 -37.4095039367675781 1.56420600414276123
40.3925018310546875 -42.9436759948730469 1.65981709957122803
40.9511909484863281 -41.1306838989257812 0.0316653400659561157
40.8304367065429688 -39.2607154846191406 1.29874134063720703
39.1099128723144531 -41.4261970520019531 0.0267768222838640213
40.7965660095214844 -37.3943862915039062 1.1647106409072876
39.2668304443359375 -39.7809257507324219 2.7137751579284668
41.4190788269042969 -42.5529747009277344 1.33496510982513428
41.8316802978515625 -40.747833251953125 1.41349482536315918
38.9725723266601562 -43.4868659973144531 1.31559348106384277
42.5004844665527344 -38.823516845703125 1.15052461624145508
38.7391586303710938 -37.1220817565917969 1.50089848041534424
39.5702743530273438 -39.8645896911621094 1.21868443489074707
38.7466697692871094 -41.1276168823242188 2.69538974761962891
41.6153831481933594 -38.4657974243164062 2.70544600486755371
38.7892341613769531 -38.5201988220214844 0.20633697509765625
42.6493492126464844 -40.8963699340820312 1.72997474670410156
41.5884513854980469 -39.2973785400390625 0.00973358377814292908
37.8663978576660156 -37.5067291259765625 1.39069926738739014
41.499267578125 -40.0337257385253906 2.71982026100158691
37.5207901000976562 -42.4779090881347656 1.26909589767456055
39.6118888854980469 -37.1390533447265625 1.34158968925476074
38.4621810913085938 -38.4436492919921875 2.73531293869018555
37.9720954895019531 -41.4142913818359375 1.03148984909057617
42.2083053588867188 -41.3628730773925781 0.0229223966598510742
38.8255119323730469 -42.6671371459960938 0.0421425178647041321
39.8001823425292969 -38.6966400146484375 2.52489209175109863
39.9104499816894531 -40.4990081787109375 0.00558344274759292603
41.3728828430175781 -42.9826622009277344 0.987120628356933594
39.4665565490722656 -42.1616172790527344 2.72710371017456055
38.8756256103515625 -39.7681961059570312 0.0597278699278831482
40.3633155822753906 -40.2438430786132812 2.71331214904785156
42.6317863464355469 -39.9016571044921875 1.30717062950134277
41.2157974243164062 -37.56622314453125 1.30909252166748047
37.7470664978027344 -40.5376739501953125 2.71529912948608398
41.5951919555664062 -42.9703636169433594 2.2073216438293457
37.50152587890625 -38.5079727172851562 1.45171093940734863
38.5643844604492188 -42.53656005859375 1.33277308940887451
40.8094329833984375 -42.2087974548339844 0.771861612796783447
37.6659507751464844 -41.6387176513671875 2.71935939788818359
40.847137451171875 -40.0249290466308594 0.0336024835705757141
42.6618156433105469 -38.3002243041992188 2.66161489486694336
41.5790977478027344 -39.1789779663085938 1.23459875583648682
38.7129364013671875 -40.6173171997070312 1.09904932975769043
42.014556884765625 -38.4435539245605469 1.3834989070892334
42.5674858093261719 -40.8388557434082031 1.18203651905059814
40.3941307067871094 -41.7321014404296875 2.73266792297363281
37.7137603759765625 -39.0800514221191406 0.0301714874804019928
39.7475357055664062 -37.8844375610351562 1.30339860916137695
39.4262428283691406 -38.4305572509765625 1.13437628746032715
42.4193038940429688 -38.4424324035644531 0.0213273856788873672
41.9552879333496094 -42.2251701354980469 1.16135144233703613
41.7454376220703125 -40.4552001953125 0.0196254067122936249
37.5302467346191406 -40.377960205078125 1.25719237327575684
40.7157974243164062 -38.8969154357910156 2.72768402099609375
40.6171073913574219 -42.928466796875 1.48534035682678223
41.1020660400390625 -40.6331329345703125 1.59408080577850342
39.6633453369140625 -40.8947334289550781 2.71202993392944336
39.8611030578613281 -39.9743232727050781 1.26280701160430908
38.8770332336425781 -43.4160385131835938 0.997043609619140625
41.8374557495117188 -39.2876205444335938 1.30869245529174805
39.1025466918945312 -42.6468772888183594 1.22864603996276855
39.6555137634277344 -42.1638450622558594 0.0161331444978713989
42.5535202026367188 -41.5647239685058594 1.38889026641845703
40.35443115234375 -37.9764976501464844 0.0222391784191131592
38.8199806213378906 -37.1669273376464844 0.246304154396057129
40.6674652099609375 -39.3036384582519531 1.24217987060546875
38.4844284057617188 -39.3398818969726562 2.70570993423461914
42.1951065063476562 -42.8996658325195312 1.1657179594039917
42.457977294921875 -39.344757080078125 0.369596600532531738
38.2085227966308594 -42.0319442749023438 0.00488832965493202209
38.1366653442382812 -38.3422355651855469 1.04354357719421387
42.4942245483398438 -40.2946929931640625 1.16854298114776611
39.570098876953125 -37.1212501525878906 1.64036476612091064
38.5227279663085938 -40.1800880432128906 2.71476101875305176
41.4646377563476562 -41.7388343811035156 0.0105436220765113831
41.7671890258789062 -37.6766014099121094 2.71195411682128906
39.201263427734375 -39.54150390625 1.41801297664642334
41.8684425354003906 -40.7573776245117188 2.48160839080810547
40.3774948120117188 -41.7044792175292969 0.0171245932579040527
40.1237525939941406 -39.4181632995605469 2.70238566398620605
37.5469245910644531 -42.5276985168457031 2.53202319145202637
37.5352287292480469 -40.0317153930664062 1.16332447528839111
40.9530601501464844 -37.9925079345703125 2.70677733421325684
42.6405029296875 -39.0891075134277344 1.36581003665924072
42.702484130859375 -42.0277214050292969 0.125058457255363464
39.7539100646972656 -41.6897392272949219 1.15377378463745117
41.9723014831542969 -42.5519676208496094 1.57575225830078125
39.6628189086914062 -37.6419754028320312 1.11322808265686035
42.1269340515136719 -41.4891548156738281 2.69532895088195801
40.970184326171875 -37.4014930725097656 0.00222786888480186462
40.0927848815917969 -39.6431312561035156 0.040074523538351059
41.454132080078125 -40.73809814453125 1.24475908279418945
39.2154464721679688 -39.1805534362792969 0.68489307165145874
38.1513099670410156 -38.418853759765625 1.34942483901977539
38.4341468811035156 -40.9611663818359375 -0.00457644835114479065
37.5139312744140625 -40.7457237243652344 0.0521462857723236084
37.4616813659667969 -39.6096572875976562 1.11707854270935059
39.1439361572265625 -38.4409103393554688 1.4096444845199585
40.617401123046875 -42.9188079833984375 1.20020711421966553
40.7214851379394531 -40.9368476867675781 2.70239472389221191
39.8953895568847656 -42.5480995178222656 1.20570731163024902
41.915740966796875 -37.5836029052734375 0.226732015609741211
39.800567626953125 -42.3464088439941406 1.02696549892425537
42.2444305419921875 -40.0795440673828125 2.71469640731811523
40.2118377685546875 -37.5089950561523438 1.33733165264129639
38.1646652221679688 -40.0308341979980469 1.24203801155090332
38.7321319580078125 -41.91595458984375 2.70772767066955566
39.2142219543457031 -40.6749534606933594 -0.0119677819311618805
41.7506179809570312 -42.1133880615234375 2.70670843124389648
42.6267051696777344 -40.8963394165039062 1.38991284370422363
41.4457931518554688 -39.1768455505371094 2.67473006248474121
37.4631080627441406 -41.8427314758300781 1.39625763893127441
38.2999916076660156 -42.5440711975097656 1.49044477939605713
38.5204849243164062 -37.8494224548339844 0.0186069086194038391
37.7783584594726562 -42.5569000244140625 1.21304905414581299
38.5806655883789062 -38.4223213195800781 1.17393028736114502
39.7789840698242188 -41.2424812316894531 0.0299070868641138077
38.9303245544433594 -40.0542678833007812 1.22395145893096924
42.4771499633789062 -38.0090370178222656 1.14373588562011719
41.0154495239257812 -38.8478279113769531 0.00604887679219245911
39.5921478271484375 -38.6809425354003906 0.0079602263867855072
42.2038917541503906 -38.8206672668457031 2.71990799903869629
42.6860084533691406 -42.9182853698730469 1.49473226070404053
37.8215751647949219 -38.77313232421875 2.74503254890441895
39.8935317993164062 -41.5698966979980469 1.28480899333953857
42.0221328735351562 -39.2942047119140625 1.18439233303070068
42.6899070739746094 -37.5247459411621094 2.6438896656036377
42.627105712890625 -42.1988945007324219 1.40579450130462646
39.7574844360351562 -38.0318641662597656 2.71716666221618652
39.5393600463867188 -40.4196014404296875 1.31204473972320557
40.5683097839355469 -40.6879234313964844 1.16962432861328125
37.7082138061523438 -37.6784858703613281 1.13451170921325684
39.7422447204589844 -38.0027732849121094 0.00968329980969429016
38.5137672424316406 -38.4266891479492188 1.56066560745239258
41.2863273620605469 -42.5565223693847656 1.48580265045166016
42.4321708679199219 -41.4896621704101562 1.23127257823944092
42.6899681091308594 -40.8870086669921875 0.114551961421966553
42.0400009155273438 -39.8211288452148438 0.0242742765694856644
40.7460670471191406 -39.6655731201171875 2.72340726852416992
39.3738937377929688 -42.9640960693359375 0.119267024099826813
40.4250564575195312 -42.3922348022460938 0.253331899642944336
40.4438018798828125 -37.45574951171875 1.16340768337249756
39.1515159606933594 -40.4601097106933594 2.71329832077026367
38.3668861389160156 -42.4478797912597656 1.23502492904663086
39.792816162109375 -39.3016281127929688 1.12820708751678467
42.5883750915527344 -38.0912322998046875 1.53502976894378662
38.5423507690429688 -37.5060882568359375 1.47275376319885254
42.538818359375 -42.4396934509277344 1.11347973346710205
41.4011650085449219 -37.5759010314941406 1.20025992393493652
40.3581886291503906 -38.264556884765625 2.69946932792663574
37.7626533508300781 -41.95220947265625 1.17289841175079346
42.4924507141113281 -39.8714179992675781 1.08693075180053711
40.3332481384277344 -37.50225830078125 1.12876009941101074
38.8821144104003906 -42.0277786254882812 0.0319369733333587646
42.5651664733886719 -37.4494857788085938 1.21000480651855469
39.4891166687011719 -39.8354454040527344 0.73203277587890625
42.4775314331054688 -37.390533447265625 1.33690905570983887
41.7863998413085938 -38.073272705078125 1.58857274055480957
39.00201416015625 -42.5496902465820312 2.72120165824890137
37.6101875305175781 -38.4900474548339844 0.717850387096405029
40.5050849914550781 -37.9732551574707031 1.09286916255950928
41.4356803894042969 -42.5372467041015625 1.14931154251098633
40.7535324096679688 -42.9654808044433594 1.07006978988647461
39.5980148315429688 -41.5350112915039062 2.72432780265808105
42.193450927734375 -39.2766876220703125 1.3113638162612915
40.1879920959472656 -42.3428916931152344 2.71683406829833984
40.7320175170898438 -39.4008445739746094 -0.00614598765969276428
40.666748046875 -42.5679283142089844 1.33544790744781494
40.9724235534667969 -40.3422279357910156 2.70952725410461426
40.5521507263183594 -39.1755027770996094 1.25761985778808594
39.5889396667480469 -37.8872566223144531 1.3198084831237793
39.1897659301757812 -43.2215957641601562 1.4630131721496582
37.4684944152832031 -39.1487007141113281 1.98613190650939941
41.0813179016113281 -37.4110984802246094 2.70050811767578125
41.2514877319335938 -40.7100906372070312 1.18964278697967529
39.7897148132324219 -40.0359611511230469 2.63653969764709473
38.158599853515625 -41.7977485656738281 1.14707076549530029
37.5264701843261719 -41.1051216125488281 2.4762723445892334
42.6511116027832031 -38.779693603515625 1.26172542572021484
42.2743034362792969 -42.9590682983398438 1.04967737197875977
42.1988182067871094 -40.7877616882324219 1.22235512733459473
37.9043388366699219 -39.8881988525390625 2.73241996765136719
42.0133552551269531 -39.4013290405273438 2.71701169013977051
39.7519989013671875 -42.8666343688964844 1.3100895881652832
40.015106201171875 -40.6386795043945312 1.2002561092376709
41.6427497863769531 -41.0435447692871094 0.0315594002604484558
41.2757720947265625 -40.6335678100585938 1.38393831253051758
40.5360221862792969 -40.6443023681640625 1.43256306648254395
38.263092041015625 -40.0543861389160156 1.27497398853302002
38.2132110595703125 -40.5918655395507812 1.11153233051300049
41.4382820129394531 -39.9388656616210938 0.0278830137103796005
38.1058197021484375 -40.9900016784667969 2.69860529899597168
41.8806114196777344 -42.9099273681640625 1.38622045516967773
39.6065711975097656 -39.2629165649414062 -0.00814513489603996277
40.4039955139160156 -41.1191024780273438 -0.0431096293032169342
40.17193603515625 -41.1767196655273438 2.71926212310791016
38.7083244323730469 -40.0261497497558594 1.0532304048538208
40.4360733032226562 -38.7559661865234375 1.07716608047485352
38.3001136779785156 -41.5245246887207031 2.70395135879516602
