ply
format ascii 1.0
element vertex 9
comment vertices
property float x
property float y
property float z
end_header
35.9985427856445312 -38.7842674255371094 0.0481650456786155701
37.6987648010253906 -41.4019660949707031 1.32513999938964844
36.2354087829589844 -39.1080703735351562 2.71571612358093262
41.2788124084472656 -37.4547805786132812 1.44835376739501953
40.9695587158203125 -40.1246490478515625 2.69773387908935547
40.902496337890625 -39.9413032531738281 0.0319531112909317017
39.1142425537109375 -37.5927085876464844 1.40688824653625488
44.4927711486816406 -40.0989570617675781 1.43179202079772949
34.6276130676269531 -39.101806640625 1.34584236145019531
