ply
format ascii 1.0
element vertex 400
comment vertices
property float x
property float y
property float z
end_header
41.6499977111816406 -34.5949974060058594 3.0149998664855957
41.6499977111816406 -36.8250007629394531 3.0149998664855957
41.644989013671875 -40.9099998474121094 3.0149998664855957
36.9000015258789062 -40.4299964904785156 3.0149998664855957
38.5949974060058594 -41.1049995422363281 3.0149998664855957
38.595001220703125 -35.3999977111816406 3.0149998664855957
34.9949989318847656 -38.7449989318847656 3.0149998664855957
34.9949989318847656 -33.0400009155273438 3.0149998664855957
38.6299972534179688 -41.8073654174804688 1.4299999475479126
38.541900634765625 -40.3999977111816406 1.4299999475479126
36.7041168212890625 -39.0499992370605469 1.4299999475479126
37.5999984741210938 -37.2600021362304688 1.37999999523162842
37.5999984741210938 -34.10919189453125 1.37999999523162842
39.592498779296875 -37.3153038024902344 1.4299999475479126
39.592498779296875 -35.2622451782226562 1.4299999475479126
41.6499977111816406 -34.5949974060058594 0.324999988079071045
41.6499977111816406 -36.8250007629394531 0.324999988079071045
41.644989013671875 -40.9099998474121094 0.324999988079071045
36.9000015258789062 -40.4299964904785156 0.324999988079071045
38.5949974060058594 -41.1049995422363281 0.324999988079071045
38.595001220703125 -35.3999977111816406 0.324999988079071045
34.9949989318847656 -38.7449989318847656 0.324999988079071045
34.9949989318847656 -33.0400009155273438 0.324999988079071045
41.6499977111816406 -33.4026298522949219 1.66749989986419678
43.6973686218261719 -34.595001220703125 1.66749989986419678
41.6499977111816406 -35.7900009155273438 1.66749989986419678
43.6973686218261719 -36.8250007629394531 1.66749989986419678
41.6499977111816406 -37.8600006103515625 1.66749989986419678
43.6973686218261719 -40.9099998474121094 1.66749989986419678
41.6449966430664062 -43.957366943359375 1.66749989986419678
36.8999977111816406 -41.8073654174804688 1.66749989986419678
38.5949974060058594 -41.8073654174804688 1.66749989986419678
38.589996337890625 -30.4026317596435547 1.66749989986419678
38.5949974060058594 -40.3999977111816406 1.66749989986419678
36.9000015258789062 -39.0499992370605469 1.66749989986419678
36.2000007629394531 -40.4300003051757812 1.66749989986419678
34.2949981689453125 -41.8073654174804688 1.66749989986419678
32.3926315307617188 -38.7449989318847656 1.66749989986419678
34.9949989318847656 -30.4026317596435547 1.66749989986419678
34.9949989318847656 -35.6800003051757812 1.66749989986419678
32.3926315307617188 -33.0399971008300781 1.66749989986419678
39.5976295471191406 -42.8737068176269531 1.66749989986419678
39.592498779296875 -41.1005935668945312 1.66749989986419678
37.5999984741210938 -41.0999984741210938 1.66749989986419678
39.582366943359375 -31.9113044738769531 1.66749989986419678
39.592498779296875 -34.5994071960449219 1.66749989986419678
39.5900001525878906 -39.1262474060058594 1.66749989986419678
39.592498779296875 -36.8287506103515625 1.66749989986419678
37.5999984741210938 -39.7249984741210938 1.66749989986419678
37.5999984741210938 -37.3612480163574219 1.66749989986419678
37.5999984741210938 -33.0487480163574219 1.66749989986419678
34.3011131286621094 -41.7975006103515625 1.89999997615814209
32.4025001525878906 -37.6766700744628906 1.89999997615814209
32.4025001525878906 -32.9485130310058594 1.41999995708465576
34.9412002563476562 -30.4124984741210938 1.85000002384185791
0 0 0
0 0 0
0 0 0
0 0 0
0 0 0
0 0 0
0 0 0
0 0 0
0 0 0
0 0 0
0 0 0
0 0 0
0 0 0
0 0 0
0 0 0
0 0 0
0 0 0
0 0 0
0 0 0
0 0 0
0 0 0
0 0 0
0 0 0
0 0 0
0 0 0
0 0 0
0 0 0
0 0 0
0 0 0
0 0 0
0 0 0
0 0 0
0 0 0
0 0 0
0 0 0
0 0 0
0 0 0
0 0 0
0 0 0
0 0 0
0 0 0
0 0 0
0 0 0
0 0 0
0 0 0
0 0 0
0 0 0
0 0 0
0 0 0
0 0 0
0 0 0
0 0 0
0 0 0
0 0 0
0 0 0
0 0 0
0 0 0
0 0 0
0 0 0
0 0 0
0 0 0
0 0 0
0 0 0
0 0 0
0 0 0
0 0 0
0 0 0
0 0 0
0 0 0
0 0 0
0 0 0
0 0 0
0 0 0
0 0 0
0 0 0
0 0 0
0 0 0
0 0 0
0 0 0
0 0 0
0 0 0
0 0 0
0 0 0
0 0 0
0 0 0
0 0 0
0 0 0
0 0 0
0 0 0
0 0 0
0 0 0
0 0 0
0 0 0
0 0 0
0 0 0
0 0 0
0 0 0
0 0 0
0 0 0
0 0 0
0 0 0
0 0 0
0 0 0
0 0 0
0 0 0
0 0 0
0 0 0
0 0 0
0 0 0
0 0 0
0 0 0
0 0 0
0 0 0
0 0 0
0 0 0
0 0 0
0 0 0
0 0 0
0 0 0
0 0 0
0 0 0
0 0 0
0 0 0
0 0 0
0 0 0
0 0 0
0 0 0
0 0 0
0 0 0
0 0 0
0 0 0
0 0 0
0 0 0
0 0 0
0 0 0
0 0 0
0 0 0
0 0 0
0 0 0
0 0 0
0 0 0
0 0 0
0 0 0
0 0 0
0 0 0
0 0 0
0 0 0
0 0 0
0 0 0
0 0 0
0 0 0
0 0 0
0 0 0
0 0 0
0 0 0
0 0 0
0 0 0
0 0 0
0 0 0
0 0 0
0 0 0
0 0 0
0 0 0
0 0 0
0 0 0
0 0 0
0 0 0
0 0 0
0 0 0
0 0 0
0 0 0
0 0 0
0 0 0
0 0 0
0 0 0
0 0 0
0 0 0
0 0 0
0 0 0
0 0 0
0 0 0
0 0 0
0 0 0
0 0 0
0 0 0
0 0 0
0 0 0
0 0 0
0 0 0
0 0 0
0 0 0
0 0 0
0 0 0
0 0 0
0 0 0
0 0 0
0 0 0
0 0 0
0 0 0
0 0 0
0 0 0
0 0 0
0 0 0
0 0 0
0 0 0
0 0 0
0 0 0
0 0 0
0 0 0
0 0 0
0 0 0
0 0 0
0 0 0
0 0 0
0 0 0
0 0 0
0 0 0
0 0 0
0 0 0
0 0 0
0 0 0
0 0 0
0 0 0
0 0 0
0 0 0
0 0 0
0 0 0
0 0 0
0 0 0
0 0 0
0 0 0
0 0 0
0 0 0
0 0 0
0 0 0
0 0 0
0 0 0
0 0 0
0 0 0
0 0 0
0 0 0
0 0 0
0 0 0
0 0 0
0 0 0
0 0 0
0 0 0
0 0 0
0 0 0
0 0 0
0 0 0
0 0 0
0 0 0
0 0 0
0 0 0
0 0 0
0 0 0
0 0 0
0 0 0
0 0 0
0 0 0
0 0 0
0 0 0
0 0 0
0 0 0
0 0 0
0 0 0
0 0 0
0 0 0
0 0 0
0 0 0
0 0 0
0 0 0
0 0 0
0 0 0
0 0 0
0 0 0
0 0 0
0 0 0
0 0 0
0 0 0
0 0 0
0 0 0
0 0 0
0 0 0
0 0 0
0 0 0
0 0 0
0 0 0
0 0 0
0 0 0
0 0 0
0 0 0
0 0 0
0 0 0
0 0 0
0 0 0
0 0 0
0 0 0
0 0 0
0 0 0
0 0 0
0 0 0
0 0 0
0 0 0
0 0 0
0 0 0
0 0 0
0 0 0
0 0 0
0 0 0
0 0 0
0 0 0
0 0 0
0 0 0
0 0 0
0 0 0
0 0 0
0 0 0
0 0 0
0 0 0
0 0 0
0 0 0
0 0 0
0 0 0
0 0 0
0 0 0
0 0 0
0 0 0
0 0 0
0 0 0
0 0 0
0 0 0
0 0 0
0 0 0
0 0 0
0 0 0
0 0 0
0 0 0
0 0 0
0 0 0
0 0 0
0 0 0
0 0 0
0 0 0
