ply
format ascii 1.0
element vertex 256
comment vertices
property float x
property float y
property float z
end_header
42.90240478515625 -39.9653511047363281 2.00316786766052246
37.5004348754882812 -33.3545494079589844 6.52051925659179688
37.5195274353027344 -42.6443634033203125 8.10089397430419922
37.55047607421875 -44.4687156677246094 0.277333170175552368
46.2421340942382812 -44.44891357421875 6.4359431266784668
40.2908515930175781 -33.6219024658203125 0.0502487272024154663
43.6345291137695312 -36.6662139892578125 8.12266826629638672
46.1153221130371094 -44.5792770385742188 0.548576593399047852
37.5458297729492188 -38.6286811828613281 3.79439830780029297
41.4962501525878906 -44.642822265625 3.7351534366607666
43.6257438659667969 -33.4851646423339844 3.83529949188232422
42.4698753356933594 -41.56597900390625 8.08859729766845703
46.2442741394042969 -39.7865142822265625 5.49796390533447266
38.9806022644042969 -37.5050315856933594 8.088897705078125
37.4649810791015625 -36.7860336303710938 0.000758659793063998222
39.1601638793945312 -40.6083106994628906 0.318407267332077026
43.6364936828613281 -36.0174331665039062 0.593584537506103516
40.161224365234375 -35.5504989624023438 3.66164302825927734
38.0137977600097656 -42.6182441711425781 4.14029693603515625
42.0451431274414062 -43.2460098266601562 0.0506517775356769562
46.2448310852050781 -40.3934860229492188 0.0749265328049659729
41.4262313842773438 -38.8853416442871094 5.45176076889038086
41.1239891052246094 -33.4519081115722656 6.48185873031616211
44.6331520080566406 -42.5468330383300781 3.8424067497253418
37.4883766174316406 -33.4740219116210938 2.6999201774597168
43.6373329162597656 -36.8038215637207031 4.00293731689453125
40.644866943359375 -37.6459007263183594 0.0511517934501171112
39.5077018737792969 -44.6663475036621094 6.36130905151367188
43.0831184387207031 -44.5689773559570312 6.42807149887084961
40.9034347534179688 -41.9638900756835938 5.3888392448425293
37.5847816467285156 -39.9101333618164062 6.72574615478515625
37.541290283203125 -35.9292068481445312 5.00256156921386719
40.2001266479492188 -39.0931816101074219 2.68925952911376953
40.3217315673828125 -42.4252777099609375 2.24025607109069824
45.6450881958007812 -39.8023185729980469 2.75085067749023438
40.0101699829101562 -40.1659927368164062 8.08889102935791016
43.6378517150878906 -39.1840934753417969 7.03917932510375977
43.2792320251464844 -33.3554573059082031 1.135597825050354
43.6345863342285156 -34.5026283264160156 6.47950839996337891
46.2449378967285156 -44.6550254821777344 3.31909680366516113
43.6375007629394531 -44.3254165649414062 1.85319209098815918
40.9248924255371094 -35.7456245422363281 8.08864307403564453
43.6412620544433594 -39.9643363952636719 4.51836585998535156
44.6375923156738281 -41.8063926696777344 6.32125425338745117
39.1664772033691406 -35.4958610534667969 1.33880615234375
37.5508613586425781 -40.6830711364746094 2.34221029281616211
41.8051986694335938 -36.4245452880859375 5.77161741256713867
37.54083251953125 -35.4534530639648438 7.93547964096069336
40.9770545959472656 -33.3843650817871094 2.69936108589172363
38.8043479919433594 -44.5474815368652344 2.74991822242736816
40.2203521728515625 -42.6441001892089844 7.82196950912475586
39.325469970703125 -37.5832290649414062 5.47137641906738281
41.582977294921875 -38.1237983703613281 8.08881378173828125
40.0203132629394531 -44.5815315246582031 0.47402036190032959
44.627288818359375 -42.7035064697265625 0.050134461373090744
41.5662002563476562 -40.7669944763183594 0.0505306944251060486
43.4244422912597656 -38.5485153198242188 0.122740268707275391
41.6272430419921875 -35.4957695007324219 1.78177976608276367
39.5186309814453125 -35.0980682373046875 6.02625608444213867
42.5828285217285156 -42.3045921325683594 2.77071142196655273
38.1788063049316406 -38.68035888671875 1.11239063739776611
37.5416984558105469 -36.4318389892578125 2.66993308067321777
41.6552505493164062 -37.3643760681152344 3.05785536766052246
39.5157470703125 -40.0676651000976562 5.38920211791992188
38.3651809692382812 -42.5974845886230469 1.19915902614593506
37.4553337097167969 -44.0951347351074219 5.68158340454101562
38.7620353698730469 -42.4042091369628906 6.20145940780639648
43.6441116333007812 -44.55950927734375 4.14051723480224609
41.426849365234375 -40.6178855895996094 3.59888958930969238
37.8550949096679688 -33.9769248962402344 0.579512476921081543
43.6382942199707031 -37.8724365234375 2.1529233455657959
42.9176025390625 -42.6442947387695312 5.380096435546875
39.3381843566894531 -40.9445304870605469 3.40798854827880859
42.4071998596191406 -40.6868782043457031 6.21323871612548828
39.220428466796875 -33.4501152038574219 3.83276486396789551
37.5435218811035156 -37.7863655090332031 6.50284528732299805
37.7032585144042969 -40.6505775451660156 4.62015390396118164
43.6344985961914062 -37.2817802429199219 6.04191303253173828
39.77996826171875 -37.189208984375 2.22063279151916504
46.2438735961914062 -42.6634063720703125 5.49898719787597656
43.3825874328613281 -35.3015174865722656 2.69906282424926758
42.0385665893554688 -34.6413040161132812 0.0500678867101669312
44.5931510925292969 -40.6797142028808594 1.09344577789306641
46.2447853088378906 -41.7812423706054688 3.10961699485778809
40.5252265930175781 -35.76580810546875 0.0504966303706169128
41.3191642761230469 -44.6650276184082031 5.80259275436401367
42.1234016418457031 -35.480316162109375 4.21731805801391602
41.1061172485351562 -39.229339599609375 1.08999300003051758
44.6257095336914062 -43.5238761901855469 5.44982481002807617
39.4242973327636719 -38.9202804565429688 6.88217735290527344
39.8323173522949219 -42.6449813842773438 3.9961094856262207
46.21112060546875 -41.9310455322265625 1.03544962406158447
42.6610603332519531 -33.4179306030273438 5.4010004997253418
44.1034202575683594 -44.4334564208984375 0.0506463497877120972
39.9241714477539062 -42.8261528015136719 0.0503731295466423035
38.4823188781738281 -41.1251945495605469 8.08873939514160156
43.2813568115234375 -41.3045387268066406 0.0503433831036090851
43.6607475280761719 -43.0787544250488281 7.21747922897338867
42.0451278686523438 -39.8684310913085938 7.79703378677368164
37.6186904907226562 -41.4315948486328125 0.0784530937671661377
37.7198638916015625 -38.8065299987792969 8.08902072906494141
37.986846923828125 -34.7499542236328125 3.78115749359130859
40.7195816040039062 -37.7446098327636719 6.62300395965576172
43.3256950378417969 -42.669525146484375 1.24117648601531982
42.8039360046386719 -38.8661460876464844 3.46179819107055664
44.1875877380371094 -41.0042572021484375 2.75098204612731934
39.2350234985351562 -38.7409896850585938 4.10216808319091797
42.1656036376953125 -36.8479270935058594 0.0507449693977832794
39.2231864929199219 -35.6133041381835938 7.65543985366821289
41.9235343933105469 -42.64569091796875 6.88167428970336914
42.52313232421875 -35.5508460998535156 7.46047067642211914
39.4843406677246094 -33.4494361877441406 5.59328842163085938
39.8806838989257812 -41.2464714050292969 6.74330949783325195
42.0443496704101562 -44.6734695434570312 0.96062004566192627
41.0834808349609375 -34.8072280883789062 5.45087862014770508
40.1603279113769531 -40.7623291015625 1.63919734954833984
37.4851493835449219 -35.4547233581542969 1.33063054084777832
41.5256309509277344 -33.3841133117675781 1.13510251045227051
37.463623046875 -43.5867538452148438 2.69952678680419922
42.6242179870605469 -37.9149208068847656 4.87869548797607422
46.1763648986816406 -41.2246437072753906 6.43652534484863281
38.242919921875 -39.0429954528808594 5.38472938537597656
41.5718421936035156 -42.0033111572265625 1.11851108074188232
39.925018310546875 -37.1433982849121094 3.91882610321044922
37.6457023620605469 -34.9871444702148438 6.37908935546875
38.8828353881835938 -37.64630126953125 0.0708781257271766663
41.4657554626464844 -42.5498504638671875 3.98094749450683594
43.2828292846679688 -41.5468101501464844 4.24183130264282227
38.5858345031738281 -39.2059974670410156 2.69143843650817871
43.2255935668945312 -35.637664794921875 5.39024543762207031
42.2233848571777344 -38.0106925964355469 1.40061759948730469
39.2279205322265625 -34.643890380859375 2.69967007637023926
42.3431968688964844 -38.0099678039550781 6.68028545379638672
44.8322982788085938 -43.6571540832519531 2.69989204406738281
43.6395835876464844 -40.7891082763671875 7.22124624252319336
40.3933906555175781 -44.0670928955078125 2.74833059310913086
39.6447944641113281 -39.0404510498046875 0.501456975936889648
38.8631134033203125 -42.7947769165039062 2.75082755088806152
40.3586654663085938 -43.4277572631835938 5.3986506462097168
44.8311271667480469 -40.5258712768554688 5.45035409927368164
43.6347007751464844 -34.5380363464355469 0.106483906507492065
42.3098716735839844 -34.1825180053710938 2.69944381713867188
37.4436988830566406 -36.9903373718261719 7.82720232009887695
41.0597915649414062 -38.4442672729492188 4.02078771591186523
37.5493011474609375 -41.4468116760253906 6.74228048324584961
42.3193855285644531 -43.8885345458984375 2.69958901405334473
42.760589599609375 -39.8703041076660156 0.478617340326309204
37.5435562133789062 -38.0897712707519531 2.36124992370605469
43.0995864868164062 -38.1632919311523438 8.0888824462890625
46.2448654174804688 -43.1881217956542969 3.68253993988037109
38.9726676940917969 -35.6815605163574219 4.58765316009521484
37.5761184692382812 -37.4054222106933594 4.67919540405273438
40.3011283874511719 -36.4639854431152344 5.75638103485107422
38.6684188842773438 -36.3275833129882812 5.93310689926147461
43.6429786682128906 -38.8113327026367188 5.60141897201538086
40.8824996948242188 -39.1441001892089844 7.22357797622680664
37.4911956787109375 -44.6461639404296875 3.7352759838104248
46.1481094360351562 -43.1831817626953125 0.0585750974714756012
39.1844215393066406 -33.4506607055664062 1.01951801776885986
40.9664688110351562 -40.3464889526367188 5.39088153839111328
41.6472740173339844 -39.4225730895996094 2.7505795955657959
38.987335205078125 -36.0877037048339844 2.76555585861206055
37.5507545471191406 -41.9988861083984375 5.38767862319946289
44.7069854736328125 -44.5911865234375 6.43581485748291016
37.9507637023925781 -37.1662826538085938 1.32632124423980713
42.917144775390625 -36.6727638244628906 2.68902039527893066
37.5512809753417969 -39.9624557495117188 0.902174651622772217
38.5992355346679688 -43.5073204040527344 0.0506968237459659576
40.3413658142089844 -34.6017570495605469 1.09823215007781982
44.2984848022460938 -39.6740646362304688 0.0311325807124376297
37.5491600036621094 -42.0920906066894531 2.51588654518127441
42.8650360107421875 -40.5733604431152344 3.29825425148010254
41.8395271301269531 -38.6070404052734375 0.0507597364485263824
42.148040771484375 -40.0225334167480469 4.6597294807434082
38.7367362976074219 -43.5675811767578125 5.39959955215454102
40.8241310119628906 -35.4540863037109375 6.67922878265380859
40.7421951293945312 -41.3653221130371094 8.08884525299072266
38.5963096618652344 -41.0193443298339844 5.92768287658691406
40.9291458129882812 -38.1054649353027344 1.90153169631958008
40.4682350158691406 -41.5450057983398438 0.400405645370483398
43.633758544921875 -36.0839195251464844 6.74219894409179688
42.3459205627441406 -34.8291244506835938 6.10881280899047852
43.5454978942871094 -41.1639480590820312 5.59566068649291992
39.7896995544433594 -41.2849922180175781 4.8025202751159668
44.1735687255859375 -39.674407958984375 3.28125953674316406
40.1736602783203125 -36.7646484375 0.982422113418579102
38.824920654296875 -42.6447525024414062 7.70063400268554688
43.9236679077148438 -42.3270988464355469 2.53389525413513184
40.2031936645507812 -38.3480720520019531 8.08862495422363281
38.5401840209960938 -44.5566024780273438 1.20089495182037354
43.5447006225585938 -35.4545555114746094 4.07871723175048828
43.2965278625488281 -37.33087158203125 0.702067077159881592
45.4931221008300781 -39.6744232177734375 1.03248655796051025
40.3834152221679688 -40.1062660217285156 0.0507068298757076263
39.8734397888183594 -36.7894287109375 7.37957382202148438
40.5128211975097656 -42.6467018127441406 6.50986766815185547
40.8618736267089844 -36.3271675109863281 2.75061178207397461
39.4166412353515625 -38.4117050170898438 1.82173514366149902
38.7565765380859375 -39.6476287841796875 8.08843231201171875
44.885955810546875 -44.5792388916015625 3.6611945629119873
40.0980873107910156 -38.8698577880859375 5.38783597946166992
43.4882850646972656 -41.2084846496582031 1.60320472717285156
40.8433074951171875 -34.9504051208496094 2.69896984100341797
37.9770393371582031 -34.1575508117675781 5.39860868453979492
39.4023513793945312 -34.9419517517089844 0.163748174905776978
41.7999725341796875 -43.3463859558105469 5.39966821670532227
37.5454330444335938 -40.204742431640625 8.05958461761474609
42.4210662841796875 -39.3770866394042969 6.20318746566772461
44.1829719543457031 -42.291717529296875 5.19743871688842773
45.1650161743164062 -39.67547607421875 6.38328313827514648
39.8852958679199219 -39.8630142211914062 3.87846255302429199
41.40289306640625 -42.9671669006347656 2.69997811317443848
38.0860595703125 -41.2417869567871094 3.39086461067199707
37.5415687561035156 -36.468017578125 6.54031515121459961
41.750701904296875 -36.7240562438964844 8.08912754058837891
38.7646675109863281 -37.8441123962402344 2.7654569149017334
45.4542160034179688 -41.6258583068847656 0.0498957075178623199
46.2185401916503906 -40.3812942504882812 3.73510098457336426
43.3639602661132812 -39.867340087890625 8.08014202117919922
41.5438957214355469 -42.5068244934082031 8.08877086639404297
41.20001220703125 -44.1954193115234375 0.0506572239100933075
43.3840141296386719 -43.1100120544433594 0.0492584630846977234
43.6513290405273438 -43.6716461181640625 3.16615796089172363
40.6666221618652344 -41.6261711120605469 3.50012707710266113
37.9278526306152344 -39.8246955871582031 3.61885643005371094
42.8646469116210938 -35.5504608154296875 1.48179221153259277
45.5176048278808594 -44.5496978759765625 5.40047979354858398
43.9060783386230469 -44.5644645690917969 5.45075130462646484
41.040191650390625 -37.6914939880371094 5.39233207702636719
38.0454978942871094 -36.0631523132324219 3.75919342041015625
38.7223320007324219 -42.0277938842773438 0.0511855930089950562
43.4604034423828125 -38.8428573608398438 1.33959543704986572
38.6441612243652344 -36.4637527465820312 0.55532991886138916
43.6237030029296875 -34.0037803649902344 2.69856524467468262
43.505035400390625 -40.0207786560058594 6.12191867828369141
37.4479598999023438 -35.5405960083007812 0.0520719476044178009
42.2194137573242188 -41.6049690246582031 5.38637781143188477
37.489410400390625 -42.6716690063476562 6.43536520004272461
43.6419792175292969 -42.0811958312988281 7.95784664154052734
39.0645980834960938 -42.4553070068359375 4.94283580780029297
39.7895736694335938 -42.2685394287109375 1.1399160623550415
40.5144615173339844 -40.279937744140625 2.74999761581420898
43.6391716003417969 -38.4862899780273438 4.41526031494140625
45.161468505859375 -42.3513298034667969 2.75116252899169922
39.9365005493164062 -34.3846969604492188 4.17958498001098633
41.6677780151367188 -41.4637947082519531 2.75060510635375977
42.8261528015136719 -42.6627235412597656 4.04830837249755859
37.5438804626464844 -37.4459228515625 3.46529436111450195
43.6368904113769531 -36.6232337951660156 1.71050310134887695
39.8781700134277344 -40.006805419921875 6.58108377456665039
41.4060249328613281 -33.4441108703613281 3.83435702323913574
37.5504837036132812 -41.3078460693359375 1.30140590667724609
37.6207275390625 -35.1613540649414062 2.70016169548034668
39.3427619934082031 -37.642974853515625 6.70073699951171875
43.0424041748046875 -33.4447059631347656 6.53527593612670898
42.8818511962890625 -37.6729240417480469 3.40113043785095215
