ply
format ascii 1.0
element vertex 15
comment vertices
property float x
property float y
property float z
end_header
39.2826766967773438 -41.3815078735351562 1.36888885498046875
39.2826461791992188 -46.94073486328125 1.42481732368469238
42.6072235107421875 -43.4272193908691406 1.28448367118835449
34.0875511169433594 -44.6270675659179688 1.34649300575256348
32.0625534057617188 -41.0786018371582031 1.40984964370727539
41.4379653930664062 -41.2764244079589844 1.34432029724121094
33.4677009582519531 -42.6626510620117188 1.45360255241394043
42.635284423828125 -44.304412841796875 1.42478096485137939
39.2801399230957031 -43.3240814208984375 1.24175441265106201
39.2673263549804688 -44.5914840698242188 1.39136815071105957
42.6110267639160156 -46.6335601806640625 1.32721912860870361
40.0393104553222656 -40.1013565063476562 1.25966620445251465
34.2314453125 -43.2549705505371094 1.40799093246459961
42.584991455078125 -45.9281234741210938 1.31271827220916748
39.206512451171875 -42.0412826538085938 1.31293201446533203
