ply
format ascii 1.0
element vertex 10
comment vertices
property float x
property float y
property float z
end_header
38.9207992553710938 -42.4538078308105469 2.72151970863342285
40.3294906616210938 -33.2591361999511719 1.25684559345245361
37.4760246276855469 -42.4502983093261719 1.50191760063171387
42.6563301086425781 -40.8892173767089844 2.71018433570861816
49.00177001953125 -37.5359420776367188 1.40772354602813721
45.8020362854003906 -33.3507194519042969 1.40453624725341797
49.0153961181640625 -33.23876953125 1.37428247928619385
41.1685523986816406 -44.1537361145019531 1.39009428024291992
37.4875984191894531 -35.3705635070800781 1.26347875595092773
40.8459129333496094 -43.0120925903320312 1.27537333965301514
