ply
format ascii 1.0
element vertex 400
comment vertices
property float x
property float y
property float z
end_header
42.2949981689453125 -38.9399986267089844 8.11499977111816406
38.6650009155273438 -40.7849960327148438 8.11499977111816406
38.6599960327148438 -37.2350006103515625 8.11499977111816406
39.8273658752441406 -38.4957160949707031 6.48000001907348633
39.832366943359375 -39.4349441528320312 6.48000001907348633
41.0026321411132812 -39.4280738830566406 6.48000001907348633
42.9599990844726562 -42.5973663330078125 6.52999973297119141
42.2949981689453125 -38.9399986267089844 5.42499971389770508
38.6650009155273438 -40.7849960327148438 5.42499971389770508
38.6599960327148438 -37.2350006103515625 5.42499971389770508
44.9000015258789062 -41.1599998474121094 5.42499971389770508
40.5399971008300781 -34.4500007629394531 5.42499971389770508
41.8499984741210938 -43.6099967956542969 5.42499971389770508
42.2949981689453125 -37.9626312255859375 6.76749992370605469
42.2949981689453125 -39.9173660278320312 6.76749992370605469
41.0026321411132812 -38.9399986267089844 6.76749992370605469
39.832366943359375 -40.7850074768066406 6.76749992370605469
39.8273658752441406 -37.2350006103515625 6.76749992370605469
38.6599998474121094 -38.9699974060058594 6.76749992370605469
44.8999977111816406 -39.7226295471191406 5.91750001907348633
44.5926322937011719 -41.80999755859375 5.91750001907348633
44.0949974060058594 -41.0173683166503906 5.91750001907348633
40.5400009155273438 -33.4026298522949219 5.96750020980834961
43.5873680114746094 -34.4500007629394531 5.96750020980834961
37.4926300048828125 -34.4500007629394531 5.96750020980834961
46.1973686218261719 -42.20733642578125 5.91750001907348633
41.8499984741210938 -44.6173667907714844 5.91750001907348633
37.5026321411132812 -43.6100006103515625 5.91750001907348633
43.602630615234375 -40.3699989318847656 5.91750001907348633
38.6643409729003906 -35.5026321411132812 6.76749992370605469
41.6986846923828125 -35.5026321411132812 6.76749992370605469
43.5923652648925781 -36.7412986755371094 6.76749992370605469
43.5923652648925781 -38.9474983215332031 6.76749992370605469
43.5923652648925781 -40.4689559936523438 6.32461833953857422
43.5923652648925781 -41.7872352600097656 6.32837486267089844
38.6730918884277344 -42.5973663330078125 6.76749992370605469
41.7061843872070312 -42.5973663330078125 6.76749992370605469
37.4951324462890625 -37.239990234375 6.76749992370605469
37.4976310729980469 -40.7800025939941406 6.76749992370605469
38.6918220520019531 -42.5787506103515625 6.94999980926513672
38.6171417236328125 -35.5212478637695312 6.94999980926513672
41.6992874145507812 -35.5024986267089844 6.75
0 0 0
0 0 0
0 0 0
0 0 0
0 0 0
0 0 0
0 0 0
0 0 0
0 0 0
0 0 0
0 0 0
0 0 0
0 0 0
0 0 0
0 0 0
0 0 0
0 0 0
0 0 0
0 0 0
0 0 0
0 0 0
0 0 0
0 0 0
0 0 0
0 0 0
0 0 0
0 0 0
0 0 0
0 0 0
0 0 0
0 0 0
0 0 0
0 0 0
0 0 0
0 0 0
0 0 0
0 0 0
0 0 0
0 0 0
0 0 0
0 0 0
0 0 0
0 0 0
0 0 0
0 0 0
0 0 0
0 0 0
0 0 0
0 0 0
0 0 0
0 0 0
0 0 0
0 0 0
0 0 0
0 0 0
0 0 0
0 0 0
0 0 0
0 0 0
0 0 0
0 0 0
0 0 0
0 0 0
0 0 0
0 0 0
0 0 0
0 0 0
0 0 0
0 0 0
0 0 0
0 0 0
0 0 0
0 0 0
0 0 0
0 0 0
0 0 0
0 0 0
0 0 0
0 0 0
0 0 0
0 0 0
0 0 0
0 0 0
0 0 0
0 0 0
0 0 0
0 0 0
0 0 0
0 0 0
0 0 0
0 0 0
0 0 0
0 0 0
0 0 0
0 0 0
0 0 0
0 0 0
0 0 0
0 0 0
0 0 0
0 0 0
0 0 0
0 0 0
0 0 0
0 0 0
0 0 0
0 0 0
0 0 0
0 0 0
0 0 0
0 0 0
0 0 0
0 0 0
0 0 0
0 0 0
0 0 0
0 0 0
0 0 0
0 0 0
0 0 0
0 0 0
0 0 0
0 0 0
0 0 0
0 0 0
0 0 0
0 0 0
0 0 0
0 0 0
0 0 0
0 0 0
0 0 0
0 0 0
0 0 0
0 0 0
0 0 0
0 0 0
0 0 0
0 0 0
0 0 0
0 0 0
0 0 0
0 0 0
0 0 0
0 0 0
0 0 0
0 0 0
0 0 0
0 0 0
0 0 0
0 0 0
0 0 0
0 0 0
0 0 0
0 0 0
0 0 0
0 0 0
0 0 0
0 0 0
0 0 0
0 0 0
0 0 0
0 0 0
0 0 0
0 0 0
0 0 0
0 0 0
0 0 0
0 0 0
0 0 0
0 0 0
0 0 0
0 0 0
0 0 0
0 0 0
0 0 0
0 0 0
0 0 0
0 0 0
0 0 0
0 0 0
0 0 0
0 0 0
0 0 0
0 0 0
0 0 0
0 0 0
0 0 0
0 0 0
0 0 0
0 0 0
0 0 0
0 0 0
0 0 0
0 0 0
0 0 0
0 0 0
0 0 0
0 0 0
0 0 0
0 0 0
0 0 0
0 0 0
0 0 0
0 0 0
0 0 0
0 0 0
0 0 0
0 0 0
0 0 0
0 0 0
0 0 0
0 0 0
0 0 0
0 0 0
0 0 0
0 0 0
0 0 0
0 0 0
0 0 0
0 0 0
0 0 0
0 0 0
0 0 0
0 0 0
0 0 0
0 0 0
0 0 0
0 0 0
0 0 0
0 0 0
0 0 0
0 0 0
0 0 0
0 0 0
0 0 0
0 0 0
0 0 0
0 0 0
0 0 0
0 0 0
0 0 0
0 0 0
0 0 0
0 0 0
0 0 0
0 0 0
0 0 0
0 0 0
0 0 0
0 0 0
0 0 0
0 0 0
0 0 0
0 0 0
0 0 0
0 0 0
0 0 0
0 0 0
0 0 0
0 0 0
0 0 0
0 0 0
0 0 0
0 0 0
0 0 0
0 0 0
0 0 0
0 0 0
0 0 0
0 0 0
0 0 0
0 0 0
0 0 0
0 0 0
0 0 0
0 0 0
0 0 0
0 0 0
0 0 0
0 0 0
0 0 0
0 0 0
0 0 0
0 0 0
0 0 0
0 0 0
0 0 0
0 0 0
0 0 0
0 0 0
0 0 0
0 0 0
0 0 0
0 0 0
0 0 0
0 0 0
0 0 0
0 0 0
0 0 0
0 0 0
0 0 0
0 0 0
0 0 0
0 0 0
0 0 0
0 0 0
0 0 0
0 0 0
0 0 0
0 0 0
0 0 0
0 0 0
0 0 0
0 0 0
0 0 0
0 0 0
0 0 0
0 0 0
0 0 0
0 0 0
0 0 0
0 0 0
0 0 0
0 0 0
0 0 0
0 0 0
0 0 0
0 0 0
0 0 0
0 0 0
0 0 0
0 0 0
0 0 0
0 0 0
0 0 0
0 0 0
0 0 0
0 0 0
0 0 0
0 0 0
0 0 0
0 0 0
0 0 0
0 0 0
0 0 0
0 0 0
0 0 0
0 0 0
0 0 0
0 0 0
0 0 0
0 0 0
0 0 0
0 0 0
0 0 0
0 0 0
0 0 0
