ply
format ascii 1.0
element vertex 256
comment vertices
property float x
property float y
property float z
end_header
49.4597854614257812 -41.2838973999023438 0.542592108249664307
52.4948844909667969 -37.6631393432617188 2.68377828598022461
47.4763870239257812 -37.6608543395996094 2.63808870315551758
52.5593452453613281 -43.5069198608398438 2.6615147590637207
47.5567703247070312 -43.6587905883789062 2.68183302879333496
50.0336494445800781 -37.5646858215332031 0.0805477946996688843
52.6549835205078125 -39.9466934204101562 0.0201292131096124649
51.4545440673828125 -40.644744873046875 2.68953371047973633
47.493377685546875 -39.084747314453125 0.0507732070982456207
51.1783370971679688 -43.7222785949707031 0.070928134024143219
47.5341415405273438 -40.563690185546875 2.68960976600646973
48.1141548156738281 -43.5833282470703125 0.0501233302056789398
49.9951858520507812 -38.4633407592773438 2.68955874443054199
50.0569572448730469 -42.8045768737792969 2.6896359920501709
52.4517250061035156 -37.5650978088378906 0.259849697351455688
52.559814453125 -42.0249252319335938 0.900497376918792725
47.4040374755859375 -41.7438697814941406 0.877105951309204102
50.5544586181640625 -39.5446701049804688 0.0507712997496128082
49.4592857360839844 -40.324462890625 2.31991481781005859
52.6063880920410156 -39.3441734313964844 1.83908724784851074
48.1926765441894531 -37.5651664733886719 0.880074560642242432
49.7187767028808594 -43.6601905822753906 1.13666117191314697
51.1546707153320312 -41.2452125549316406 0.0656514987349510193
51.0548324584960938 -37.6601104736328125 1.50082957744598389
48.4556999206542969 -42.1035308837890625 2.68946123123168945
48.4145774841308594 -39.0654716491699219 2.68935894966125488
49.4745292663574219 -38.9470977783203125 1.18102622032165527
52.6548233032226562 -41.8646583557128906 2.70621538162231445
52.5534095764160156 -43.659576416015625 1.03985190391540527
48.1713829040527344 -40.3046875 0.861694216728210449
51.153564453125 -43.7353477478027344 1.85992038249969482
50.1154251098632812 -42.5841140747070312 0.0505213886499404907
47.3588905334472656 -38.7896728515625 1.62240159511566162
51.4548110961914062 -38.7244300842285156 2.68962383270263672
49.4622459411621094 -37.5652236938476562 1.64018356800079346
48.0152130126953125 -43.1280479431152344 1.42000746726989746
52.5591545104980469 -40.7851982116699219 1.7614130973815918
48.4741363525390625 -42.2022666931152344 0.0500664226710796356
48.9536895751953125 -43.6592292785644531 2.44038605690002441
51.5739326477050781 -38.6574821472167969 0.471118807792663574
49.1159515380859375 -39.6678962707519531 0.0500790029764175415
51.3137283325195312 -42.1438827514648438 2.68945479393005371
50.1535835266113281 -41.40618896484375 2.68961882591247559
48.896270751953125 -38.3627204895019531 0.0507901348173618317
48.1751480102539062 -41.2228012084960938 1.7803570032119751
52.62451171875 -38.0633506774902344 1.43951416015625
50.5556907653808594 -39.7240829467773438 2.68943071365356445
51.696929931640625 -42.4430809020996094 0.0499378442764282227
48.8764457702636719 -37.8804969787597656 2.68955278396606445
47.3984642028808594 -42.1583518981933594 2.04235601425170898
49.5619354248046875 -40.1854019165039062 1.10078072547912598
49.4492721557617188 -41.5456695556640625 1.71984148025512695
52.4356040954589844 -41.1647567749023438 0.0657247602939605713
49.2911338806152344 -43.5229454040527344 0.0497643016278743744
51.2889862060546875 -37.5643692016601562 0.116102173924446106
52.6553573608398438 -38.7837982177734375 0.0789730101823806763
51.6759262084960938 -40.3005714416503906 0.481775611639022827
48.3753509521484375 -38.2854232788085938 1.74138498306274414
52.4730911254882812 -40.085113525390625 2.68962860107421875
52.5593681335449219 -42.6255989074707031 1.87888538837432861
50.8157196044921875 -37.659912109375 2.59995484352111816
47.4613151550292969 -42.6865348815917969 0.220319733023643494
47.4605636596679688 -40.0044326782226562 1.72009861469268799
50.2519073486328125 -40.6225090026855469 0.0500622466206550598
47.4731216430664062 -40.5752143859863281 0.0615642480552196503
52.4969635009765625 -43.1902885437011719 0.0500766001641750336
47.364837646484375 -37.6224555969238281 1.56019806861877441
50.5739555358886719 -38.4848365783691406 0.0509780831634998322
48.6744422912597656 -41.0053558349609375 2.68944692611694336
50.1953849792480469 -38.179962158203125 1.1183696985244751
47.3654060363769531 -38.0958824157714844 0.49977836012840271
51.5337867736816406 -43.2228775024414062 2.68976020812988281
48.4352264404296875 -41.4010047912597656 0.719776332378387451
49.4730758666992188 -42.7868995666503906 1.65975034236907959
47.4606285095214844 -39.5232810974121094 2.6600639820098877
52.55682373046875 -38.7043228149414062 2.68342161178588867
49.4592666625976562 -39.223968505859375 2.24007892608642578
50.0365371704101562 -43.6587486267089844 2.10264444351196289
52.6497840881347656 -39.9180526733398438 1.01931262016296387
48.6943626403808594 -43.659515380859375 0.939509332180023193
50.7164535522460938 -43.6736106872558594 0.979036509990692139
48.4773178100585938 -40.0471725463867188 2.68971872329711914
48.6552009582519531 -40.5300216674804688 0.0501771681010723114
51.8154640197753906 -37.8635482788085938 0.960296809673309326
47.4606666564941406 -40.84417724609375 1.20071291923522949
49.6947250366210938 -38.8847465515136719 0.0500342287123203278
49.4593391418457031 -42.06494140625 2.64137554168701172
47.6755638122558594 -41.5045204162597656 2.68944406509399414
50.2748184204101562 -41.6051712036132812 0.0506906062364578247
50.2350959777832031 -43.5668296813964844 0.0500333718955516815
47.4606132507324219 -39.6642875671386719 0.839927554130554199
48.8389205932617188 -40.5742378234863281 1.61898887157440186
49.2133636474609375 -37.8709869384765625 0.778216540813446045
47.7708015441894531 -41.5205116271972656 0.0497300177812576294
47.7551460266113281 -42.7248649597167969 2.6895143985748291
51.6155624389648438 -39.7255859375 2.68960666656494141
51.5349617004394531 -39.4843788146972656 0.0506836771965026855
47.5338783264160156 -38.5843544006347656 2.68914222717285156
48.0947074890136719 -39.8038444519042969 0.0508316941559314728
52.6256027221679688 -38.9042015075683594 1.04151058197021484
51.7744865417480469 -37.6601066589355469 2.06052184104919434
49.4495353698730469 -42.824432373046875 0.618023276329040527
52.1426773071289062 -43.6744041442871094 1.88028371334075928
52.5135536193847656 -40.9856224060058594 2.68963217735290527
49.377349853515625 -42.087188720703125 0.0500645078718662262
51.5941200256347656 -43.7353706359863281 0.900694727897644043
49.4591026306152344 -38.3873672485351562 1.96004843711853027
51.8052444458007812 -41.6635665893554688 0.485994189977645874
52.5593795776367188 -41.6636772155761719 1.76005756855010986
50.7351303100585938 -43.5832977294921875 2.68968105316162109
48.9766502380371094 -42.8047523498535156 2.68961763381958008
49.6949462890625 -37.6601371765136719 2.47928643226623535
52.5515556335449219 -42.2705726623535156 0.0502865053713321686
52.2558441162109375 -42.665191650390625 2.68972086906433105
52.5610122680664062 -41.0051422119140625 0.899637222290039062
48.036224365234375 -38.3859748840332031 0.0498878918588161469
50.9155616760253906 -42.9068222045898438 0.0505169853568077087
47.3960533142089844 -42.564300537109375 1.26061558723449707
50.2155952453613281 -40.5039176940917969 2.68943691253662109
48.3935127258300781 -37.5657157897949219 0.0608815997838973999
50.3150253295898438 -37.7290611267089844 1.89944159984588623
48.15325927734375 -37.56524658203125 2.11951518058776855
48.1149673461914062 -43.6592063903808594 2.05993390083312988
51.7551193237304688 -41.4244804382324219 2.68953299522399902
50.9554405212402344 -38.0195808410644531 0.720190107822418213
50.9558563232421875 -42.0843238830566406 0.0657297596335411072
52.5597038269042969 -42.8647613525390625 0.798957884311676025
48.5160140991210938 -39.1044273376464844 0.0507918857038021088
47.3652763366699219 -41.1996345520019531 1.92205953598022461
47.4602890014648438 -43.1834373474121094 2.02157211303710938
50.9748039245605469 -40.2647895812988281 0.0658382922410964966
49.1751861572265625 -38.6247634887695312 2.68963932991027832
47.460601806640625 -38.8245925903320312 0.817400574684143066
49.0958404541015625 -43.6594581604003906 1.64015984535217285
48.9153633117675781 -40.7555122375488281 0.780116140842437744
48.6774864196777344 -43.0240516662597656 0.0506429076194763184
48.8544998168945312 -41.4236602783203125 0.0503625795245170593
49.8556365966796875 -39.9238662719726562 0.0506269261240959167
50.9759864807128906 -41.3635292053222656 2.68951964378356934
48.1544876098632812 -40.5409278869628906 2.17881155014038086
50.5356407165527344 -42.1843681335449219 2.689544677734375
50.7142410278320312 -38.9435844421386719 2.68946981430053711
49.4593315124511719 -41.1039695739746094 2.54057431221008301
49.7762298583984375 -40.7451133728027344 1.76121771335601807
49.5737876892089844 -39.5927238464355469 1.57963299751281738
48.0557174682617188 -43.1284675598144531 0.659635961055755615
48.1148681640625 -38.0636405944824219 2.68960976600646973
52.2862625122070312 -38.2656402587890625 0.489975512027740479
49.7732467651367188 -39.7450599670410156 2.68961882591247559
48.6292648315429688 -37.5651893615722656 1.53674697875976562
51.9339752197265625 -43.6743812561035156 0.162027835845947266
48.3155975341796875 -43.2248191833496094 2.6895606517791748
51.8761253356933594 -38.1042938232421875 2.68937253952026367
48.3931808471679688 -38.2817535400390625 0.80096125602722168
50.8942642211914062 -42.8431739807128906 2.68971586227416992
47.7952957153320312 -38.2833251953125 1.28044772148132324
49.75726318359375 -38.1804275512695312 0.381675750017166138
49.653900146484375 -43.4270401000976562 2.68977546691894531
49.4404754638671875 -39.5444755554199219 0.700424432754516602
52.6552810668945312 -38.5819664001464844 1.95953953266143799
49.2730522155761719 -37.7455520629882812 0.0502516627311706543
52.4822463989257812 -37.5646324157714844 1.96008169651031494
52.655120849609375 -39.3779563903808594 0.48192945122718811
47.3651161193847656 -38.18365478515625 2.12088203430175781
52.5596122741699219 -40.0453338623046875 1.95905971527099609
49.7754249572753906 -40.6375350952148438 0.579028189182281494
52.2578582763671875 -39.3452606201171875 2.68949675559997559
48.9143333435058594 -41.2314567565917969 2.04050445556640625
48.9547348022460938 -39.5035133361816406 2.68948602676391602
49.4594192504882812 -40.9461593627929688 1.15905976295471191
52.1936531066894531 -40.4848403930664062 0.0656136274337768555
52.4515304565429688 -37.5643768310546875 1.00065064430236816
51.6153182983398438 -40.9846229553222656 0.500299453735351562
48.0150680541992188 -40.5470504760742188 1.48064243793487549
49.4593429565429688 -38.2632522583007812 1.27958297729492188
47.4136276245117188 -39.3838653564453125 1.99999666213989258
51.0137939453125 -39.0495376586914062 0.0500784367322921753
50.0708847045898438 -37.5656166076660156 0.877382040023803711
49.1952018737792969 -40.1767349243164062 0.47922089695930481
52.0106277465820312 -38.9492950439453125 0.0500662624835968018
51.6143951416015625 -43.107269287109375 0.0500640049576759338
50.8942680358886719 -38.3040771484375 2.68930387496948242
47.4603767395019531 -39.9234695434570312 0.157711729407310486
52.5591697692871094 -43.18438720703125 1.54036235809326172
50.3539657592773438 -43.6586570739746094 1.5200730562210083
49.0802879333496094 -37.5652732849121094 2.16251969337463379
50.905731201171875 -38.6553726196289062 0.618269383907318115
47.4616241455078125 -42.0456657409667969 0.301000773906707764
47.9954414367675781 -40.9442367553710938 0.837118864059448242
51.0544700622558594 -40.143768310546875 2.68950080871582031
50.0945854187011719 -39.1046867370605469 2.68961143493652344
47.4609031677246094 -43.1441993713378906 0.999765872955322266
49.3542976379394531 -40.7551231384277344 0.115177743136882782
48.0546035766601562 -42.8446311950683594 0.0509068556129932404
47.460906982421875 -43.3073539733886719 0.360985159873962402
52.6547775268554688 -41.7158432006835938 0.34322020411491394
48.9338340759277344 -41.5831489562988281 2.68952798843383789
50.3688278198242188 -38.0263748168945312 0.440695911645889282
52.5596122741699219 -40.3436698913574219 0.560284912586212158
47.4604949951171875 -40.44549560546875 0.678976535797119141
50.7348365783691406 -38.1878280639648438 1.79985952377319336
49.7784843444824219 -43.1259956359863281 0.0504275709390640259
48.0157699584960938 -40.9651298522949219 2.68951892852783203
47.39544677734375 -41.7038002014160156 1.50013828277587891
49.5607872009277344 -42.8681259155273438 2.31938886642456055
52.0551910400390625 -42.0254898071289062 2.68966436386108398
51.6759223937988281 -43.6990623474121094 2.31992697715759277
48.696258544921875 -43.659454345703125 0.238614886999130249
51.05926513671875 -40.7222976684570312 0.498151838779449463
47.5538749694824219 -42.1447792053222656 2.6898200511932373
47.5525245666503906 -37.5643272399902344 0.979882419109344482
47.9972877502441406 -37.5651435852050781 1.46010053157806396
48.0939750671386719 -43.6082305908203125 1.04084217548370361
47.4742660522460938 -40.575103759765625 1.93906426429748535
49.2352333068847656 -42.7646903991699219 0.0507752299308776855
52.0760231018066406 -40.5627479553222656 2.68951559066772461
49.4604034423828125 -38.7049598693847656 0.58012235164642334
52.1183662414550781 -39.662994384765625 0.0500226393342018127
48.5950126647949219 -38.4455299377441406 2.68934488296508789
49.5679588317871094 -41.57470703125 1.06453919410705566
51.1991386413574219 -38.4342689514160156 0.0498052798211574554
51.1551589965820312 -37.6601524353027344 2.09961724281311035
49.8117256164550781 -41.1446800231933594 0.0500353910028934479
48.7747154235839844 -40.5752601623535156 2.27976584434509277
50.7760467529296875 -40.7237129211425781 2.68951129913330078
48.2769355773925781 -41.5214157104492188 2.68936729431152344
51.6347503662109375 -43.73565673828125 1.49997568130493164
48.6950721740722656 -41.2318077087402344 1.48027205467224121
47.395843505859375 -39.3663368225097656 1.35752272605895996
52.0346794128417969 -37.6600341796875 1.51958465576171875
51.5138626098632812 -38.0238494873046875 0.467035979032516479
49.9748306274414062 -38.1802406311035156 1.69884121417999268
49.9455604553222656 -41.3077239990234375 1.48245418071746826
50.19482421875 -43.6593284606933594 0.640246987342834473
51.4750595092773438 -37.6627540588378906 2.68317532539367676
52.5595741271972656 -43.1855354309082031 2.15900206565856934
52.5593490600585938 -40.4637565612792969 1.25956833362579346
49.0949630737304688 -38.9630279541015625 0.0507530979812145233
48.1161651611328125 -40.5751228332519531 0.298693358898162842
51.8790664672851562 -37.5649032592773438 0.053833499550819397
49.5610694885253906 -43.4651107788085938 0.599051415920257568
52.5598335266113281 -42.5021400451660156 1.30014443397521973
50.7390556335449219 -37.7860298156738281 0.0497724078595638275
52.65533447265625 -38.1638298034667969 2.42035722732543945
50.4972267150878906 -37.5647430419921875 1.34050953388214111
48.0350418090820312 -39.64483642578125 2.6896369457244873
49.4596633911132812 -40.2323722839355469 1.67673897743225098
52.5596199035644531 -42.1061439514160156 2.18057656288146973
51.074462890625 -39.4049110412597656 2.68941307067871094
51.2890167236328125 -37.5648193359375 0.876465678215026855
51.854278564453125 -38.3633651733398438 0.0504091270267963409
47.3634834289550781 -38.5152168273925781 0.00558182457461953163
51.1748123168945312 -41.7635269165039062 0.500381410121917725
50.31402587890625 -39.00469970703125 0.0507072582840919495
50.2166862487792969 -37.8047828674316406 2.68987751007080078
49.4595184326171875 -43.60272216796875 2.16294217109680176
