ply
format ascii 1.0
element vertex 400
comment vertices
property float x
property float y
property float z
end_header
42.6099967956542969 -40.8899993896484375 2.71499991416931152
45.7599983215332031 -35.3950004577636719 2.71499991416931152
40.3249969482421875 -35.3999786376953125 2.71499991416931152
41.3100013732910156 -43.1049995422363281 2.71499991416931152
40.5099983215332031 -43.1049995422363281 2.71499991416931152
38.7999839782714844 -42.3599967956542969 2.71499991416931152
39.6599998474121094 -39.0499992370605469 2.71499991416931152
48.8650016784667969 -35.3899993896484375 2.71499991416931152
41.80999755859375 -40.0147247314453125 1.07999992370605469
42.3499984741210938 -37.5349998474121094 1.07999992370605469
43.1499977111816406 -36.7299995422363281 1.07999992370605469
40.0973663330078125 -41.5136947631835938 1.14649999141693115
42.6433296203613281 -44.207366943359375 1.07999992370605469
48.3600006103515625 -34.680389404296875 1.1464998722076416
41.8126296997070312 -41.5705413818359375 1.14649999141693115
42.6099967956542969 -40.8899993896484375 0.0249999985098838806
45.7599983215332031 -35.3950004577636719 0.0249999985098838806
40.3249969482421875 -35.3999786376953125 0.0249999985098838806
41.3100013732910156 -43.1049995422363281 0.0249999985098838806
40.5099983215332031 -43.1049995422363281 0.0249999985098838806
38.7999839782714844 -42.3599967956542969 0.0249999985098838806
39.6599998474121094 -39.0499992370605469 0.0249999985098838806
48.8650016784667969 -35.3899993896484375 0.0249999985098838806
43.4073677062988281 -40.8899993896484375 1.3674999475479126
42.6100006103515625 -44.207366943359375 1.3674999475479126
45.760009765625 -33.3026313781738281 1.3674999475479126
45.7599868774414062 -37.4873695373535156 1.3674999475479126
40.3249893188476562 -33.3126335144042969 1.3674999475479126
43.1499977111816406 -35.407501220703125 1.3674999475479126
37.5126304626464844 -35.4000015258789062 1.3674999475479126
41.3099479675292969 -42.0126304626464844 1.3674999475479126
41.3100509643554688 -44.1973686218261719 1.3674999475479126
40.5100860595703125 -42.0126304626464844 1.3674999475479126
40.80999755859375 -43.095001220703125 1.3674999475479126
40.5099105834960938 -44.1973686218261719 1.3674999475479126
40.2126312255859375 -43.1150016784667969 1.3674999475479126
40.0973663330078125 -42.3599967956542969 1.3674999475479126
38.7999992370605469 -44.1173667907714844 1.3674999475479126
37.50762939453125 -42.3600082397460938 1.3674999475479126
37.5126304626464844 -39.0499992370605469 1.3674999475479126
48.8649978637695312 -33.292633056640625 1.3674999475479126
49.3673667907714844 -35.3899993896484375 1.3674999475479126
48.8650016784667969 -37.48736572265625 1.3674999475479126
48.3600006103515625 -35.3875007629394531 1.3674999475479126
43.2700004577636719 -37.5726318359375 1.3674999475479126
41.80999755859375 -43.1106719970703125 1.3674999475479126
41.8126296997070312 -41.3025245666503906 1.3674999475479126
39.6649971008300781 -37.5 1.3674999475479126
42.4775009155273438 -37.5349998474121094 1.3674999475479126
41.80999755859375 -39.0887489318847656 1.3674999475479126
38.8093414306640625 -40.5999984741210938 1.3674999475479126
40.9436836242675781 -40.5973663330078125 1.3674999475479126
37.5225028991699219 -39.1152610778808594 1.54999995231628418
37.5184097290039062 -42.0400505065917969 1.54999995231628418
37.5224952697753906 -35.3419914245605469 1.54999995231628418
49.3574981689453125 -35.3317642211914062 1.55000007152557373
0 0 0
0 0 0
0 0 0
0 0 0
0 0 0
0 0 0
0 0 0
0 0 0
0 0 0
0 0 0
0 0 0
0 0 0
0 0 0
0 0 0
0 0 0
0 0 0
0 0 0
0 0 0
0 0 0
0 0 0
0 0 0
0 0 0
0 0 0
0 0 0
0 0 0
0 0 0
0 0 0
0 0 0
0 0 0
0 0 0
0 0 0
0 0 0
0 0 0
0 0 0
0 0 0
0 0 0
0 0 0
0 0 0
0 0 0
0 0 0
0 0 0
0 0 0
0 0 0
0 0 0
0 0 0
0 0 0
0 0 0
0 0 0
0 0 0
0 0 0
0 0 0
0 0 0
0 0 0
0 0 0
0 0 0
0 0 0
0 0 0
0 0 0
0 0 0
0 0 0
0 0 0
0 0 0
0 0 0
0 0 0
0 0 0
0 0 0
0 0 0
0 0 0
0 0 0
0 0 0
0 0 0
0 0 0
0 0 0
0 0 0
0 0 0
0 0 0
0 0 0
0 0 0
0 0 0
0 0 0
0 0 0
0 0 0
0 0 0
0 0 0
0 0 0
0 0 0
0 0 0
0 0 0
0 0 0
0 0 0
0 0 0
0 0 0
0 0 0
0 0 0
0 0 0
0 0 0
0 0 0
0 0 0
0 0 0
0 0 0
0 0 0
0 0 0
0 0 0
0 0 0
0 0 0
0 0 0
0 0 0
0 0 0
0 0 0
0 0 0
0 0 0
0 0 0
0 0 0
0 0 0
0 0 0
0 0 0
0 0 0
0 0 0
0 0 0
0 0 0
0 0 0
0 0 0
0 0 0
0 0 0
0 0 0
0 0 0
0 0 0
0 0 0
0 0 0
0 0 0
0 0 0
0 0 0
0 0 0
0 0 0
0 0 0
0 0 0
0 0 0
0 0 0
0 0 0
0 0 0
0 0 0
0 0 0
0 0 0
0 0 0
0 0 0
0 0 0
0 0 0
0 0 0
0 0 0
0 0 0
0 0 0
0 0 0
0 0 0
0 0 0
0 0 0
0 0 0
0 0 0
0 0 0
0 0 0
0 0 0
0 0 0
0 0 0
0 0 0
0 0 0
0 0 0
0 0 0
0 0 0
0 0 0
0 0 0
0 0 0
0 0 0
0 0 0
0 0 0
0 0 0
0 0 0
0 0 0
0 0 0
0 0 0
0 0 0
0 0 0
0 0 0
0 0 0
0 0 0
0 0 0
0 0 0
0 0 0
0 0 0
0 0 0
0 0 0
0 0 0
0 0 0
0 0 0
0 0 0
0 0 0
0 0 0
0 0 0
0 0 0
0 0 0
0 0 0
0 0 0
0 0 0
0 0 0
0 0 0
0 0 0
0 0 0
0 0 0
0 0 0
0 0 0
0 0 0
0 0 0
0 0 0
0 0 0
0 0 0
0 0 0
0 0 0
0 0 0
0 0 0
0 0 0
0 0 0
0 0 0
0 0 0
0 0 0
0 0 0
0 0 0
0 0 0
0 0 0
0 0 0
0 0 0
0 0 0
0 0 0
0 0 0
0 0 0
0 0 0
0 0 0
0 0 0
0 0 0
0 0 0
0 0 0
0 0 0
0 0 0
0 0 0
0 0 0
0 0 0
0 0 0
0 0 0
0 0 0
0 0 0
0 0 0
0 0 0
0 0 0
0 0 0
0 0 0
0 0 0
0 0 0
0 0 0
0 0 0
0 0 0
0 0 0
0 0 0
0 0 0
0 0 0
0 0 0
0 0 0
0 0 0
0 0 0
0 0 0
0 0 0
0 0 0
0 0 0
0 0 0
0 0 0
0 0 0
0 0 0
0 0 0
0 0 0
0 0 0
0 0 0
0 0 0
0 0 0
0 0 0
0 0 0
0 0 0
0 0 0
0 0 0
0 0 0
0 0 0
0 0 0
0 0 0
0 0 0
0 0 0
0 0 0
0 0 0
0 0 0
0 0 0
0 0 0
0 0 0
0 0 0
0 0 0
0 0 0
0 0 0
0 0 0
0 0 0
0 0 0
0 0 0
0 0 0
0 0 0
0 0 0
0 0 0
0 0 0
0 0 0
0 0 0
0 0 0
0 0 0
0 0 0
0 0 0
0 0 0
0 0 0
0 0 0
0 0 0
0 0 0
0 0 0
0 0 0
0 0 0
0 0 0
0 0 0
0 0 0
0 0 0
0 0 0
0 0 0
0 0 0
0 0 0
0 0 0
0 0 0
0 0 0
0 0 0
0 0 0
0 0 0
0 0 0
0 0 0
0 0 0
0 0 0
0 0 0
0 0 0
0 0 0
