ply
format ascii 1.0
element vertex 243
comment vertices
property float x
property float y
property float z
end_header
40.2052383422851562 -45.0911216735839844 0.181975290179252625
32.3452568054199219 -30.3856544494628906 1.65319490432739258
43.6999092102050781 -33.4978141784667969 1.1586003303527832
32.5174026489257812 -40.0025787353515625 2.86154675483703613
43.4740028381347656 -51.672271728515625 0.208209216594696045
39.3829574584960938 -38.4887123107910156 3.02355051040649414
38.7071189880371094 -30.5222949981689453 2.77715063095092773
34.1188621520996094 -45.0889472961425781 0.445723265409469604
35.1893119812011719 -35.2108688354492188 0.222489893436431885
43.6076545715332031 -40.7634162902832031 1.10294830799102783
36.10699462890625 -40.9050140380859375 1.28106212615966797
39.4381141662597656 -34.4771194458007812 1.31135678291320801
43.7538185119628906 -36.9614334106445312 1.91323423385620117
39.83648681640625 -49.5008392333984375 -0.0626202747225761414
43.6762657165527344 -47.4469375610351562 0.172065287828445435
43.6039695739746094 -44.0465583801269531 2.99860620498657227
35.288116455078125 -30.28717041015625 0.995843350887298584
32.3751907348632812 -36.0107955932617188 1.89588189125061035
39.5506706237792969 -42.3265495300292969 2.99124407768249512
35.595733642578125 -37.9257354736328125 3.01549172401428223
35.7174453735351562 -32.6106414794921875 3.03725409507751465
32.2763214111328125 -41.9481048583984375 0.0474935472011566162
32.3261756896972656 -33.1740570068359375 0.0808855742216110229
41.8426895141601562 -33.3527297973632812 1.79056441783905029
41.6332206726074219 -37.8289642333984375 1.09792184829711914
33.4462776184082031 -38.1286392211914062 0.13022981584072113
37.6682701110839844 -37.4788818359375 0.194529414176940918
37.1370429992675781 -43.9905776977539062 0.110851950943470001
40.5981521606445312 -40.8130950927734375 0.0447591245174407959
37.5122642517089844 -35.4591445922851562 1.70741558074951172
41.96087646484375 -40.1384468078613281 3.0124359130859375
35.2133140563964844 -41.8449172973632812 1.91420662403106689
39.671783447265625 -31.4128036499023438 0.883039593696594238
42.6049537658691406 -43.4092254638671875 0.115223899483680725
40.8745651245117188 -36.0690116882324219 3.02849197387695312
32.7574653625488281 -33.1947593688964844 3.00976061820983887
36.8913841247558594 -33.1446685791015625 1.16215896606445312
37.527191162109375 -40.4355354309082031 1.63047623634338379
43.8841705322265625 -36.3031349182128906 0.575503766536712646
38.9306449890136719 -33.1609077453613281 3.05076432228088379
32.5424308776855469 -30.3432254791259766 1.00983953475952148
34.9031143188476562 -35.4078865051269531 3.02250409126281738
32.1241188049316406 -35.7950286865234375 1.14789009094238281
40.8944091796875 -51.811798095703125 0.0440452545881271362
34.5350227355957031 -32.5482444763183594 0.239209353923797607
34.8334465026855469 -30.3781223297119141 1.47931957244873047
41.1465873718261719 -47.2943229675292969 0.0416729487478733063
38.6500091552734375 -42.1096878051757812 0.204428434371948242
41.2822227478027344 -43.8669090270996094 1.4092555046081543
34.9573860168457031 -42.8845977783203125 0.239725053310394287
41.4140777587890625 -33.3525199890136719 1.27899718284606934
42.5010604858398438 -49.577484130859375 0.0395055636763572693
35.7001075744628906 -38.6184463500976562 0.327225983142852783
43.7492866516113281 -38.47760009765625 1.35566651821136475
43.6096878051757812 -34.5980644226074219 1.72604608535766602
43.6129684448242188 -41.7056312561035156 1.72311723232269287
34.1330070495605469 -40.3904609680175781 0.138024166226387024
37.4995269775390625 -30.7932186126708984 1.21691310405731201
38.6045112609863281 -39.7142562866210938 0.507165908813476562
41.5270347595214844 -35.6104087829589844 -0.0828387141227722168
33.2529258728027344 -41.8497543334960938 1.64632344245910645
43.6107215881347656 -45.2536468505859375 0.12635745108127594
38.9709968566894531 -47.2537002563476562 1.19638371467590332
33.1998939514160156 -38.0305328369140625 3.02991557121276855
41.8119888305664062 -37.913116455078125 1.74838078022003174
35.533843994140625 -39.9033203125 1.39859879016876221
37.7353363037109375 -35.3757362365722656 0.119710162281990051
41.7704658508300781 -41.9438095092773438 1.38777756690979004
39.604888916015625 -40.4184989929199219 1.68957185745239258
37.52069091796875 -37.5228843688964844 1.45010685920715332
40.5013542175292969 -42.9200248718261719 0.140201091766357422
38.306732177734375 -45.4627532958984375 -0.614018917083740234
36.7204132080078125 -30.8102226257324219 3.01540589332580566
32.5974388122558594 -43.9636917114257812 0.12982882559299469
32.354888916015625 -39.6811180114746094 1.33008837699890137
32.4976387023925781 -34.509674072265625 1.50996923446655273
35.0323638916015625 -36.9392890930175781 1.21069514751434326
43.7498550415039062 -39.4204177856445312 2.9109961986541748
32.3557624816894531 -31.68878173828125 1.30284357070922852
38.686737060546875 -32.5813179016113281 1.18001222610473633
37.0569877624511719 -39.1182212829589844 1.37953329086303711
41.6488914489746094 -39.5481910705566406 1.08909511566162109
39.5516166687011719 -43.9141464233398438 1.45860874652862549
36.2419509887695312 -35.7624359130859375 1.5208662748336792
40.4257774353027344 -33.4388465881347656 1.46258950233459473
33.287750244140625 -36.6375846862792969 1.44185817241668701
39.0995025634765625 -36.4369888305664062 3.10697436332702637
34.0153770446777344 -39.1294670104980469 1.42518258094787598
34.0170974731445312 -31.9336490631103516 2.9739234447479248
42.3818855285644531 -35.7337493896484375 1.59785604476928711
41.8274192810058594 -45.5744132995605469 0.0746881216764450073
43.6394882202148438 -42.5283432006835938 1.40586531162261963
33.9256248474121094 -30.9011783599853516 1.35717105865478516
33.7546005249023438 -34.0667877197265625 0.236900478601455688
36.0720787048339844 -31.6737213134765625 1.00262963771820068
36.1696510314941406 -34.2714271545410156 3.02468156814575195
37.5163993835449219 -32.3274154663085938 1.57023763656616211
40.224212646484375 -38.5837478637695312 0.577630162239074707
34.0712127685546875 -40.4959526062011719 3.01830959320068359
39.5379295349121094 -34.7098731994628906 2.67828726768493652
34.4773445129394531 -33.7569503784179688 2.99672627449035645
42.8628807067871094 -33.3597869873046875 1.42304813861846924
40.9002456665039062 -41.4100723266601562 3.0096132755279541
38.8160858154296875 -43.9122657775878906 0.492671221494674683
35.765289306640625 -44.8263816833496094 0.118764117360115051
42.8216743469238281 -34.8299102783203125 1.15205168724060059
34.9539527893066406 -41.515899658203125 1.25182223320007324
36.8514328002929688 -42.4609184265136719 0.325621515512466431
37.554962158203125 -40.6199913024902344 1.32870900630950928
39.3503608703613281 -30.3458309173583984 1.42084705829620361
33.9381561279296875 -36.6219940185546875 3.02652573585510254
33.9828681945800781 -35.174285888671875 1.59939980506896973
39.0480461120605469 -38.614166259765625 1.35354125499725342
35.5628929138183594 -33.6040077209472656 0.0882778465747833252
42.3202438354492188 -42.8654365539550781 2.80720806121826172
40.5738906860351562 -39.4371299743652344 3.04386711120605469
40.8190422058105469 -37.9191780090332031 1.48928952217102051
39.6596221923828125 -33.27838134765625 1.06141304969787598
33.2386054992675781 -34.6474075317382812 3.01755356788635254
40.4078750610351562 -35.7265052795410156 1.5325547456741333
36.2694053649902344 -36.5305213928222656 3.01798868179321289
37.69415283203125 -36.3334121704101562 1.51558458805084229
43.7444915771484375 -36.8585548400878906 1.38002705574035645
43.7353172302246094 -44.0043716430664062 1.34617424011230469
42.6254959106445312 -41.9330940246582031 0.0399102568626403809
37.4435043334960938 -38.9701728820800781 2.98683714866638184
39.2400856018066406 -35.9724464416503906 0.737528324127197266
43.146148681640625 -39.5516242980957031 0.515309572219848633
36.099151611328125 -30.3550777435302734 1.46355748176574707
39.6483421325683594 -41.6956443786621094 1.30514168739318848
41.1410446166992188 -50.1957206726074219 0.05831097811460495
43.3483047485351562 -33.3835563659667969 3.05875945091247559
38.394927978515625 -33.9090499877929688 0.0761136412620544434
33.42950439453125 -41.8350334167480469 1.05911707878112793
41.2152938842773438 -48.716217041015625 0.00318854302167892456
39.9540939331054688 -43.7001419067382812 3.01516246795654297
32.4270172119140625 -31.7766704559326172 1.6356968879699707
36.2585716247558594 -37.3349494934082031 -0.0049763023853302002
32.2935752868652344 -37.228607177734375 0.401091933250427246
41.4785919189453125 -44.2437591552734375 0.193632259964942932
32.3502922058105469 -41.083099365234375 1.33161699771881104
35.47003173828125 -39.902862548828125 1.20472216606140137
42.4902191162109375 -37.8171882629394531 1.33918559551239014
38.7469596862792969 -39.7162590026855469 3.02931976318359375
34.194000244140625 -36.2672233581542969 0.20727577805519104
43.7241592407226562 -37.5899887084960938 1.15599417686462402
36.5175743103027344 -34.8728370666503906 0.158359214663505554
42.4964179992675781 -48.1700439453125 0.0909313857555389404
32.3624610900878906 -33.1706581115722656 1.43419110774993896
36.1453971862792969 -40.9096145629882812 3.02069878578186035
33.3402976989746094 -32.1957550048828125 -0.116354495286941528
38.9094886779785156 -45.8661956787109375 1.41974711418151855
39.9425125122070312 -50.8235626220703125 0.069802507758140564
32.7262153625488281 -30.3536052703857422 1.39773237705230713
36.7894821166992188 -39.6557960510253906 0.460580527782440186
42.3905487060546875 -46.7703781127929688 0.0436795726418495178
42.0504875183105469 -51.1845054626464844 0.0710363313555717468
42.3298072814941406 -41.5220718383789062 3.01300477981567383
33.8483314514160156 -43.6510505676269531 0.184839636087417603
39.6226959228515625 -39.912628173828125 1.33834993839263916
42.3851737976074219 -40.8246994018554688 1.3687976598739624
33.6724014282226562 -30.4911384582519531 2.07803988456726074
43.5420799255371094 -50.3690834045410156 0.138955488801002502
40.1478309631347656 -46.4094314575195312 0.014924950897693634
43.6443710327148438 -48.9866943359375 0.140376120805740356
40.0307693481445312 -48.0125999450683594 0.0300540216267108917
43.8741378784179688 -42.85906982421875 0.0722856149077415466
40.5251922607421875 -37.871978759765625 3.0512847900390625
37.540130615234375 -41.8464813232421875 2.86781883239746094
43.334228515625 -38.2191848754882812 3.023162841796875
43.7438621520996094 -35.297515869140625 1.23461639881134033
32.3380813598632812 -34.4947013854980469 0.2065773606300354
32.5588455200195312 -41.4947967529296875 2.44040465354919434
40.9114799499511719 -42.7209205627441406 2.7907102108001709
39.0156364440917969 -37.623443603515625 0.226504385471343994
32.3397254943847656 -35.7683448791503906 1.54610681533813477
37.1934852600097656 -33.3646926879882812 2.99482989311218262
36.1055526733398438 -36.1046829223632812 0.0427573025226593018
43.7054405212402344 -35.9060249328613281 1.72158288955688477
37.6497383117675781 -30.3507614135742188 1.58766937255859375
41.2606048583984375 -43.0732879638671875 1.27640032768249512
32.31939697265625 -38.7333908081054688 0.338593482971191406
37.4838294982910156 -38.7508583068847656 1.23076188564300537
34.2959060668945312 -39.1860923767089844 -0.183362364768981934
38.4094200134277344 -34.3152847290039062 3.02891111373901367
33.5518722534179688 -39.299102783203125 2.81651520729064941
37.3447341918945312 -35.1387977600097656 1.36603474617004395
34.040924072265625 -41.8919601440429688 2.37674927711486816
35.538726806640625 -31.2564506530761719 3.01655030250549316
37.4752159118652344 -41.8437118530273438 1.22867953777313232
37.1686019897460938 -32.1677360534667969 1.25052773952484131
32.4707221984863281 -37.1522598266601562 1.37671887874603271
34.39630126953125 -37.8047332763671875 3.00260376930236816
35.0604782104492188 -35.7631645202636719 1.38177192211151123
35.1265411376953125 -30.9124259948730469 1.32078337669372559
32.30328369140625 -38.7719497680664062 1.37523400783538818
34.5753211975097656 -38.0779037475585938 0.637322783470153809
32.2500686645507812 -40.5104331970214844 0.515630424022674561
36.5570030212402344 -30.4102058410644531 0.872718393802642822
35.9399757385253906 -43.5103683471679688 -0.0209264755249023438
42.7254447937011719 -33.2474021911621094 0.0509408414363861084
37.9124412536621094 -43.0913238525390625 0.281688213348388672
42.3968963623046875 -39.0255355834960938 2.98739099502563477
42.7029533386230469 -38.3789596557617188 1.10463237762451172
42.5859107971191406 -43.8929214477539062 1.39243197441101074
38.6123809814453125 -31.6005973815917969 3.04921817779541016
42.8474617004394531 -35.3065185546875 3.01960325241088867
38.6061477661132812 -37.5253143310546875 3.00304102897644043
38.577362060546875 -30.3208160400390625 0.426394164562225342
42.6030769348144531 -44.6568145751953125 0.195831596851348877
41.4397315979003906 -42.1415557861328125 0.732507407665252686
40.8811454772949219 -41.0315093994140625 1.31180310249328613
39.54815673828125 -42.7516555786132812 1.49798440933227539
36.187164306640625 -38.9365425109863281 3.02735304832458496
35.7226943969726562 -38.9964599609375 1.46180272102355957
40.4951171875 -36.0890121459960938 0.393172621726989746
43.0507240295410156 -40.6084175109863281 3.00120806694030762
40.3220329284667969 -33.8916816711425781 3.00438308715820312
43.5840263366699219 -42.9955558776855469 1.77432429790496826
39.6450309753417969 -37.1761856079101562 1.44067168235778809
33.613128662109375 -35.235443115234375 0.00624817609786987305
39.746246337890625 -43.8817367553710938 1.24900388717651367
36.4541358947753906 -31.3703384399414062 1.64533555507659912
39.6153488159179688 -31.9574832916259766 1.27114176750183105
35.1025505065917969 -36.5493087768554688 3.03320026397705078
41.5692939758300781 -33.3572273254394531 1.51486563682556152
43.6484146118164062 -39.612762451171875 1.44518125057220459
40.3994865417480469 -37.2670364379882812 0.383220493793487549
33.3266830444335938 -35.7428169250488281 1.47687804698944092
32.9838638305664062 -39.5765571594238281 1.55994296073913574
32.9366378784179688 -42.8900642395019531 0.257991522550582886
34.8825874328613281 -44.0359230041503906 0.149883091449737549
39.5425758361816406 -33.4885711669921875 1.33016777038574219
37.6921539306640625 -37.9478378295898438 1.32954001426696777
42.367828369140625 -42.8052978515625 1.15182411670684814
34.0672874450683594 -37.4444541931152344 1.32240128517150879
39.3762359619140625 -42.9378700256347656 0.315491437911987305
38.3690147399902344 -36.5904960632324219 0.174010217189788818
36.4054603576660156 -35.3588943481445312 3.01976203918457031
35.5727348327636719 -32.4613113403320312 0.134302675724029541
38.6044807434082031 -31.7155265808105469 1.47879767417907715
40.6515617370605469 -42.1095733642578125 1.2135392427444458
33.6448478698730469 -33.4254798889160156 2.41193795204162598
