ply
format ascii 1.0
element vertex 256
comment vertices
property float x
property float y
property float z
end_header
42.8810768127441406 -39.959320068359375 1.45812082290649414
37.5080299377441406 -33.3395271301269531 5.66895961761474609
37.4822273254394531 -42.6392745971679688 7.31577253341674805
37.4007415771484375 -44.450775146484375 1.18454062938690186
46.2639350891113281 -44.4401817321777344 5.62404346466064453
40.3259391784667969 -33.6351203918457031 0.0555345490574836731
43.6022911071777344 -36.6622657775878906 7.2772068977355957
46.0238609313964844 -44.5219917297363281 1.14413046836853027
37.5373077392578125 -38.6215705871582031 3.81136369705200195
41.499908447265625 -44.6397819519042969 3.69581770896911621
43.633087158203125 -33.4859962463378906 3.74070024490356445
42.4247894287109375 -41.5639915466308594 7.29526281356811523
46.2657852172851562 -39.77667236328125 4.6507267951965332
38.943511962890625 -37.5017662048339844 7.29261445999145508
37.5454635620117188 -36.8062095642089844 0.0133900726214051247
39.0556259155273438 -40.6209983825683594 1.17015063762664795
43.5391044616699219 -35.9739990234375 1.194130539894104
40.1527671813964844 -35.5450439453125 3.66043806076049805
38.0226325988769531 -42.6045112609863281 3.9573826789855957
42.0871505737304688 -43.249359130859375 0.0515409931540489197
46.2627029418945312 -40.4015617370605469 0.0756305977702140808
41.454864501953125 -38.886566162109375 4.63374519348144531
41.144012451171875 -33.4418220520019531 5.60006475448608398
44.6250343322753906 -42.5407981872558594 3.84215927124023438
37.4975509643554688 -33.5172805786132812 2.48592090606689453
43.6399993896484375 -36.8011856079101562 3.98000407218933105
40.651947021484375 -37.6503181457519531 0.0434927940368652344
39.5254669189453125 -44.6541099548339844 5.57785272598266602
43.0913314819335938 -44.5537757873535156 5.49245166778564453
40.9271278381347656 -41.9669647216796875 4.63651180267333984
37.601409912109375 -39.9014358520507812 5.83072519302368164
37.525848388671875 -35.9337387084960938 4.48224353790283203
40.2474327087402344 -39.0951995849609375 2.67634701728820801
40.3213882446289062 -42.42767333984375 2.00985836982727051
45.63116455078125 -39.8042984008789062 1.93668437004089355
39.9649887084960938 -40.1611747741699219 7.31963157653808594
43.6468925476074219 -39.1735725402832031 6.13551902770996094
43.3095245361328125 -33.3178520202636719 1.26909804344177246
43.6486473083496094 -34.4904022216796875 5.54065132141113281
46.2416496276855469 -44.6407051086425781 3.3686521053314209
43.6315460205078125 -44.2954902648925781 1.56029868125915527
40.8779335021972656 -35.7414779663085938 7.32062816619873047
43.6327400207519531 -39.966339111328125 4.30195522308349609
44.6519775390625 -41.7941513061523438 5.38510894775390625
39.1666259765625 -35.4905433654785156 1.3237452507019043
37.5018730163574219 -40.6900482177734375 1.86392664909362793
41.8374099731445312 -36.4177398681640625 5.12373495101928711
37.4990386962890625 -35.4477005004882812 7.15935993194580078
40.9676055908203125 -33.4466133117675781 2.81655120849609375
38.7992019653320312 -44.6164283752441406 2.81398391723632812
40.18878173828125 -42.64166259765625 6.97225522994995117
39.3559684753417969 -37.5865211486816406 4.61281442642211914
41.5395698547363281 -38.1225967407226562 7.29274559020996094
39.8638458251953125 -44.5517997741699219 1.14086794853210449
44.6143989562988281 -42.7641792297363281 0.835713207721710205
41.5896682739257812 -40.7685585021972656 0.0424062460660934448
43.2985916137695312 -38.5624237060546875 1.16065001487731934
41.6249008178710938 -35.4955024719238281 1.70264625549316406
39.5405731201171875 -35.0899085998535156 5.13760089874267578
42.6304397583007812 -42.3359832763671875 2.02998113632202148
38.2093276977539062 -38.6469039916992188 1.19712996482849121
37.56048583984375 -36.439697265625 2.56538939476013184
41.6533432006835938 -37.3601036071777344 2.32514238357543945
39.5459403991699219 -40.0716209411621094 4.59373998641967773
38.3851776123046875 -42.5860023498535156 1.32720780372619629
37.483551025390625 -44.0888786315917969 4.94199419021606445
38.7780570983886719 -42.3965339660644531 5.33182191848754883
43.6473312377929688 -44.5685081481933594 3.96628355979919434
41.4318733215332031 -40.6100730895996094 3.66468954086303711
37.7216682434082031 -33.9407424926757812 1.17579686641693115
43.63970947265625 -37.8642539978027344 1.50748085975646973
42.9478988647460938 -42.6460838317871094 4.57531642913818359
39.4038848876953125 -40.9413642883300781 3.44795322418212891
42.4232254028320312 -40.6746444702148438 5.62734127044677734
39.2170639038085938 -33.4489936828613281 3.78178882598876953
37.541290283203125 -37.7701950073242188 5.64976406097412109
37.7126083374023438 -40.6477165222167969 4.24053382873535156
43.6578369140625 -37.2812881469726562 5.18201255798339844
39.77471923828125 -37.1846199035644531 2.01565265655517578
46.2601394653320312 -42.6625480651855469 4.6142582893371582
43.4543190002441406 -35.3415679931640625 2.76070570945739746
42.0731925964355469 -34.6424064636230469 0.0406355336308479309
44.6161155700683594 -40.6553153991699219 1.35069680213928223
46.257659912109375 -41.7526473999023438 3.16618967056274414
40.5734901428222656 -35.7664566040039062 0.0257043074816465378
41.3400001525878906 -44.65283203125 4.97491264343261719
42.1236953735351562 -35.4709739685058594 4.16170215606689453
41.1188240051269531 -39.2312507629394531 1.18925166130065918
44.6556472778320312 -43.5213966369628906 4.63578033447265625
39.444000244140625 -38.9105339050292969 5.96450614929199219
39.8260307312011719 -42.6450386047363281 3.86117863655090332
46.2370033264160156 -41.8893356323242188 1.28876996040344238
42.6890792846679688 -33.415802001953125 4.60516071319580078
44.1089553833007812 -44.4409446716308594 0.0551352202892303467
39.9619979858398438 -42.8281402587890625 0.0465939491987228394
38.4375877380371094 -41.1235275268554688 7.31931734085083008
43.3317909240722656 -41.31964111328125 0.030904870480298996
43.6461906433105469 -43.0733184814453125 6.38430118560791016
42.0274505615234375 -39.8608512878417969 6.9244084358215332
37.5196609497070312 -41.4910392761230469 1.20913946628570557
37.6890449523925781 -38.8027534484863281 7.24359798431396484
37.9833564758300781 -34.7357597351074219 3.77911233901977539
40.7352523803710938 -37.7317543029785156 5.68002796173095703
43.3297576904296875 -42.6765365600585938 1.32209610939025879
42.7785873413085938 -38.8589553833007812 3.53194689750671387
44.1629638671875 -41.0629081726074219 2.8605201244354248
39.2313270568847656 -38.7379264831542969 3.98279356956481934
42.2101516723632812 -36.8591842651367188 0.093818962574005127
39.1954078674316406 -35.6053962707519531 6.83831787109375
41.9422645568847656 -42.6367416381835938 5.98054647445678711
42.5277137756347656 -35.5412445068359375 6.54342317581176758
39.5049057006835938 -33.4482879638671875 4.68057870864868164
39.8974838256835938 -41.234619140625 5.83038997650146484
42.0536956787109375 -44.6328887939453125 1.10306346416473389
41.1144790649414062 -34.8073081970214844 4.64939641952514648
40.1881446838378906 -40.8062782287597656 1.4851679801940918
37.4905433654785156 -35.4455642700195312 1.31798803806304932
41.5505447387695312 -33.361572265625 1.23013412952423096
37.46624755859375 -43.5789833068847656 2.59943437576293945
42.6227836608886719 -37.9206314086914062 4.5602726936340332
46.1987876892089844 -41.2167282104492188 5.55808687210083008
38.2843704223632812 -39.0486106872558594 4.58018636703491211
41.5839614868164062 -42.0097084045410156 1.26508820056915283
39.9215621948242188 -37.141571044921875 3.92922759056091309
37.6740608215332031 -34.9820747375488281 5.5592041015625
38.9419822692871094 -37.6480674743652344 0.00847325846552848816
41.4606056213378906 -42.5482559204101562 3.8892815113067627
43.3089370727539062 -41.5453872680664062 4.14837884902954102
38.5788803100585938 -39.1990280151367188 2.71442842483520508
43.2505455017089844 -35.6330032348632812 4.86753273010253906
42.2116889953613281 -38.0118293762207031 1.36699378490447998
39.2085914611816406 -34.650909423828125 2.44303083419799805
42.3433074951171875 -37.99853515625 5.76308536529541016
44.8176498413085938 -43.6785812377929688 2.7350771427154541
43.6462287902832031 -40.7791671752929688 6.30704069137573242
40.40069580078125 -44.0670890808105469 2.80207967758178711
39.4931640625 -39.0114860534667969 1.12929821014404297
38.8509292602539062 -42.7686614990234375 1.75911211967468262
40.3868293762207031 -43.4227294921875 4.62588882446289062
44.8532791137695312 -40.5209274291992188 4.62143802642822266
43.6666717529296875 -34.6112861633300781 0.456945210695266724
42.3225555419921875 -34.1969413757324219 2.76885318756103516
37.4040374755859375 -36.9812774658203125 7.06373405456542969
41.0497856140136719 -38.4377174377441406 3.9854590892791748
37.5584945678710938 -41.4336624145507812 5.80819272994995117
42.3197708129882812 -43.9594573974609375 2.781158447265625
42.6325531005859375 -39.8679275512695312 1.20162022113800049
37.5262832641601562 -38.0852012634277344 1.76728034019470215
43.0545997619628906 -38.1607513427734375 7.3245391845703125
46.22882080078125 -43.1744575500488281 3.71057605743408203
38.9763832092285156 -35.6770591735839844 4.39333534240722656
37.5650138854980469 -37.4124908447265625 4.25958871841430664
40.3330841064453125 -36.4669075012207031 5.01012945175170898
38.6970367431640625 -36.3201484680175781 5.34316205978393555
43.66790771484375 -38.809051513671875 4.76593780517578125
40.8951873779296875 -39.1312103271484375 6.29740571975708008
37.4800987243652344 -44.6476173400878906 3.69114398956298828
46.1636695861816406 -43.2028312683105469 0.433059990406036377
39.202056884765625 -33.4205055236816406 1.23734569549560547
40.9970817565917969 -40.3493804931640625 4.77141284942626953
41.6427879333496094 -39.4235458374023438 2.70217633247375488
39.0146255493164062 -36.0662956237792969 2.72595453262329102
37.5739936828613281 -42.0008583068847656 4.53790664672851562
44.7193984985351562 -44.5774955749511719 5.50404977798461914
37.9465789794921875 -37.1589393615722656 1.2854844331741333
42.8822097778320312 -36.640411376953125 2.7861785888671875
37.552215576171875 -39.9177398681640625 1.29476356506347656
38.6463699340820312 -43.5103302001953125 0.0563737228512763977
40.3184967041015625 -34.5967674255371094 1.34240031242370605
44.3875885009765625 -39.6960678100585938 0.154488116502761841
37.5554122924804688 -42.0858001708984375 2.54588890075683594
42.8613090515136719 -40.5651016235351562 3.35905241966247559
41.8946495056152344 -38.6080131530761719 0.0413401387631893158
42.1507911682128906 -40.0186653137207031 4.43063831329345703
38.7649497985839844 -43.5626678466796875 4.74515724182128906
40.8317794799804688 -35.4422149658203125 5.81367015838623047
40.6995048522949219 -41.3587989807128906 7.32700920104980469
38.6224937438964844 -41.0135154724121094 5.24396800994873047
40.9151649475097656 -38.1104698181152344 1.63120710849761963
40.4020042419433594 -41.5709953308105469 0.991917967796325684
43.6384925842285156 -36.0747795104980469 5.82896804809570312
42.3745498657226562 -34.8256263732910156 5.2514801025390625
43.5505256652832031 -41.1585693359375 4.60752534866333008
39.7754364013671875 -41.290771484375 4.3252263069152832
44.182708740234375 -39.67919921875 3.18876385688781738
40.1616439819335938 -36.7723579406738281 1.24876677989959717
38.8147125244140625 -42.6366653442382812 6.82415294647216797
43.9452896118164062 -42.3388404846191406 2.57493329048156738
40.1617774963378906 -38.3479194641113281 7.30919694900512695
38.558197021484375 -44.5491600036621094 1.33382296562194824
43.5460357666015625 -35.4523086547851562 4.01160192489624023
43.18408203125 -37.3130950927734375 1.2528764009475708
45.5092849731445312 -39.6461372375488281 1.31806790828704834
40.4695281982421875 -40.1119575500488281 0.0904552936553955078
39.8455085754394531 -36.7861251831054688 6.55608701705932617
40.532379150390625 -42.6353530883789062 5.59974050521850586
40.8605232238769531 -36.3335533142089844 2.66275238990783691
39.4152297973632812 -38.3913116455078125 1.44092226028442383
38.7126579284667969 -39.6477470397949219 7.31364202499389648
44.8982734680175781 -44.5855865478515625 3.46555376052856445
40.12860107421875 -38.8749847412109375 4.71154117584228516
43.4745063781738281 -41.202911376953125 1.44435620307922363
40.8446044921875 -34.9715690612792969 2.73816537857055664
38.0005035400390625 -34.1590194702148438 4.67197370529174805
39.4755439758300781 -34.9974136352539062 0.312562167644500732
41.8322105407714844 -43.3534278869628906 4.75851774215698242
37.5024070739746094 -40.201812744140625 7.28308868408203125
42.4394912719726562 -39.3687324523925781 5.32929229736328125
44.2305374145507812 -42.2994003295898438 4.55197811126708984
45.1625175476074219 -39.6547012329101562 5.65592193603515625
39.8800582885742188 -39.8590660095214844 3.85243058204650879
41.4121627807617188 -42.9338722229003906 2.76275944709777832
38.119873046875 -41.2602500915527344 3.42272543907165527
37.5624351501464844 -36.4610786437988281 5.63711881637573242
41.703216552734375 -36.7224884033203125 7.32897138595581055
38.7904243469238281 -37.8457221984863281 2.76717615127563477
45.5002098083496094 -41.640655517578125 0.293047517538070679
46.2417716979980469 -40.371429443359375 3.53803110122680664
43.3319854736328125 -39.8632011413574219 7.22241783142089844
41.5080108642578125 -42.5030899047851562 7.27214717864990234
41.229156494140625 -44.1983184814453125 0.00651710107922554016
43.4205894470214844 -43.1185684204101562 0.0602636039257049561
43.7109565734863281 -43.6628227233886719 3.15065240859985352
40.6881484985351562 -41.6296539306640625 3.52157759666442871
37.9815177917480469 -39.7958488464355469 3.60140371322631836
42.855072021484375 -35.5561370849609375 1.46003544330596924
45.5533332824707031 -44.5539093017578125 4.65059423446655273
43.9377861022949219 -44.5628166198730469 4.85092401504516602
41.0724143981933594 -37.6956100463867188 4.69192838668823242
38.0841102600097656 -36.0303688049316406 3.70426845550537109
38.7348365783691406 -42.0379638671875 0.0520252101123332977
43.4531898498535156 -38.8467369079589844 1.25613188743591309
38.5985450744628906 -36.5101203918457031 1.13627684116363525
43.6917724609375 -34.0297775268554688 2.7093663215637207
43.533294677734375 -40.0146484375 5.26821804046630859
37.4888725280761719 -35.6142539978027344 0.339106172323226929
42.2547950744628906 -41.6112899780273438 4.56400585174560547
37.5087852478027344 -42.6614112854003906 5.61321544647216797
43.6197586059570312 -42.0739822387695312 7.11379146575927734
39.0742645263671875 -42.4502792358398438 4.19565296173095703
39.7900428771972656 -42.2673072814941406 1.25876057147979736
40.5456809997558594 -40.319610595703125 2.12968873977661133
43.6436843872070312 -38.4776649475097656 4.32700347900390625
45.2002906799316406 -42.3501434326171875 2.59810447692871094
39.9326095581054688 -34.3923568725585938 4.03563976287841797
41.7011985778808594 -41.49981689453125 1.99699103832244873
42.8349952697753906 -42.6472053527832031 4.05895853042602539
37.5337104797363281 -37.4361648559570312 3.52464103698730469
43.6325416564941406 -36.6053810119628906 1.49793636798858643
39.8940353393554688 -39.9968452453613281 5.64762020111083984
41.4366073608398438 -33.453216552734375 3.32346606254577637
37.5471916198730469 -41.2978973388671875 1.33821558952331543
37.603424072265625 -35.2066116333007812 2.69952225685119629
39.3502731323242188 -37.6355781555175781 5.8729400634765625
43.0485992431640625 -33.42877197265625 5.70641613006591797
42.8546257019042969 -37.6733245849609375 3.44461512565612793
