ply
format ascii 1.0
element vertex 256
comment vertices
property float x
property float y
property float z
end_header
39.2197914123535156 -43.9055709838867188 1.5416942834854126
31.730072021484375 -40.8906059265136719 0.952009141445159912
42.5583992004394531 -48.1908645629882812 1.2020576000213623
42.5713424682617188 -40.0390129089355469 1.24195516109466553
34.1919479370117188 -45.0763206481933594 1.76807451248168945
35.3975791931152344 -38.4304962158203125 1.81164157390594482
39.3213653564453125 -48.0521469116210938 1.56392836570739746
39.3897933959960938 -40.0017967224121094 1.34337472915649414
35.4253921508789062 -42.3166656494140625 1.27236056327819824
42.6805076599121094 -44.3095664978027344 -0.0187634117901325226
42.1563377380371094 -42.1513671875 2.71411299705505371
41.8441429138183594 -46.060455322265625 2.71928215026855469
40.0865745544433594 -46.3348503112792969 0.0116832181811332703
33.3146324157714844 -42.2789230346679688 1.83671557903289795
40.2997894287109375 -41.7041816711425781 0.0377591773867607117
35.3982162475585938 -39.620361328125 1.08554387092590332
34.29632568359375 -45.3843193054199219 1.20753300189971924
35.3776359558105469 -40.9237442016601562 1.68280529975891113
41.5826187133789062 -48.3965835571289062 1.25007593631744385
41.6085243225097656 -40.0204696655273438 1.26201772689819336
39.4388656616210938 -45.872833251953125 2.71856069564819336
42.3710899353027344 -42.1594963073730469 1.20005536079406738
40.5543441772460938 -44.049468994140625 -0.008992023766040802
33.5701789855957031 -43.4411697387695312 1.13316023349761963
40.0353240966796875 -42.1142005920410156 2.70752239227294922
31.7840080261230469 -40.8535690307617188 1.86273825168609619
42.6467018127441406 -44.1523971557617188 1.44102036952972412
42.5030136108398438 -46.1949691772460938 1.24172568321228027
39.0761375427246094 -48.0955696105957031 1.23758804798126221
35.4562530517578125 -44.4860305786132812 1.4218895435333252
40.782867431640625 -44.406829833984375 2.68718624114990234
39.3349113464355469 -40.0411338806152344 1.20781528949737549
43.4261016845703125 -41.2358818054199219 1.45168185234069824
40.7442817687988281 -47.8407135009765625 1.16542172431945801
41.0998992919921875 -42.5255355834960938 1.37646651268005371
32.8446235656738281 -41.9378814697265625 1.14470314979553223
41.0149078369140625 -40.3692474365234375 1.12491631507873535
34.4398307800292969 -43.4634437561035156 1.60597038269042969
39.2762641906738281 -43.0810966491699219 0.68201756477355957
39.2591514587402344 -45.3956260681152344 1.28268826007843018
39.2826766967773438 -41.3815078735351562 1.36888885498046875
41.4566497802734375 -45.3956298828125 0.0234219729900360107
34.0401153564453125 -40.3052940368652344 1.53869223594665527
40.692901611328125 -47.0791168212890625 2.70167088508605957
35.384521484375 -42.3474693298339844 1.48510158061981201
39.2826461791992188 -46.94073486328125 1.42481732368469238
42.5005531311035156 -47.2053375244140625 1.50008177757263184
35.3848037719726562 -39.5252838134765625 1.44817686080932617
41.5031089782714844 -42.9363212585449219 0.0215610750019550323
35.3817634582519531 -41.1562309265136719 1.13064098358154297
34.72235107421875 -43.9678077697753906 0.818196892738342285
35.3641395568847656 -38.413726806640625 1.10898816585540771
40.1326255798339844 -48.0627021789550781 1.39139342308044434
41.0939140319824219 -41.2261390686035156 2.7038884162902832
41.0365219116210938 -43.0443153381347656 2.70193624496459961
42.6072235107421875 -43.4272193908691406 1.28448367118835449
34.0875511169433594 -44.6270675659179688 1.34649300575256348
42.5677337646484375 -45.3774147033691406 1.4450230598449707
42.65435791015625 -40.6253471374511719 2.75613951683044434
42.6542243957519531 -40.069549560546875 1.39677309989929199
35.3982887268066406 -44.4291419982910156 1.57925748825073242
43.2601242065429688 -41.1930809020996094 0.993902802467346191
41.6864128112792969 -46.7382278442382812 0.0289590153843164444
39.2725181579589844 -44.491851806640625 0.0174893587827682495
32.0625534057617188 -41.0786018371582031 1.40984964370727539
41.6322860717773438 -41.4618301391601562 0.0265440046787261963
39.2794876098632812 -42.6314239501953125 1.35793614387512207
41.4379653930664062 -41.2764244079589844 1.34432029724121094
40.5050582885742188 -45.0384941101074219 0.604153215885162354
40.6601142883300781 -45.6973953247070312 2.71050858497619629
40.4700431823730469 -40.1033401489257812 1.48501801490783691
42.3296356201171875 -48.1438064575195312 1.24684476852416992
39.3245124816894531 -43.0951423645019531 2.71412158012390137
39.2768211364746094 -41.1934051513671875 2.66473937034606934
39.2640953063964844 -44.7355422973632812 2.66232466697692871
42.5702476501464844 -48.04852294921875 2.73323225975036621
42.6423072814941406 -42.3664016723632812 1.44266402721405029
41.8279266357421875 -44.9216842651367188 2.71477079391479492
41.7957878112792969 -44.73797607421875 1.42774975299835205
40.3220481872558594 -43.2186851501464844 1.37616658210754395
33.3342018127441406 -42.5525131225585938 0.787739157676696777
39.3480224609375 -41.1265640258789062 0.0114631801843643188
42.6035537719726562 -43.1963233947753906 0.00659042969346046448
40.1585235595703125 -40.8608207702636719 1.4192044734954834
39.1458778381347656 -47.0712699890136719 0.786202430725097656
39.5460205078125 -46.9950904846191406 2.71437168121337891
41.3164482116699219 -48.6504135131835938 1.22984528541564941
34.6790390014648438 -43.7382736206054688 1.32882928848266602
41.6140594482421875 -44.0547409057617188 0.0174034349620342255
42.0270271301269531 -40.7261734008789062 1.08473336696624756
33.4677009582519531 -42.6626510620117188 1.45360255241394043
32.5541000366210938 -41.5883941650390625 1.57744395732879639
42.1749114990234375 -43.2156181335449219 2.71621990203857422
35.3838615417480469 -39.7819938659667969 1.77909767627716064
42.5281639099121094 -47.2652740478515625 1.1976172924041748
42.5881538391113281 -45.3839912414550781 1.26680564880371094
41.7132492065429688 -47.3515090942382812 2.70082879066467285
40.1731681823730469 -40.5517082214355469 2.7056114673614502
39.8707656860351562 -44.0655059814453125 1.28781628608703613
39.9269332885742188 -47.4904632568359375 1.27923595905303955
40.4007225036621094 -48.0611457824707031 2.56672000885009766
39.886993408203125 -45.3202247619628906 0.00351655483245849609
35.4050369262695312 -42.1288719177246094 1.65875005722045898
33.7734756469726562 -44.4199180603027344 0.896310091018676758
39.9747314453125 -43.8567047119140625 2.7135920524597168
39.08740234375 -42.0621795654296875 1.16543126106262207
40.8967208862304688 -44.0945663452148438 0.702789425849914551
39.2902145385742188 -40.3050498962402344 1.31676435470581055
41.8832817077636719 -42.9753189086914062 1.4367830753326416
40.6668052673339844 -41.8250999450683594 1.09024417400360107
40.82861328125 -41.8283920288085938 1.3367924690246582
42.5059471130371094 -41.40301513671875 1.16503620147705078
39.4382362365722656 -46.3396339416503906 1.23960781097412109
40.4936866760253906 -42.6304817199707031 0.0155814327299594879
35.3742103576660156 -40.5787544250488281 1.24911606311798096
39.1952056884765625 -48.0083427429199219 1.34198558330535889
33.5962104797363281 -43.1710853576660156 1.98002028465270996
42.5755882263183594 -46.2746353149414062 1.34882283210754395
35.3893089294433594 -40.1798057556152344 1.16791772842407227
40.7706222534179688 -46.9742317199707031 0.0273472033441066742
41.7551307678222656 -48.2915534973144531 0.0414720252156257629
42.8989830017089844 -41.5267181396484375 1.20058321952819824
42.5220870971679688 -41.2153167724609375 0.0232587084174156189
33.8978271484375 -44.1317977905273438 1.83291506767272949
39.2402725219726562 -46.048095703125 1.47244524955749512
40.1719932556152344 -42.4417991638183594 1.43313372135162354
35.4345550537109375 -44.5907173156738281 1.07843971252441406
42.635284423828125 -44.304412841796875 1.42478096485137939
32.362701416015625 -41.5896568298339844 0.867136478424072266
41.5028038024902344 -43.8327827453613281 2.69983935356140137
35.3839035034179688 -38.3957290649414062 1.49545466899871826
33.8234024047851562 -43.78155517578125 1.51096153259277344
41.9423370361328125 -42.9036140441894531 1.05968785285949707
40.7339363098144531 -40.9011154174804688 0.0070371478796005249
42.64129638671875 -45.3238143920898438 2.66943717002868652
34.6979560852050781 -40.0713691711425781 0.797284364700317383
40.1055793762207031 -45.0203437805175781 2.71970558166503906
41.3063621520996094 -42.2104148864746094 1.10673356056213379
41.4679336547851562 -40.3889617919921875 1.34611105918884277
34.0619773864746094 -43.3041534423828125 0.871336519718170166
41.4805946350097656 -42.3883552551269531 1.18674945831298828
40.17816162109375 -42.9744338989257812 2.70550751686096191
41.8811721801757812 -45.7274436950683594 1.1080772876739502
42.5813980102539062 -46.7829818725585938 0.982545733451843262
39.2410011291503906 -42.1022872924804688 1.29277992248535156
40.9139518737792969 -46.137969970703125 0.0332499593496322632
41.5876808166503906 -40.1550064086914062 0.193794220685958862
41.9706306457519531 -41.2923812866210938 2.69975471496582031
35.3876228332519531 -41.9958229064941406 1.13064384460449219
42.0214996337890625 -46.7839508056640625 0.632735073566436768
40.1199722290039062 -46.3548393249511719 2.70294094085693359
39.0723304748535156 -45.8733787536621094 1.34722864627838135
42.549285888671875 -46.9080429077148438 2.67322921752929688
40.3492088317871094 -40.0512428283691406 1.14997649192810059
35.2013130187988281 -41.5488433837890625 0.744560837745666504
42.084381103515625 -47.5277442932128906 0.167009606957435608
40.943359375 -48.0569801330566406 1.40018594264984131
35.0889320373535156 -44.0953254699707031 1.60136222839355469
39.2801399230957031 -43.3240814208984375 1.24175441265106201
35.3872947692871094 -41.5281295776367188 1.41589176654815674
40.1321792602539062 -43.3388824462890625 0.0177757628262042999
39.2673263549804688 -44.5914840698242188 1.39136815071105957
40.8980331420898438 -40.1012649536132812 2.70879936218261719
34.2847747802734375 -45.2681236267089844 1.51181197166442871
41.2164993286132812 -43.3675346374511719 0.764191269874572754
35.3919944763183594 -39.2600212097167969 1.07948982715606689
42.0407218933105469 -46.003143310546875 -0.0240310505032539368
42.5821647644042969 -45.2709236145019531 1.2184140682220459
40.686492919921875 -45.0323753356933594 -0.00249262899160385132
42.592803955078125 -43.3560905456542969 1.44228911399841309
39.8211860656738281 -42.5221900939941406 1.22235560417175293
41.0812530517578125 -46.4005279541015625 2.71154999732971191
40.861358642578125 -42.2803611755371094 2.71163177490234375
42.4055938720703125 -40.0974960327148438 1.2547377347946167
41.2160606384277344 -47.9443397521972656 2.7186579704284668
35.3901939392089844 -40.6075820922851562 1.51100122928619385
42.6753768920898438 -42.7005271911621094 2.45028138160705566
35.4782867431640625 -38.800201416015625 0.81439584493637085
40.2496795654296875 -41.3690528869628906 2.69926905632019043
42.6110267639160156 -46.6335601806640625 1.32721912860870361
41.986968994140625 -44.7323455810546875 -0.0124123953282833099
41.5772247314453125 -40.6338615417480469 2.71124529838562012
41.8944091796875 -40.0031318664550781 1.09789645671844482
42.6364212036132812 -40.8291358947753906 1.30182540416717529
42.0135688781738281 -42.3425025939941406 0.0249277856200933456
39.2549209594726562 -47.1512260437011719 1.13044536113739014
39.7541923522949219 -42.3019332885742188 0.0167418792843818665
34.2077980041503906 -45.2613296508789062 1.24363839626312256
39.2394905090332031 -45.0427589416503906 1.42247343063354492
41.0124282836914062 -41.9879035949707031 0.0444448851048946381
42.2460594177246094 -48.0542488098144531 1.22925198078155518
41.512359619140625 -41.646484375 1.25392782688140869
39.2586898803710938 -47.425445556640625 1.16144013404846191
40.8759078979492188 -43.37554931640625 0.0114167742431163788
35.3794059753417969 -39.1506843566894531 1.76805424690246582
34.0650367736816406 -44.5457344055175781 1.64850473403930664
41.104766845703125 -45.0976905822753906 2.7073066234588623
39.447296142578125 -43.7339553833007812 0.00034332275390625
32.5894737243652344 -41.6030311584472656 1.4770960807800293
41.0799331665039062 -41.1595726013183594 1.11236584186553955
40.0393104553222656 -40.1013565063476562 1.25966620445251465
39.2142829895019531 -40.8658332824707031 1.53242146968841553
42.4252548217773438 -43.756622314453125 1.17163586616516113
39.22119140625 -40.6759719848632812 1.09432196617126465
39.2672882080078125 -44.0131187438964844 2.61855816841125488
39.9952430725097656 -44.4656143188476562 0.17364734411239624
39.8163261413574219 -45.6595535278320312 1.02496159076690674
40.0656661987304688 -47.1140060424804688 0.0182161033153533936
39.5945625305175781 -41.4531631469726562 1.26473689079284668
41.9546966552734375 -40.7785530090332031 -0.00401459261775016785
42.6292724609375 -42.7086143493652344 1.19875526428222656
40.7527008056640625 -42.5417976379394531 1.24880385398864746
34.2314453125 -43.2549705505371094 1.40799093246459961
40.7543296813964844 -42.5315513610839844 1.49374568462371826
40.0345611572265625 -40.9595832824707031 0.00567720085382461548
33.310760498046875 -42.486114501953125 1.16165065765380859
31.9844741821289062 -41.1574440002441406 1.03666448593139648
40.5177268981933594 -48.0430755615234375 1.1186443567276001
41.4073295593261719 -40.9053230285644531 1.31403112411499023
39.6127090454101562 -48.0528907775878906 1.46540093421936035
32.0873146057128906 -41.1068153381347656 1.57839286327362061
35.0452690124511719 -44.1634521484375 1.09011125564575195
39.1352729797363281 -43.9962501525878906 1.17014908790588379
42.529449462890625 -40.3638381958007812 1.08715736865997314
42.0325126647949219 -44.2581710815429688 2.71555471420288086
41.37884521484375 -47.3800125122070312 0.0310941264033317566
33.8275985717773438 -44.0597877502441406 1.27312922477722168
40.9794425964355469 -44.6543235778808594 0.272628456354141235
42.4696998596191406 -44.6213836669921875 1.20072484016418457
40.637176513671875 -43.69110107421875 2.69802451133728027
42.5249671936035156 -40.7319068908691406 1.31352806091308594
42.5158233642578125 -44.8103523254394531 1.37346422672271729
39.1626510620117188 -46.7075233459472656 1.39568376541137695
39.6631011962890625 -44.9536399841308594 1.2393944263458252
34.91259765625 -43.9540977478027344 1.69910502433776855
42.584991455078125 -45.9281234741210938 1.31271827220916748
39.6902618408203125 -48.0370330810546875 1.14021897315979004
39.8154830932617188 -42.5375862121582031 1.28058838844299316
32.915283203125 -42.0752067565917969 0.890877127647399902
39.2189712524414062 -43.2436485290527344 1.51574325561523438
39.206512451171875 -42.0412826538085938 1.31293201446533203
41.8021354675292969 -48.0312881469726562 1.16490650177001953
40.1146926879882812 -47.4068832397460938 2.70647907257080078
40.4253196716308594 -45.6354484558105469 0.0284624211490154266
33.88885498046875 -42.9098396301269531 1.591042160987854
35.3688430786132812 -40.0443840026855469 1.68746566772460938
42.5481529235839844 -47.43084716796875 1.09427809715270996
41.3442459106445312 -41.8656539916992188 2.72742319107055664
42.2429542541503906 -43.761199951171875 0.0280974544584751129
39.7946624755859375 -40.0996246337890625 1.48652386665344238
42.5533599853515625 -41.63787841796875 2.7209937572479248
39.4237823486328125 -40.557525634765625 2.71209406852722168
42.0092201232910156 -40.1035614013671875 1.36042702198028564
41.4798011779785156 -42.0069808959960938 1.3476794958114624
41.7414817810058594 -48.1971473693847656 1.34187448024749756
42.5616340637207031 -46.0577430725097656 1.22600829601287842
