ply
format ascii 1.0
element vertex 237
comment vertices
property float x
property float y
property float z
end_header
38.5634307861328125 -37.4681739807128906 2.6450192928314209
44.4332656860351562 -42.6919631958007812 0.148554354906082153
34.27484130859375 -42.6362533569335938 1.28442990779876709
44.5661392211914062 -37.4645957946777344 1.61952066421508789
39.6420516967773438 -42.6553230285644531 1.50682151317596436
34.5531883239746094 -37.8696098327636719 0.128112167119979858
41.665313720703125 -39.2072257995605469 0.0238181985914707184
37.6235237121582031 -40.2851066589355469 0.0412021353840827942
35.2219390869140625 -40.1445426940917969 2.70180034637451172
43.2667312622070312 -40.7082061767578125 2.70294380187988281
41.5883102416992188 -37.8176612854003906 2.70503592491149902
44.5825653076171875 -38.6473388671875 0.0131353922188282013
36.7698974609375 -42.6350059509277344 1.28296709060668945
41.0636444091796875 -42.7087554931640625 1.21850883960723877
37.2408409118652344 -37.5067062377929688 0.482102394104003906
35.8362503051757812 -37.4800071716308594 2.69627022743225098
39.8292922973632812 -39.9161567687988281 2.7104644775390625
38.54144287109375 -42.6936531066894531 0.090822756290435791
39.9302177429199219 -37.4627304077148438 0.184252277016639709
34.3603248596191406 -42.5111007690429688 2.77202343940734863
37.5833053588867188 -40.4528579711914062 2.59254169464111328
42.1272735595703125 -42.6864967346191406 1.86404860019683838
39.8848724365234375 -40.6881828308105469 0.0261378902941942215
44.5565109252929688 -42.5473251342773438 1.36687445640563965
42.7505645751953125 -37.4235153198242188 1.1943669319152832
43.2896232604980469 -40.7156715393066406 0.154775336384773254
35.4520034790039062 -40.6573257446289062 0.1085309237241745
39.0133094787597656 -39.197296142578125 0.782597899436950684
41.7157669067382812 -39.7217559814453125 1.36777806282043457
36.4413642883300781 -42.690582275390625 0.515038013458251953
44.416534423828125 -39.2656364440917969 1.26254582405090332
34.421844482421875 -38.5547752380371094 1.3723750114440918
35.9985427856445312 -38.7842674255371094 0.0481650456786155701
41.84442138671875 -41.3728065490722656 1.39482474327087402
40.8407325744628906 -41.3426971435546875 2.70023941993713379
43.0678482055664062 -42.52606201171875 1.31934559345245361
44.5219039916992188 -40.9785690307617188 1.49533462524414062
42.9795112609863281 -38.7667007446289062 2.70420670509338379
40.1099014282226562 -37.5732803344726562 1.50720798969268799
38.4805564880371094 -39.038055419921875 2.70008063316345215
38.1929130554199219 -41.8847541809082031 2.69655370712280273
41.4832229614257812 -37.5857048034667969 0.0172425359487533569
44.5481643676757812 -37.4616050720214844 1.20166373252868652
34.3598175048828125 -39.4107017517089844 1.19682478904724121
39.85186767578125 -42.6397628784179688 1.23419272899627686
37.6987648010253906 -41.4019660949707031 1.32513999938964844
40.4157981872558594 -39.5228195190429688 1.43258190155029297
43.1479835510253906 -39.1202507019042969 0.0275651942938566208
38.4634323120117188 -37.4404830932617188 1.18928873538970947
36.2354087829589844 -39.1080703735351562 2.71571612358093262
42.4693603515625 -41.8977279663085938 0.0607468858361244202
37.5235061645507812 -38.8675117492675781 0.0244245026260614395
37.1953697204589844 -37.4641265869140625 1.63146066665649414
43.0705070495605469 -37.46319580078125 1.38148617744445801
44.6367607116699219 -41.287322998046875 0.157878100872039795
41.9195213317871094 -40.5837593078613281 0.0257535874843597412
40.8349380493164062 -38.9752769470214844 2.70545125007629395
39.3861885070800781 -41.2246780395507812 2.70455145835876465
43.3134880065917969 -42.1772422790527344 2.68403983116149902
41.8608436584472656 -38.5829658508300781 1.24811863899230957
36.6863975524902344 -41.2280426025390625 0.0209358371794223785
38.5977821350097656 -41.1170387268066406 0.0309210792183876038
43.6542816162109375 -38.5170440673828125 1.29851865768432617
44.0400238037109375 -39.8091621398925781 1.23240375518798828
36.2463798522949219 -40.082183837890625 1.24648094177246094
41.2788124084472656 -37.4547805786132812 1.44835376739501953
40.0781898498535156 -38.6616363525390625 0.0061411149799823761
40.9849281311035156 -41.4190521240234375 0.257028758525848389
34.6482009887695312 -37.4483985900878906 1.40376567840576172
42.2047615051269531 -41.4087409973144531 2.70453405380249023
36.9279441833496094 -41.5055770874023438 2.70762920379638672
38.6189422607421875 -38.3658332824707031 0.0241093076765537262
44.5321426391601562 -40.3670616149902344 2.70884227752685547
39.6104583740234375 -41.9162101745605469 0.030702611431479454
37.3084182739257812 -42.5320320129394531 1.19358241558074951
43.7785453796386719 -37.7527389526367188 0.0295690018683671951
34.5163841247558594 -37.5571746826171875 1.40990746021270752
39.69500732421875 -38.5245895385742188 2.70438814163208008
34.39300537109375 -39.7839164733886719 1.52109575271606445
35.4751968383789062 -41.8492164611816406 0.0215795151889324188
38.7687873840332031 -39.8879470825195312 0.0225437190383672714
37.7300910949707031 -41.8199577331542969 0.0188240259885787964
44.5233688354492188 -42.0669097900390625 1.31888914108276367
34.6236915588378906 -41.3157157897949219 2.7221522331237793
36.3824462890625 -40.434906005859375 2.70450282096862793
34.4678306579589844 -41.2204856872558594 0.156894564628601074
40.9695587158203125 -40.1246490478515625 2.69773387908935547
38.1341056823730469 -38.1567001342773438 1.35828375816345215
37.40142822265625 -38.70916748046875 2.71670198440551758
44.3443679809570312 -41.528045654296875 2.71636962890625
38.650665283203125 -40.1736526489257812 2.71577882766723633
36.3168144226074219 -42.0411338806152344 1.26156735420227051
40.8271408081054688 -38.2921791076660156 0.916478276252746582
42.3553352355957031 -38.2333030700683594 0.0307962875813245773
39.8415031433105469 -39.0493927001953125 1.4047088623046875
35.2896499633789062 -40.5510482788085938 1.38792288303375244
41.9734764099121094 -42.6425933837890625 1.26651692390441895
42.6479034423828125 -39.8105735778808594 2.71775150299072266
40.7699089050292969 -42.5053520202636719 2.73161053657531738
36.9074325561523438 -37.4457893371582031 1.34319603443145752
43.6592864990234375 -41.7104415893554688 0.808774590492248535
34.3721237182617188 -42.3448638916015625 1.2822110652923584
36.2762222290039062 -37.6561851501464844 0.0117787308990955353
40.902496337890625 -39.9413032531738281 0.0319531112909317017
35.0870933532714844 -39.0304832458496094 2.71087408065795898
44.4905776977539062 -38.1363296508789062 1.50558161735534668
41.7983818054199219 -39.9255180358886719 1.15880715847015381
41.81878662109375 -38.7541580200195312 1.42952728271484375
37.5329933166503906 -38.208404541015625 1.12396049499511719
39.7201499938964844 -39.6576042175292969 -0.00394241511821746826
39.1142425537109375 -37.5927085876464844 1.40688824653625488
37.0625076293945312 -40.4552497863769531 1.31572926044464111
43.7206993103027344 -39.4899749755859375 2.70747923851013184
35.2929763793945312 -39.6235771179199219 0.0219333097338676453
37.4502372741699219 -39.5427932739257812 1.16322135925292969
36.5468406677246094 -38.1506271362304688 2.70795893669128418
41.7036819458007812 -40.7320137023925781 1.44132304191589355
43.7670402526855469 -38.1695098876953125 2.70673251152038574
34.7753372192382812 -38.5420570373535156 1.27303910255432129
42.2260017395019531 -37.5735664367675781 1.50685012340545654
34.4103126525878906 -40.4602622985839844 1.21259164810180664
35.8797645568847656 -41.1361198425292969 1.34618878364562988
40.1623878479003906 -42.7178611755371094 1.19944298267364502
36.8538436889648438 -39.5904617309570312 0.0334071777760982513
38.1811180114746094 -37.5577850341796875 0.779157817363739014
37.488800048828125 -42.0357666015625 1.2273784875869751
42.8885879516601562 -42.7702445983886719 1.02228546142578125
42.6328201293945312 -39.9051856994628906 0.0252371467649936676
35.4173545837402344 -42.6340904235839844 1.28375017642974854
44.5333900451660156 -38.9001884460449219 1.18433165550231934
40.6200103759765625 -37.999053955078125 2.70238256454467773
44.2451744079589844 -40.3524208068847656 0.0345856845378875732
42.6908149719238281 -41.2062721252441406 0.330867409706115723
35.3196868896484375 -37.4591178894042969 0.0697438344359397888
39.8099288940429688 -40.5852394104003906 1.04874157905578613
37.4985733032226562 -42.6671638488769531 2.13644647598266602
43.8342819213867188 -42.5377388000488281 1.49431991577148438
41.6456222534179688 -42.0773162841796875 1.31687235832214355
39.3153915405273438 -42.5389785766601562 1.46930146217346191
41.7201461791992188 -41.9577598571777344 1.27255284786224365
38.0033302307128906 -39.6242179870605469 0.694277405738830566
37.2171058654785156 -42.6749038696289062 1.17830538749694824
44.4301643371582031 -37.5112724304199219 1.09251844882965088
39.9760208129882812 -38.6547966003417969 1.32213854789733887
40.2069435119628906 -42.3578681945800781 1.42608308792114258
37.809326171875 -37.9215812683105469 2.71548771858215332
36.6973724365234375 -38.936492919921875 1.08631765842437744
35.2672271728515625 -38.1270904541015625 2.70607757568359375
42.9457778930664062 -42.6425590515136719 1.68872690200805664
38.7808647155761719 -42.6764640808105469 1.63554871082305908
42.4793128967285156 -37.9191055297851562 2.71697282791137695
43.8805007934570312 -42.6160202026367188 1.16489124298095703
35.2525672912597656 -42.6816978454589844 1.9128108024597168
44.4927711486816406 -40.0989570617675781 1.43179202079772949
40.3860511779785156 -37.55816650390625 1.40597653388977051
35.637847900390625 -40.9225044250488281 2.4668116569519043
40.0540351867675781 -41.7957992553710938 2.69316506385803223
39.4073524475097656 -37.6971359252929688 2.72312331199645996
34.5090141296386719 -41.8805961608886719 1.19634294509887695
38.349365234375 -41.0185585021972656 2.69691753387451172
40.66094970703125 -42.5080032348632812 1.14958834648132324
44.0292587280273438 -39.365814208984375 0.00820851325988769531
34.4594650268554688 -40.7063827514648438 1.24661517143249512
38.9882049560546875 -42.627655029296875 1.12531435489654541
37.1135635375976562 -40.9352531433105469 1.19820499420166016
43.805389404296875 -40.7332038879394531 1.45902395248413086
41.831756591796875 -40.1734161376953125 2.70541501045227051
41.3108711242675781 -38.4291229248046875 0.0261477325111627579
37.5641860961914062 -41.1887397766113281 0.99057614803314209
39.0291404724121094 -38.4733543395996094 1.31270623207092285
41.8538284301757812 -37.443389892578125 1.17691493034362793
34.5407524108886719 -38.7662925720214844 0.0370507016777992249
37.7718276977539062 -37.45166015625 1.43048930168151855
44.4953269958496094 -41.779541015625 1.54093873500823975
42.1346969604492188 -42.7006797790527344 0.958007931709289551
36.8308868408203125 -41.8190650939941406 1.18921279907226562
36.4366798400878906 -37.5478477478027344 1.54961347579956055
39.130096435546875 -37.5738983154296875 0.210987776517868042
34.4412269592285156 -39.588104248046875 1.52036237716674805
40.5914382934570312 -37.7990226745605469 0.0370752178132534027
34.6910209655761719 -42.0136489868164062 2.1460118293762207
36.0618133544921875 -42.1189002990722656 2.00795435905456543
36.1668891906738281 -42.6788482666015625 2.71490788459777832
36.8556442260742188 -38.2460975646972656 0.0408522002398967743
36.8539352416992188 -39.7579116821289062 2.70267844200134277
44.5053176879882812 -38.8322181701660156 2.71850132942199707
39.3867301940917969 -38.6900520324707031 0.163309097290039062
35.3716316223144531 -38.3499298095703125 0.0534822270274162292
41.2138595581054688 -40.5261268615722656 0.0459326505661010742
40.6379432678222656 -39.05615234375 0.95895308256149292
40.2824630737304688 -40.6586685180664062 2.71063685417175293
43.89715576171875 -37.4583244323730469 1.18698227405548096
37.98028564453125 -40.902130126953125 0.778136670589447021
39.1902694702148438 -39.4280776977539062 2.69762206077575684
43.4754791259765625 -39.9811744689941406 0.0260558333247900009
41.51312255859375 -39.4469833374023438 2.70944046974182129
42.9251136779785156 -37.6682510375976562 0.0263192318379878998
36.614410400390625 -40.3651771545410156 0.00976233184337615967
40.4261589050292969 -41.958282470703125 0.345507651567459106
38.17236328125 -40.1369094848632812 1.29219424724578857
36.0899124145507812 -39.7388114929199219 0.00678511336445808411
35.3944282531738281 -39.8231468200683594 1.58133018016815186
43.7098426818847656 -38.54022216796875 0.129266515374183655
38.6959228515625 -41.9036636352539062 0.0526335462927818298
38.037567138671875 -38.9602890014648438 1.3647618293762207
44.0998115539550781 -41.8038978576660156 0.0563620775938034058
40.47576904296875 -39.4971466064453125 1.38672900199890137
42.6879768371582031 -42.0030670166015625 1.00741958618164062
44.3903427124023438 -38.1832122802734375 1.19749760627746582
38.541290283203125 -39.1301116943359375 0.0156386718153953552
39.2502479553222656 -41.9993553161621094 2.70357251167297363
42.4120292663574219 -40.6739845275878906 2.72094440460205078
41.6003341674804688 -41.2144279479980469 1.33224570751190186
34.6276130676269531 -39.101806640625 1.34584236145019531
40.857269287109375 -37.5662498474121094 1.3309471607208252
39.0815200805664062 -40.5385246276855469 0.0241459514945745468
40.9352149963378906 -37.4286270141601562 1.28095614910125732
37.4899024963378906 -41.0366249084472656 0.0159355215728282928
41.4068069458007812 -41.9129638671875 2.7080543041229248
35.9132652282714844 -39.8185195922851562 2.69957685470581055
44.5237236022949219 -39.5763931274414062 2.67217350006103516
42.4008407592773438 -39.0018768310546875 0.0328988619148731232
40.6377677917480469 -40.662933349609375 0.0232162512838840485
41.5604095458984375 -41.0449371337890625 2.71570253372192383
41.8038711547851562 -40.6581192016601562 1.22989845275878906
34.4516181945800781 -38.177490234375 1.4342341423034668
34.5673866271972656 -39.7881431579589844 0.0211131405085325241
42.3142852783203125 -39.1551628112792969 2.7140040397644043
37.9092674255371094 -42.7056846618652344 1.18289029598236084
44.5081634521484375 -41.3447418212890625 1.17189490795135498
36.8646659851074219 -38.2809219360351562 1.00861454010009766
41.7560234069824219 -39.1681900024414062 1.11002719402313232
37.95416259765625 -39.5660133361816406 2.70279192924499512
43.9958000183105469 -42.5642280578613281 2.71160411834716797
43.267578125 -38.1094627380371094 1.07555413246154785
38.0314292907714844 -38.6942901611328125 1.05386149883270264
42.9305267333984375 -41.4618568420410156 2.69570779800415039
