ply
format ascii 1.0
element vertex 256
comment vertices
property float x
property float y
property float z
end_header
38.5532455444335938 -37.4549140930175781 2.60155868530273438
44.319976806640625 -42.6476821899414062 0.0223282203078269958
34.4344062805175781 -42.6454696655273438 0.340915471315383911
44.5525474548339844 -37.45513916015625 2.73165130615234375
39.635284423828125 -42.6452445983886719 2.54237055778503418
34.4525718688964844 -37.8655509948730469 0.103872068226337433
41.6363029479980469 -39.2039909362792969 0.0507099181413650513
37.5525550842285156 -40.2823905944824219 0.090414777398109436
35.2160263061523438 -40.1416778564453125 2.68969488143920898
43.2947807312011719 -40.7035942077636719 2.68947792053222656
41.575225830078125 -37.8041839599609375 2.68951940536499023
44.5359001159667969 -38.6427536010742188 0.050344415009021759
36.7524909973144531 -42.6448898315429688 2.12056517601013184
41.1987991333007812 -42.6450729370117188 0.0940662994980812073
37.2556686401367188 -37.4551773071289062 0.138291597366333008
35.8103866577148438 -37.4550628662109375 2.65860414505004883
39.8343276977539062 -39.9049186706542969 2.68953561782836914
38.5206451416015625 -42.6890487670898438 0.124446108937263489
39.8430442810058594 -37.4550247192382812 0.400007724761962891
34.3552436828613281 -42.4812126159667969 2.72014617919921875
37.5507087707519531 -40.4439582824707031 2.56137824058532715
42.0480422973632812 -42.6448211669921875 2.53431010246276855
39.8979263305664062 -40.6898918151855469 0.0500675998628139496
44.5372505187988281 -42.5492286682128906 2.27710509300231934
42.7891731262207031 -37.4549293518066406 0.809946060180664062
43.2720069885253906 -40.7093429565429688 0.321204066276550293
35.3761825561523438 -40.6505622863769531 0.119293101131916046
38.9752883911132812 -39.1449508666992188 0.950300693511962891
41.7572746276855469 -39.7071914672851562 1.95917689800262451
36.392547607421875 -42.6450462341308594 0.180672973394393921
44.4385833740234375 -39.2641677856445312 2.00971674919128418
37.0952377319335938 -38.7472457885742188 1.58042335510253906
34.4507408142089844 -38.5467185974121094 2.00176525115966797
35.9951515197753906 -38.7840499877929688 0.0662659108638763428
41.8555335998535156 -41.3635711669921875 1.28055834770202637
34.450408935546875 -41.2836761474609375 1.44078230857849121
40.8541488647460938 -41.3431358337402344 2.6895594596862793
43.0732994079589844 -42.5343856811523438 1.17568349838256836
36.2444000244140625 -41.0233879089355469 1.66158509254455566
44.54913330078125 -40.9634056091308594 1.60033512115478516
42.9944076538085938 -38.7632598876953125 2.68936038017272949
35.8551826477050781 -37.4842453002929688 1.03941106796264648
40.0754737854003906 -37.5655860900878906 2.05846405029296875
38.4738922119140625 -39.04339599609375 2.68950343132019043
38.1993026733398438 -41.8834190368652344 2.68989372253417969
41.40447998046875 -37.5778999328613281 0.0500102192163467407
44.5537834167480469 -37.4551315307617188 1.08149528503417969
34.4911689758300781 -39.4151420593261719 0.69325101375579834
39.8512077331542969 -42.6459274291992188 1.00162804126739502
37.6955146789550781 -41.3946952819824219 1.25986158847808838
40.4584846496582031 -39.5184669494628906 0.949291825294494629
35.3733673095703125 -42.6449661254882812 1.51974678039550781
43.1403999328613281 -39.1213722229003906 0.0500209629535675049
38.4741897583007812 -37.4548835754394531 0.927506148815155029
36.23309326171875 -39.1044120788574219 2.68937993049621582
42.4096946716308594 -41.8879661560058594 0.0770330727100372314
35.65673828125 -41.8843231201171875 2.68940377235412598
37.434051513671875 -38.8637428283691406 0.0506544262170791626
37.1684532165527344 -37.4551239013671875 2.24302959442138672
38.4138946533203125 -42.69989013671875 1.5399329662322998
43.0586814880371094 -37.4545021057128906 2.19895148277282715
44.5497856140136719 -41.2815399169921875 0.179711923003196716
41.8554534912109375 -40.5627784729003906 0.100087344646453857
40.8348045349121094 -38.9636459350585938 2.6893467903137207
39.3979682922363281 -41.2244453430175781 2.68955016136169434
41.0362434387207031 -42.3661308288574219 1.64990842342376709
43.2950172424316406 -42.1625862121582031 2.68971443176269531
41.8559188842773438 -38.5791435241699219 1.2205120325088501
36.5975799560546875 -41.2245979309082031 0.0505883693695068359
38.5971870422363281 -41.1205711364746094 0.0500464551150798798
37.9154396057128906 -39.9613609313964844 1.33953487873077393
43.6653251647949219 -38.5119438171386719 1.11131656169891357
44.1223335266113281 -39.8059616088867188 0.8003082275390625
36.3599586486816406 -40.0828285217285156 0.768152415752410889
41.2833175659179688 -37.4552726745605469 1.48004150390625
40.0971946716308594 -38.6657371520996094 0.0492060668766498566
40.9061355590820312 -41.4004058837890625 0.448773860931396484
34.6457481384277344 -37.4551048278808594 1.39829719066619873
42.214141845703125 -41.4036293029785156 2.68948149681091309
36.9161033630371094 -41.5248146057128906 2.68948006629943848
38.5971260070800781 -38.3644332885742188 0.0500120483338832855
44.5340423583984375 -40.3643684387207031 2.68947100639343262
39.5725364685058594 -41.9108543395996094 0.0500670783221721649
37.3069000244140625 -42.5501747131347656 0.979266881942749023
43.6931571960449219 -37.7474250793457031 0.0503873378038406372
34.5369949340820312 -37.5506820678710938 2.6797642707824707
39.6942329406738281 -38.5224342346191406 2.68948769569396973
34.450714111328125 -39.7641525268554688 1.83983373641967773
35.3950881958007812 -41.8433189392089844 0.0500139817595481873
38.7148551940917969 -39.8841285705566406 0.05043802410364151
37.6301765441894531 -41.8174591064453125 0.0700399279594421387
44.5485267639160156 -42.0444374084472656 1.09995448589324951
34.6144485473632812 -41.3233795166015625 2.68959164619445801
36.3752479553222656 -40.4240913391113281 2.68929052352905273
34.3552284240722656 -41.193206787109375 0.241594091057777405
40.9745750427246094 -40.1247596740722656 2.68931746482849121
38.1333770751953125 -38.1582221984863281 1.80011224746704102
37.3746757507324219 -38.7023048400878906 2.68946695327758789
44.3352775573730469 -41.5049934387207031 2.68966436386108398
38.6529121398925781 -40.1647758483886719 2.68959331512451172
36.3160667419433594 -42.043060302734375 1.17861056327819824
40.7860374450683594 -38.2251396179199219 0.803843915462493896
42.3045692443847656 -38.2268791198730469 0.0500719957053661346
39.8347129821777344 -39.0484123229980469 1.72334790229797363
35.2963523864746094 -40.5494384765625 1.3982398509979248
41.9785194396972656 -42.6448783874511719 1.17698204517364502
42.6720504760742188 -39.804931640625 2.6895291805267334
40.7357711791992188 -42.4847869873046875 2.68940591812133789
36.9230842590332031 -37.4550247192382812 1.17697620391845703
43.5961990356445312 -41.642425537109375 0.826905310153961182
34.3551979064941406 -42.3532142639160156 1.42113018035888672
36.2074203491210938 -37.6531257629394531 0.0499809049069881439
40.8644523620605469 -39.9346542358398438 0.0500257983803749084
35.0939407348632812 -39.024627685546875 2.68948221206665039
44.5496330261230469 -38.123260498046875 1.89901149272918701
41.8307952880859375 -39.9039459228515625 0.919755399227142334
41.8325347900390625 -38.7433280944824219 2.32013773918151855
37.5763206481933594 -38.2042236328125 0.829689621925354004
39.7157402038574219 -39.6637344360351562 0.0505811721086502075
39.1065483093261719 -37.5935478210449219 1.72584009170532227
37.0587539672851562 -40.467742919921875 1.46443140506744385
43.7372817993164062 -39.4799613952636719 2.6894371509552002
35.2362442016601562 -39.6220588684082031 0.0661062747240066528
37.4493560791015625 -39.5444488525390625 2.16087722778320312
36.5352363586425781 -38.1623764038085938 2.68955159187316895
41.7470779418945312 -40.7216262817382812 2.02044224739074707
43.7729377746582031 -38.16448974609375 2.68953847885131836
34.9239654541015625 -38.5371322631835938 0.756063222885131836
42.235260009765625 -37.5659103393554688 1.67940700054168701
34.4510498046875 -40.4448890686035156 0.919270217418670654
35.9371376037597656 -41.1232986450195312 0.749842047691345215
40.2356529235839844 -42.6448402404785156 0.0196719672530889511
37.9951934814453125 -38.9594192504882812 1.2587590217590332
36.7960739135742188 -39.5836067199707031 0.0504250973463058472
38.2008628845214844 -37.4549331665039062 0.00517172645777463913
37.4768829345703125 -42.0391769409179688 1.98193359375
42.98992919921875 -42.644775390625 0.060252062976360321
42.5940284729003906 -39.9022865295410156 0.0505683645606040955
35.5354194641113281 -42.6448936462402344 0.580185651779174805
43.5947074890136719 -37.4828605651855469 1.42064940929412842
44.5501594543457031 -38.8809928894042969 0.959970474243164062
40.6146774291992188 -38.002105712890625 2.68948626518249512
44.2132530212402344 -40.3475189208984375 0.0506481602787971497
42.6383323669433594 -41.1648216247558594 0.8248443603515625
35.2733993530273438 -37.4550094604492188 0.181549564003944397
39.7945213317871094 -40.5739479064941406 2.06059885025024414
37.4632530212402344 -42.6448898315429688 2.7023780345916748
35.4558372497558594 -37.722015380859375 1.85667145252227783
43.8152084350585938 -42.5344352722167969 1.69999194145202637
41.559967041015625 -42.0230941772460938 0.640344798564910889
39.2950439453125 -42.53448486328125 1.71950161457061768
41.74725341796875 -41.9641494750976562 2.02038836479187012
37.9748611450195312 -39.5605278015136719 0.437093764543533325
37.2942886352539062 -42.6443977355957031 0.0413947217166423798
44.5352134704589844 -37.4548912048339844 0.0980906039476394653
39.9952201843261719 -38.6532096862792969 0.940772771835327148
40.1845817565917969 -42.360565185546875 1.89996254444122314
37.7960395812988281 -37.9220504760742188 2.68947625160217285
36.7352561950683594 -38.8636665344238281 0.594109535217285156
35.2548484802246094 -38.1434898376464844 2.68946361541748047
42.90771484375 -42.6448020935058594 2.03870058059692383
38.7542839050292969 -42.6453742980957031 2.4596855640411377
42.4543991088867188 -37.9040946960449219 2.68952012062072754
43.9136619567871094 -42.6448097229003906 0.799602866172790527
35.2122306823730469 -42.6449699401855469 2.59981918334960938
44.5322113037109375 -40.0840034484863281 1.63973283767700195
40.39617919921875 -37.5654487609863281 1.24032449722290039
35.5759620666503906 -40.884429931640625 2.39443802833557129
40.0568046569824219 -41.8022575378417969 2.68946075439453125
39.3946723937988281 -37.6809654235839844 2.68965840339660645
34.6591606140136719 -41.8790817260742188 0.70000225305557251
38.3540725708007812 -41.0238189697265625 2.68932533264160156
40.6957626342773438 -42.5346336364746094 0.797345638275146484
43.9739646911621094 -39.3632621765136719 0.0507489517331123352
34.4505081176757812 -40.7099647521972656 2.08815169334411621
38.9930152893066406 -42.6437416076660156 0.897259712219238281
37.156036376953125 -40.9532012939453125 0.749663829803466797
43.9960060119628906 -40.7623062133789062 0.785943388938903809
41.8348350524902344 -40.16607666015625 2.68438982963562012
41.2539596557617188 -38.42572021484375 0.0507051832973957062
37.5507469177246094 -41.18377685546875 2.07945942878723145
38.9793014526367188 -38.4598350524902344 2.21935176849365234
41.8767623901367188 -37.4551620483398438 0.860816478729248047
34.4966201782226562 -38.7604103088378906 0.0503363199532032013
37.774139404296875 -37.4550514221191406 1.48025941848754883
44.549560546875 -41.7638092041015625 1.89920353889465332
42.1530227661132812 -42.6447486877441406 0.348120063543319702
36.9123382568359375 -41.835845947265625 0.618550479412078857
36.4148368835449219 -37.5504188537597656 1.84085619449615479
39.0155220031738281 -37.5525321960449219 0.279186129570007324
34.4504127502441406 -39.5838508605957031 2.66009187698364258
40.52685546875 -37.79150390625 0.0500451624393463135
34.6674652099609375 -41.9919090270996094 2.10289502143859863
36.0556526184082031 -42.0434188842773438 1.98474776744842529
36.1355361938476562 -42.6449432373046875 2.65837574005126953
36.7751426696777344 -38.242279052734375 0.0506038442254066467
36.8547744750976562 -39.7628974914550781 2.68959569931030273
44.4982414245605469 -38.8222236633300781 2.68961596488952637
39.3571891784667969 -38.6717987060546875 0.383077681064605713
35.3144149780273438 -38.3435211181640625 0.0661796107888221741
41.1879081726074219 -40.5136375427246094 0.555204451084136963
40.7741508483886719 -39.0645103454589844 0.359995067119598389
40.295623779296875 -40.6464080810546875 2.68956589698791504
43.874664306640625 -37.4546165466308594 2.29974913597106934
37.9345970153808594 -40.8239517211914062 0.611184597015380859
39.1955718994140625 -39.4252891540527344 2.68959331512451172
43.45477294921875 -39.9824790954589844 0.0503423884510993958
41.5132637023925781 -39.4389724731445312 2.68985462188720703
42.8618049621582031 -37.6631889343261719 0.0498681068420410156
36.5316390991210938 -40.3615455627441406 0.0502874329686164856
40.297393798828125 -41.9437522888183594 0.458457469940185547
38.15155029296875 -40.1425247192382812 2.08200955390930176
36.0172576904296875 -39.7246246337890625 0.0500075630843639374
35.5143089294433594 -39.8231239318847656 0.774375081062316895
43.6551399230957031 -38.5398101806640625 0.17421935498714447
38.6738815307617188 -41.8988380432128906 0.0700032338500022888
37.9750480651855469 -38.9592933654785156 2.03938460350036621
38.035675048828125 -42.6835250854492188 0.73894423246383667
43.9798202514648438 -41.8005905151367188 0.0760722756385803223
40.4375762939453125 -39.4909172058105469 2.28061151504516602
42.6723823547363281 -41.9630546569824219 0.838000774383544922
37.4494400024414062 -39.4446754455566406 1.00085699558258057
44.5494155883789062 -38.1621055603027344 0.677431166172027588
38.4967117309570312 -39.1309852600097656 0.0500487275421619415
39.2547950744628906 -41.9833831787109375 2.68941831588745117
42.4368019104003906 -40.6645698547363281 2.68973898887634277
41.8294792175292969 -41.2219963073730469 0.494980901479721069
39.6185836791992188 -37.6118392944335938 1.11929142475128174
36.2359695434570312 -41.9045143127441406 0.0506400242447853088
34.630462646484375 -39.1033210754394531 1.38137483596801758
37.0013465881347656 -41.7685585021972656 1.3847956657409668
40.8353767395019531 -37.5653724670410156 2.10056209564208984
39.0951957702636719 -40.5425567626953125 0.050638202577829361
41.0390777587890625 -37.4552841186523438 0.760023534297943115
37.4461288452148438 -41.0323066711425781 0.0493194051086902618
41.394439697265625 -41.902923583984375 2.68934535980224609
35.9148979187011719 -39.8225746154785156 2.68942093849182129
44.533447265625 -39.5830879211425781 2.68957877159118652
42.3951377868652344 -39.0019378662109375 0.0505133531987667084
36.23333740234375 -41.4022903442382812 2.34027481079101562
40.654815673828125 -40.6669578552246094 0.0500269457697868347
41.5553932189941406 -41.0452728271484375 2.68960452079772949
41.8286018371582031 -40.6431694030761719 1.03922450542449951
35.7359542846679688 -38.7434768676757812 2.26958727836608887
34.451995849609375 -38.1715087890625 1.36093354225158691
34.496246337890625 -39.7826919555664062 0.0504346229135990143
42.3338508605957031 -39.1422500610351562 2.68977856636047363
37.8554191589355469 -42.690704345703125 2.0784766674041748
44.5494194030761719 -41.3227996826171875 0.939947187900543213
36.8342666625976562 -38.2041969299316406 0.898977577686309814
41.829132080078125 -39.1626853942871094 0.777850985527038574
37.9551506042480469 -39.5649833679199219 2.68920516967773438
43.9367103576660156 -42.5252571105957031 2.68961572647094727
43.27691650390625 -38.0670967102050781 0.579813539981842041
38.138336181640625 -38.6836891174316406 0.600362479686737061
42.9350204467773438 -41.4647789001464844 2.68955802917480469
