ply
format ascii 1.0
element vertex 256
comment vertices
property float x
property float y
property float z
end_header
41.1908340454101562 -48.9393310546875 1.42222678661346436
47.0743446350097656 -52.7871780395507812 3.66251206398010254
46.2264633178710938 -46.8096847534179688 4.08449697494506836
37.5214424133300781 -51.456146240234375 3.83597707748413086
43.6651840209960938 -53.0849189758300781 0.00304136564955115318
46.6348037719726562 -49.3892364501953125 0.120605327188968658
37.7618370056152344 -46.8054771423339844 3.65070724487304688
42.3152389526367188 -52.2097396850585938 4.03357601165771484
37.4752426147460938 -50.22247314453125 0.00408073235303163528
44.0596237182617188 -46.8048934936523438 0.106755495071411133
42.627716064453125 -46.8136215209960938 4.02109766006469727
38.382720947265625 -46.8048667907714844 0.0229383278638124466
44.8873634338378906 -49.9824600219726562 3.98963117599487305
46.63507080078125 -52.6638908386230469 0.576905310153961182
39.601837158203125 -49.2690773010253906 3.98960089683532715
43.6630096435546875 -50.0842704772949219 0.0506462119519710541
40.193359375 -51.4548454284667969 0.140682891011238098
46.6199264526367188 -46.8050155639648438 1.28033304214477539
44.5838966369628906 -53.0878448486328125 2.60262155532836914
42.2442817687988281 -49.4854164123535156 3.90944743156433105
40.1647567749023438 -46.8623771667480469 2.62626194953918457
37.5212249755859375 -49.2818794250488281 2.4165186882019043
43.9428939819335938 -48.5026931762695312 2.05005002021789551
39.8657798767089844 -51.461273193359375 2.72243666648864746
42.3139915466308594 -51.6257553100585938 1.53694868087768555
46.6250114440917969 -50.6189308166503906 2.30116152763366699
40.8744049072265625 -46.8051261901855469 0.218719944357872009
39.3852500915527344 -48.9017677307128906 0.0700716674327850342
42.5054359436035156 -46.8053970336914062 1.77701711654663086
44.4026527404785156 -50.9451675415039062 2.0500178337097168
46.5120887756347656 -48.4422264099121094 2.68851161003112793
37.7872085571289062 -51.455810546875 1.72246706485748291
44.4250335693359375 -47.9267005920410156 3.9899141788482666
45.44378662109375 -51.0044517517089844 0.0662486851215362549
44.9667320251464844 -46.8493537902832031 2.34233760833740234
45.3451919555664062 -51.9233627319335938 4.0198516845703125
37.475067138671875 -47.3078994750976562 1.67827105522155762
41.6839218139648438 -50.2263755798339844 0.0507646054029464722
42.4100074768066406 -48.0861854553222656 0.212524637579917908
41.119842529296875 -47.9646682739257812 3.97999286651611328
42.6831741333007812 -49.9055519104003906 2.05029845237731934
45.1103019714355469 -48.4870376586914062 0.638053357601165771
41.0817108154296875 -50.8871421813964844 3.98962020874023438
46.6200981140136719 -50.66912841796875 4.08177995681762695
37.485107421875 -48.5492286682128906 4.01753091812133789
42.5527763366699219 -53.0865592956542969 2.46191310882568359
42.3324012756347656 -48.3033790588378906 2.65762710571289062
43.4429702758789062 -50.9252471923828125 3.98958969116210938
45.0095481872558594 -52.3643760681152344 1.11976122856140137
39.2830886840820312 -47.4256324768066406 3.98967146873474121
45.319183349609375 -49.5593376159667969 1.90007078647613525
46.183502197265625 -53.0852088928222656 2.16200757026672363
43.7239303588867188 -53.0852470397949219 4.02043485641479492
37.8672943115234375 -48.6515922546386719 0.680863142013549805
43.0238113403320312 -51.566864013671875 0.0507025904953479767
39.1349868774414062 -50.8274421691894531 3.98984694480895996
38.6052055358886719 -51.4550132751464844 0.0972012802958488464
39.5264396667480469 -46.9000701904296875 1.11913299560546875
45.6175651550292969 -46.8039512634277344 0.0813656970858573914
46.2418174743652344 -49.1004219055175781 4.05964756011962891
40.8029098510742188 -48.3271827697753906 0.0700584203004837036
42.315338134765625 -52.9625587463378906 0.822999536991119385
42.3311347961425781 -51.1612586975097656 2.96210694313049316
43.5434036254882812 -46.9643058776855469 2.84107732772827148
46.5399131774902344 -48.346466064453125 1.1784665584564209
38.7053489685058594 -46.8558502197265625 2.38059425354003906
37.8671760559082031 -50.0275344848632812 3.98927903175354004
40.8840675354003906 -51.3594932556152344 1.64098703861236572
41.5605850219726562 -46.9101943969726562 3.06301689147949219
41.275634765625 -47.4899749755859375 1.41616487503051758
46.5402908325195312 -51.2858810424804688 0.961028933525085449
43.6002006530761719 -52.2057266235351562 2.05010151863098145
43.0115585327148438 -48.186309814453125 3.98978686332702637
39.2952537536621094 -51.4549026489257812 1.34432971477508545
43.1335906982421875 -49.0255813598632812 1.00202500820159912
45.1118812561035156 -48.5947990417480469 2.92624282836914062
46.4092903137207031 -46.965850830078125 2.66450190544128418
43.8011970520019531 -48.2036323547363281 0.0501583665609359741
39.3840675354003906 -50.2879524230957031 0.0500754863023757935
45.3254356384277344 -51.8407325744628906 2.54371309280395508
43.643096923828125 -49.4056663513183594 3.98971366882324219
43.9836158752441406 -47.3156509399414062 1.38038015365600586
44.3619384765625 -51.8438453674316406 0.050679575651884079
43.9644355773925781 -49.7643775939941406 2.50049209594726562
37.5229072570800781 -50.1652145385742188 1.33918666839599609
38.5028419494628906 -51.312896728515625 2.92421102523803711
45.0097198486328125 -49.8049392700195312 0.580582797527313232
41.1876869201660156 -48.9024505615234375 2.94114446640014648
40.4439048767089844 -46.8121528625488281 3.92877602577209473
42.5435218811035156 -46.805511474609375 0.454780429601669312
45.4660301208496094 -52.9673271179199219 0.050491921603679657
37.5065460205078125 -47.9031639099121094 2.8807075023651123
45.344482421875 -50.4834175109863281 2.82143068313598633
46.6246109008789062 -51.7858734130859375 2.86043310165405273
45.8877334594726562 -53.2843551635742188 3.53017377853393555
41.5625534057617188 -51.4547157287597656 0.404636353254318237
40.5666007995605469 -49.5857467651367188 0.0700987204909324646
46.6352882385253906 -49.6246070861816406 1.50002086162567139
45.0586357116699219 -46.902252197265625 3.67950153350830078
42.4101295471191406 -48.0048713684082031 1.44121336936950684
45.5809440612792969 -47.8637733459472656 2.05377006530761719
40.7834815979003906 -49.5865974426269531 3.98938155174255371
37.6476097106933594 -50.5074577331542969 2.58666896820068359
38.964569091796875 -47.8094902038574219 0.53008735179901123
46.5219764709472656 -49.6272850036621094 3.00213623046875
45.6471824645996094 -48.0443992614746094 4.05941247940063477
43.5054512023925781 -53.0854530334472656 1.23480761051177979
42.4688148498535156 -49.3214073181152344 0.0506386607885360718
37.4756965637207031 -51.322601318359375 0.576784074306488037
41.08282470703125 -51.4599800109863281 2.96393895149230957
38.7439079284667969 -48.465118408203125 3.90961360931396484
38.6032600402832031 -49.5604171752929688 0.659516870975494385
43.8455772399902344 -46.8095016479492188 3.95873117446899414
45.0293159484863281 -46.8035621643066406 1.08810865879058838
43.1892433166503906 -51.0881690979003906 2.05010414123535156
46.062591552734375 -52.0402145385742188 1.67700135707855225
44.8633460998535156 -53.0862808227539062 4.02899456024169922
45.0806922912597656 -51.0451393127441406 1.13972806930541992
46.6201286315917969 -51.806427001953125 3.99765872955322266
44.2252426147460938 -51.866058349609375 3.98962855339050293
37.4752426147460938 -47.5960655212402344 0.597452878952026367
43.1419296264648438 -52.5339889526367188 3.2420964241027832
46.0392799377441406 -50.2048301696777344 0.739612281322479248
41.1783180236816406 -47.7835960388183594 2.48476576805114746
44.4927711486816406 -49.1438789367675781 1.29089701175689697
40.0892982482910156 -51.3646774291992188 3.91077089309692383
42.1679496765136719 -50.80633544921875 3.98948788642883301
46.1248931884765625 -48.4337310791015625 0.177720099687576294
38.3840560913085938 -46.9011116027832031 1.25994181632995605
46.6351051330566406 -47.1475486755371094 0.258819550275802612
40.1055870056152344 -48.279541015625 3.97789788246154785
45.5833740234375 -50.8455886840820312 3.94133615493774414
37.5706100463867188 -48.3452796936035156 1.91801905632019043
45.8305130004882812 -51.981170654296875 0.503042995929718018
40.0521430969238281 -47.585662841796875 0.50810551643371582
44.8204421997070312 -48.9064064025878906 3.98949933052062988
42.2936668395996094 -49.6653633117675781 1.09949779510498047
44.3247222900390625 -49.2035636901855469 0.0507093071937561035
43.2601356506347656 -47.6850357055664062 2.05017828941345215
40.4723548889160156 -46.8051033020019531 1.56860363483428955
37.6654777526855469 -46.9011650085449219 2.61740946769714355
42.9261817932128906 -48.902618408203125 2.05054259300231934
46.63531494140625 -47.7017097473144531 1.98155701160430908
42.3283615112304688 -49.425384521484375 2.88083863258361816
44.3642234802246094 -50.8251914978027344 0.0508334264159202576
45.8044548034667969 -52.9893722534179688 1.22177803516387939
46.6209297180175781 -47.7626457214355469 4.06025552749633789
42.4082450866699219 -52.084259033203125 2.52563786506652832
45.7440528869628906 -51.0021743774414062 1.99333512783050537
43.0870819091796875 -47.60516357421875 0.804764151573181152
42.6435890197753906 -50.5455284118652344 0.0505066253244876862
40.0047111511230469 -50.2251014709472656 3.90955066680908203
44.9990882873535156 -47.5987892150878906 0.0502405166625976562
45.3433151245117188 -47.584075927734375 2.98210477828979492
44.4428672790527344 -53.0853004455566406 0.718850970268249512
44.4325523376464844 -47.6990890502929688 2.36427974700927734
42.5220756530761719 -46.9093780517578125 2.84041070938110352
41.4891319274902344 -49.2138519287109375 0.0500625446438789368
37.4845848083496094 -51.4377784729003906 2.84253525733947754
41.9526252746582031 -48.4809188842773438 3.90917086601257324
45.2498321533203125 -49.5245018005371094 3.19916772842407227
45.8092765808105469 -46.8051910400390625 1.84516751766204834
38.849273681640625 -49.8847846984863281 3.90969109535217285
45.2644157409667969 -52.7258224487304688 1.98943972587585449
42.2983169555664062 -52.215087890625 0.0644738450646400452
42.315826416015625 -53.0798263549804688 3.40392374992370605
44.9150276184082031 -47.8381767272949219 1.3337172269821167
39.3273200988769531 -46.8052177429199219 3.12098097801208496
41.3515815734863281 -46.8108406066894531 2.10591936111450195
41.6658554077148438 -47.1520767211914062 3.98863101005554199
46.6348533630371094 -51.3892593383789062 0.00759884994477033615
40.6437034606933594 -50.5448989868164062 0.0506467819213867188
45.5623817443847656 -49.2240142822265625 0.0505699589848518372
38.4235191345214844 -50.3655471801757812 0.0507766231894493103
44.2642936706542969 -52.547607421875 3.31846499443054199
37.9645042419433594 -47.7264289855957031 3.98938131332397461
44.6427497863769531 -50.9863815307617188 3.9895179271697998
45.3442726135253906 -52.68365478515625 3.00245809555053711
41.7429580688476562 -46.8018836975097656 0.959069013595581055
45.0029754638671875 -48.6452445983886719 1.98751211166381836
46.0058364868164062 -48.8255233764648438 1.98981308937072754
42.9439735412597656 -50.1285400390625 3.9895787239074707
45.9039421081542969 -49.9642143249511719 3.90967345237731934
44.3867988586425781 -52.8996810913085938 1.63702380657196045
44.482940673828125 -51.9055709838867188 1.98966777324676514
43.4826698303222656 -53.0885505676269531 2.48380374908447266
43.3625106811523438 -49.0227165222167969 0.0501552484929561615
38.4626846313476562 -51.4586601257324219 3.95935440063476562
37.4750442504882812 -49.2588272094726562 1.47942066192626953
42.3257064819335938 -50.7399253845214844 1.95956099033355713
42.3396987915039062 -52.5639152526855469 1.74162912368774414
41.6914024353027344 -51.4641265869140625 2.28494429588317871
38.3048629760742188 -51.3590888977050781 0.979272544384002686
40.1454200744628906 -51.3601799011230469 1.04140222072601318
37.8496017456054688 -49.7052536010742188 3.14110064506530762
46.2737197875976562 -52.5805740356445312 3.09495663642883301
43.9036674499511719 -52.3713340759277344 0.65807497501373291
39.4240608215332031 -51.0641822814941406 0.479649722576141357
37.5786018371582031 -48.8067741394042969 3.15865731239318848
42.0080223083496094 -48.7212104797363281 1.11045920848846436
44.102142333984375 -46.8521575927734375 2.15614032745361328
42.0255584716796875 -47.5048103332519531 2.06107234954833984
46.2449493408203125 -52.6055984497070312 4.06075239181518555
44.2912178039550781 -48.1592178344726562 0.784260809421539307
39.5347099304199219 -46.8054847717285156 1.99797928333282471
39.0863380432128906 -51.4593772888183594 2.20179390907287598
41.522216796875 -50.0660285949707031 3.98938155174255371
46.6349296569824219 -52.6642265319824219 1.46423149108886719
42.4110603332519531 -51.5041389465332031 0.67966926097869873
41.1787910461425781 -47.5846099853515625 0.455594420433044434
45.34991455078125 -51.2662315368652344 3.19984912872314453
43.3652000427246094 -51.9248733520507812 3.98915457725524902
45.0094451904296875 -50.3226356506347656 1.60414624214172363
42.3306655883789062 -50.3053779602050781 2.91908669471740723
45.6832466125488281 -48.4335784912109375 1.27833926677703857
41.7664985656738281 -51.4641838073730469 3.53792262077331543
46.6349639892578125 -51.4152450561523438 1.82090723514556885
40.2016372680664062 -48.82513427734375 0.42973676323890686
37.58013916015625 -50.6835289001464844 3.45891261100769043
46.6349296569824219 -50.2361869812011719 0.00515615753829479218
44.3647193908691406 -46.9627456665039062 3.08373761177062988
43.3625068664550781 -50.3848686218261719 2.50193667411804199
43.2274284362792969 -46.8052024841308594 1.06447720527648926
44.022796630859375 -50.1675300598144531 3.9898076057434082
46.5219688415527344 -50.4642715454101562 1.420501708984375
38.5868606567382812 -46.9026298522949219 3.8394618034362793
38.6476936340332031 -48.5075607299804688 0.161050722002983093
46.0657501220703125 -48.9530258178710938 3.20486927032470703
44.4919815063476562 -49.0419425964355469 2.51455950736999512
43.8044548034667969 -48.4862861633300781 3.98984932899475098
38.2427902221679688 -49.125518798828125 3.98934459686279297
41.1894683837890625 -48.7866783142089844 3.78155755996704102
39.208038330078125 -46.8049392700195312 0.11960022896528244
46.120880126953125 -50.0096855163574219 2.0511772632598877
39.9664154052734375 -51.455230712890625 1.84399580955505371
46.5617942810058594 -47.6878166198730469 3.03582596778869629
42.8255729675292969 -52.9894218444824219 0.178730472922325134
45.0790786743164062 -51.6429634094238281 0.478325515985488892
45.5885963439941406 -46.8074760437011719 2.91985082626342773
43.2179908752441406 -49.9118499755859375 0.715843021869659424
43.5822792053222656 -47.5810737609863281 3.98985767364501953
39.4248466491699219 -51.4591712951660156 3.4043266773223877
46.6354141235351562 -47.563690185546875 0.958604931831359863
39.5822868347167969 -48.0842323303222656 0.0701397135853767395
38.0245018005371094 -49.6250534057617188 0.0500812195241451263
40.0660247802734375 -46.8049545288085938 0.139711335301399231
37.60540771484375 -46.8053092956542969 1.04801845550537109
46.6254692077636719 -49.2776641845703125 2.2562403678894043
41.6108741760253906 -48.3939476013183594 0.0502522289752960205
43.3842239379882812 -47.5090675354003906 0.0501229055225849152
45.6247749328613281 -50.1237831115722656 0.0508218109607696533
42.9217643737792969 -49.0455055236816406 3.98980307579040527
41.208099365234375 -48.2403144836425781 0.920532763004302979
44.6676254272460938 -52.7010917663574219 0.0502056330442428589
43.264007568359375 -46.8074493408203125 2.04296565055847168
45.2858123779296875 -51.8394699096679688 1.6994636058807373
