ply
format ascii 1.0
element vertex 8
comment vertices
property float x
property float y
property float z
end_header
41.0998992919921875 -42.5255355834960938 1.37646651268005371
39.2591514587402344 -45.3956260681152344 1.28268826007843018
39.2826766967773438 -41.3815078735351562 1.36888885498046875
41.0939140319824219 -41.2261390686035156 2.7038884162902832
42.6072235107421875 -43.4272193908691406 1.28448367118835449
40.943359375 -48.0569801330566406 1.40018594264984131
41.104766845703125 -45.0976905822753906 2.7073066234588623
42.584991455078125 -45.9281234741210938 1.31271827220916748
