ply
format ascii 1.0
element vertex 256
comment vertices
property float x
property float y
property float z
end_header
39.2803955078125 -43.8929786682128906 1.79681873321533203
31.8198165893554688 -40.8544425964355469 0.0820135399699211121
42.6449928283691406 -48.1136054992675781 0.0410175733268260956
42.6456871032714844 -40.0305633544921875 0.0814763233065605164
34.239227294921875 -45.0868263244628906 2.65288209915161133
35.4315834045410156 -38.4363632202148438 2.63997817039489746
39.2967872619628906 -48.0495033264160156 2.65605711936950684
39.3492546081542969 -40.0052566528320312 2.3402712345123291
35.423614501953125 -42.3107795715332031 0.099131070077419281
42.6447067260742188 -44.294097900390625 0.038191724568605423
42.1529769897460938 -42.1532440185546875 2.6895756721496582
41.8722572326660156 -46.0533523559570312 2.68960094451904297
40.0537681579589844 -46.3348922729492188 0.0500045567750930786
33.3440322875976562 -42.2747116088867188 2.50195813179016113
40.2358970642089844 -41.7004127502441406 0.0499919503927230835
35.4293136596679688 -39.6133995056152344 0.122032329440116882
34.3161430358886719 -45.3397369384765625 0.0558201521635055542
35.4268608093261719 -40.9133110046386719 2.34060239791870117
41.5808448791503906 -48.3808441162109375 2.13999319076538086
41.563262939453125 -40.0052757263183594 2.21936392784118652
39.4514007568359375 -45.8723220825195312 2.68973016738891602
42.5498008728027344 -42.1741905212402344 0.50057530403137207
40.5227890014648438 -44.05096435546875 0.0500479601323604584
33.7085037231445312 -43.424896240234375 0.745913088321685791
40.0330696105957031 -42.1131248474121094 2.68940043449401855
31.8154163360595703 -40.8609809875488281 2.6405181884765625
42.6447639465332031 -44.132049560546875 2.33839845657348633
42.6454963684082031 -46.1950645446777344 0.722129106521606445
39.1853752136230469 -48.037567138671875 0.410741239786148071
35.451568603515625 -44.4980430603027344 1.29776144027709961
40.8126602172851562 -44.4124603271484375 2.68953466415405273
39.3499031066894531 -40.0054740905761719 0.503372490406036377
43.426544189453125 -41.2339401245117188 1.78090834617614746
40.9621315002441406 -47.851409912109375 0.442309737205505371
41.093475341796875 -42.5304641723632812 1.37983918190002441
32.9000358581542969 -41.9467048645019531 0.85835188627243042
41.0705795288085938 -40.3722038269042969 0.651264011859893799
34.4393196105957031 -43.4856414794921875 2.22064685821533203
39.2804718017578125 -43.0313682556152344 0.343160152435302734
39.28125 -45.3731307983398438 1.13931381702423096
39.2806434631347656 -41.3726387023925781 1.35956788063049316
41.4320297241210938 -45.3931465148925781 0.0503955334424972534
34.2525100708007812 -40.3070945739746094 0.892390847206115723
40.6944351196289062 -47.0880775451660156 2.68937015533447266
35.4230194091796875 -42.3336219787597656 1.65944921970367432
39.2809677124023438 -46.9329719543457031 1.56083858013153076
42.5494155883789062 -47.1930007934570312 1.89970755577087402
35.4285888671875 -39.5126266479492188 1.61984086036682129
41.435577392578125 -42.9297828674316406 0.0500185228884220123
35.4256019592285156 -41.1331710815429688 0.861292064189910889
34.8896942138671875 -43.9356346130371094 0.141440734267234802
35.4343185424804688 -38.3930168151855469 0.798021554946899414
40.1127357482910156 -48.0492782592773438 1.53966760635375977
41.0926322937011719 -41.232421875 2.68923425674438477
41.0330696105957031 -43.0516891479492188 2.68951153755187988
42.614471435546875 -43.4131317138671875 1.18027758598327637
34.0963630676269531 -44.6369667053222656 1.28062653541564941
42.614349365234375 -45.3727531433105469 1.7801816463470459
42.6452178955078125 -40.6180152893066406 2.71982407569885254
42.6452903747558594 -40.0732765197753906 1.41993343830108643
35.4049301147460938 -44.4507217407226562 2.63939356803894043
43.3918724060058594 -41.2085113525390625 0.180364683270454407
41.6527137756347656 -46.73291015625 0.0506586767733097076
39.2801628112792969 -44.4649925231933594 0.087276756763458252
32.0483741760253906 -41.0942001342773438 1.3417365550994873
41.5720977783203125 -41.4528427124023438 0.050754111260175705
39.2804336547851562 -42.6329612731933594 1.5800468921661377
41.4232063293457031 -41.2733879089355469 1.45826148986816406
40.4928054809570312 -45.0334739685058594 0.832304179668426514
40.6916351318359375 -45.6937446594238281 2.68977570533752441
40.4330902099609375 -40.1006088256835938 1.77890944480895996
42.3328704833984375 -48.1452827453613281 1.19961869716644287
39.3135871887207031 -43.0922660827636719 2.68952131271362305
39.2803077697753906 -41.193145751953125 2.64126229286193848
39.2806510925292969 -44.73193359375 2.64105057716369629
42.5322494506835938 -48.0334358215332031 2.68937039375305176
42.6453819274902344 -42.3734703063964844 1.66023886203765869
41.8524742126464844 -44.91357421875 2.68957304954528809
41.97357177734375 -44.7533302307128906 0.832221150398254395
40.36981201171875 -43.1722602844238281 0.810456573963165283
33.4686317443847656 -42.5140571594238281 0.0806111991405487061
39.2854042053222656 -41.1217308044433594 0.0510868839919567108
42.5316696166992188 -43.1939277648925781 0.0505808591842651367
40.0518150329589844 -40.8016014099121094 0.755214989185333252
39.1851272583007812 -46.9927711486816406 0.0412183143198490143
39.5512275695800781 -46.9913215637207031 2.68976545333862305
41.3541450500488281 -48.638031005859375 1.08217060565948486
34.6996078491210938 -43.7462806701660156 1.17610561847686768
41.5917282104492188 -44.0535011291503906 0.0507107190787792206
42.0730171203613281 -40.7305374145507812 0.739597141742706299
33.4703750610351562 -42.6726493835449219 1.45995974540710449
32.5609931945800781 -41.6060981750488281 2.23960494995117188
42.1729011535644531 -43.2139205932617188 2.68930339813232422
35.4283218383789062 -39.7933120727539062 2.63881993293762207
42.6453437805175781 -47.2721061706542969 0.699785113334655762
42.644989013671875 -45.3770217895507812 0.0590177513659000397
41.7133102416992188 -47.35382080078125 2.68920326232910156
40.1704750061035156 -40.5542564392089844 2.68942809104919434
39.9118995666503906 -44.1014175415039062 0.940199613571166992
39.993408203125 -47.456146240234375 0.678525984287261963
40.3545722961425781 -48.0492630004882812 2.54372000694274902
39.8328666687011719 -45.3141746520996094 0.0507403388619422913
35.4288864135742188 -42.1482696533203125 2.64234519004821777
34.0233230590820312 -44.4093780517578125 0.252939462661743164
39.9926948547363281 -43.8549461364746094 2.68953275680541992
39.2809562683105469 -42.0317497253417969 0.618953943252563477
40.8840522766113281 -44.1035957336425781 0.962194263935089111
39.2806167602539062 -40.3117713928222656 1.42066395282745361
41.9107170104980469 -42.9922866821289062 1.76014697551727295
40.7172927856445312 -41.79583740234375 0.879367053508758545
40.8133888244628906 -41.8321723937988281 1.97978603839874268
42.5294837951660156 -41.4134140014648438 2.05965995788574219
39.4924964904785156 -46.3536186218261719 0.832336962223052979
40.4551963806152344 -42.6201896667480469 0.049740910530090332
35.4279556274414062 -40.5754814147949219 0.101572781801223755
39.1848297119140625 -48.0120010375976562 1.38001489639282227
33.6271133422851562 -43.1632423400878906 2.62532138824462891
42.6146202087402344 -46.2734947204589844 2.07984042167663574
35.4296150207519531 -40.1530380249023438 0.938229262828826904
40.751861572265625 -46.9725837707519531 0.0507467985153198242
41.7109451293945312 -48.2876663208007812 0.104491248726844788
42.9136466979980469 -41.5092048645019531 1.05916702747344971
42.4594955444335938 -41.2073211669921875 0.0499977767467498779
33.9355049133300781 -44.1330490112304688 2.63839006423950195
39.2807960510253906 -46.0327377319335938 1.78023576736450195
40.172698974609375 -42.4291496276855469 1.57988548278808594
35.5118560791015625 -44.558685302734375 0.361149489879608154
42.6446685791015625 -44.2938575744628906 1.39633727073669434
32.5098762512207031 -41.5553359985351562 0.140639990568161011
41.5108795166015625 -43.8366508483886719 2.68958520889282227
35.4315910339355469 -38.3839111328125 1.70125687122344971
33.8290481567382812 -43.7989311218261719 1.63582968711853027
41.9870033264160156 -42.888641357421875 0.819854974746704102
40.6723670959472656 -40.8935966491699219 0.0511785969138145447
42.64508056640625 -45.3316574096679688 2.66582202911376953
34.6528549194335938 -40.0343704223632812 0.0776749178767204285
40.1296806335449219 -45.0134086608886719 2.68946003913879395
41.4572334289550781 -42.192413330078125 0.620059669017791748
41.4563713073730469 -40.3928260803222656 1.44060838222503662
34.223907470703125 -43.2615242004394531 0.05930299311876297
41.4568977355957031 -42.39404296875 2.22103142738342285
40.1715545654296875 -42.9720115661621094 2.68956232070922852
41.9365882873535156 -45.7111701965332031 0.821079671382904053
42.6449050903320312 -46.6940345764160156 0.0202247723937034607
39.2803573608398438 -42.1139907836914062 2.26188111305236816
40.91131591796875 -46.1317672729492188 0.0505756586790084839
41.612457275390625 -40.112640380859375 0.0504914671182632446
41.9734840393066406 -41.2929916381835938 2.68942737579345703
35.4251899719238281 -41.9727668762207031 0.880167543888092041
41.9636993408203125 -46.7346382141113281 0.829521477222442627
40.1325798034667969 -46.3549461364746094 2.68975019454956055
39.1851158142089844 -45.7431182861328125 0.357362180948257446
42.5484123229980469 -46.9136886596679688 2.68274760246276855
40.3465309143066406 -40.0052947998046875 0.480098307132720947
35.2683753967285156 -41.4912071228027344 0.128573581576347351
41.9792861938476562 -47.5141639709472656 0.220150798559188843
40.9321975708007812 -48.0494308471679688 1.619781494140625
35.0810813903808594 -44.1264114379882812 1.95665442943572998
39.2804908752441406 -43.3133430480957031 1.11895692348480225
35.4303779602050781 -41.5142173767089844 1.60066735744476318
40.0496749877929688 -43.3335838317871094 0.0506163574755191803
39.2807044982910156 -44.5730743408203125 1.3188176155090332
40.8937873840332031 -40.1004676818847656 2.6815035343170166
34.3023223876953125 -45.2864799499511719 1.72835361957550049
41.1719284057617188 -43.3132972717285156 0.811121106147766113
35.4302787780761719 -39.2326583862304688 0.839144766330718994
41.9897727966308594 -45.9937591552734375 0.0543814301490783691
42.6149978637695312 -45.2537002563476562 0.97882997989654541
40.7132301330566406 -45.0334396362304688 0.0489267632365226746
42.6454277038574219 -43.33477783203125 1.97719204425811768
39.8943061828613281 -42.5305938720703125 0.78033602237701416
41.0925407409667969 -46.3944549560546875 2.68963789939880371
40.812408447265625 -42.2724342346191406 2.68941545486450195
42.3717765808105469 -40.1006660461425781 2.18127059936523438
41.1730613708496094 -47.9342994689941406 2.68920063972473145
35.4267921447753906 -40.5924873352050781 1.59869003295898438
42.6455116271972656 -42.6726875305175781 2.37936639785766602
35.4308700561523438 -38.7582740783691406 0.116746492683887482
40.2510833740234375 -41.3734893798828125 2.68963956832885742
42.6294136047363281 -46.6190071105957031 1.36332011222839355
41.9584884643554688 -44.7262191772460938 0.0499886609613895416
41.5716552734375 -40.6350288391113281 2.68942546844482422
41.91107177734375 -40.0052604675292969 0.919310331344604492
42.6320838928222656 -40.820343017578125 1.25983989238739014
41.9539756774902344 -42.3327980041503906 0.0505462773144245148
39.2931938171386719 -47.1538467407226562 0.832444846630096436
39.7112274169921875 -42.2948417663574219 0.0509704574942588806
34.2937431335449219 -45.2583847045898438 0.889132082462310791
39.2806129455566406 -45.0332717895507812 1.92147648334503174
40.9511070251464844 -41.9822959899902344 0.101554892957210541
42.2331199645996094 -48.0493431091308594 1.96048426628112793
41.5401382446289062 -41.6563453674316406 2.10040712356567383
39.2804107666015625 -47.4332504272460938 2.11605525016784668
40.8318519592285156 -43.3737335205078125 0.0507539659738540649
35.4297065734863281 -39.1336441040039062 2.26001095771789551
34.0762901306152344 -44.5754776000976562 2.0588524341583252
41.1329154968261719 -45.0923042297363281 2.68943428993225098
39.3729248046875 -43.7306938171386719 0.0510151833295822144
32.5707740783691406 -41.615814208984375 1.50128746032714844
41.1524810791015625 -41.1533775329589844 0.78284841775894165
40.0320167541503906 -40.1012344360351562 1.14012622833251953
39.280548095703125 -40.8528556823730469 1.91969394683837891
42.6439361572265625 -43.7683830261230469 0.540081202983856201
39.2805595397949219 -40.6728324890136719 0.779617667198181152
39.2805328369140625 -44.0126152038574219 2.59897303581237793
39.9735565185546875 -44.4648780822753906 0.282046973705291748
39.8492660522460938 -45.6609764099121094 0.807107329368591309
40.03253173828125 -47.1137771606445312 0.0504638701677322388
39.75189208984375 -41.4335746765136719 0.601057708263397217
41.8720016479492188 -40.7737960815429688 0.0506140291690826416
42.6443595886230469 -42.6937370300292969 1.00050151348114014
40.8329048156738281 -42.530548095703125 0.719532251358032227
34.2201919555664062 -43.2657394409179688 1.38001012802124023
40.7129440307617188 -42.5306510925292969 2.04108476638793945
39.9731254577636719 -40.9539642333984375 0.0511461496353149414
33.431060791015625 -42.476531982421875 0.779677391052246094
32.1110153198242188 -41.1558876037597656 0.640959501266479492
40.5128593444824219 -48.0496025085449219 0.939962387084960938
41.45623779296875 -40.8990287780761719 2.05394434928894043
39.5921058654785156 -48.0495185852050781 2.01888847351074219
32.0886802673339844 -41.1342887878417969 2.04006648063659668
35.1216354370117188 -44.1672286987304688 0.792572915554046631
39.2786445617675781 -43.9743690490722656 0.701261520385742188
42.6457138061523438 -40.3544044494628906 0.68283534049987793
42.0542640686035156 -44.2513313293457031 2.68963217735290527
41.3321990966796875 -47.3731040954589844 0.0507142283022403717
33.9130668640136719 -44.0577964782714844 0.964903831481933594
40.9709243774414062 -44.6320381164550781 0.54090958833694458
42.6447181701660156 -44.6170082092285156 0.635820925235748291
40.65228271484375 -43.6930809020996094 2.68961000442504883
42.5512847900390625 -40.7320518493652344 2.00969552993774414
42.5495872497558594 -44.8140754699707031 2.15857505798339844
39.1845245361328125 -46.709808349609375 2.19427084922790527
39.7319374084472656 -44.97259521484375 0.832481145858764648
34.9285240173339844 -43.9741249084472656 2.6739194393157959
42.6143951416015625 -45.9136161804199219 1.3795696496963501
39.6916427612304688 -48.0494728088378906 0.939866244792938232
39.7931251525878906 -42.5308189392089844 2.1399223804473877
32.9924278259277344 -42.0376930236816406 0.200605124235153198
39.280609130859375 -43.2347030639648438 1.91945517063140869
39.1850433349609375 -42.0372047424316406 1.29609203338623047
41.8912315368652344 -48.048858642578125 0.699978470802307129
40.1111335754394531 -47.4088592529296875 2.68984007835388184
40.4131546020507812 -45.6326828002929688 0.0500117689371109009
33.8973312377929688 -42.9436874389648438 1.88531887531280518
35.4280166625976562 -40.0354652404785156 2.02002310752868652
42.6456260681152344 -47.3520965576171875 0.00321009103208780289
41.332244873046875 -41.8531761169433594 2.68990588188171387
42.1928367614746094 -43.7542991638183594 0.0503794364631175995
39.7718772888183594 -40.1007003784179688 1.79722690582275391
42.5489654541015625 -41.6337661743164062 2.68282413482666016
39.4117050170898438 -40.552337646484375 2.68942499160766602
42.0131568908691406 -40.100616455078125 1.63944387435913086
41.4565277099609375 -42.0125656127929688 1.52013099193572998
41.7670631408691406 -48.2081985473632812 1.54081451892852783
42.6449394226074219 -46.0501251220703125 0.0798223540186882019
