ply
format ascii 1.0
element vertex 227
comment vertices
property float x
property float y
property float z
end_header
49.4093666076660156 -41.3088150024414062 0.683693289756774902
52.5142631530761719 -37.6676063537597656 2.71151256561279297
47.4937210083007812 -37.68719482421875 2.67032814025878906
52.5691375732421875 -43.5104255676269531 2.69619131088256836
47.5746383666992188 -43.6707839965820312 2.71944594383239746
50.04827880859375 -37.5719261169433594 -0.0139610618352890015
52.6956253051757812 -39.9561500549316406 -0.0358036905527114868
47.5667037963867188 -39.0878982543945312 0.00644498690962791443
51.230987548828125 -43.7286338806152344 0.03364533931016922
47.5879249572753906 -40.6018943786621094 2.71458745002746582
48.1793708801269531 -43.5899009704589844 -0.000292461365461349487
49.9888572692871094 -38.461700439453125 2.70425224304199219
50.0518531799316406 -42.8015556335449219 2.69281721115112305
52.553558349609375 -37.6237525939941406 1.02021849155426025
52.4955101013183594 -42.0495185852050781 1.20993161201477051
47.3620452880859375 -41.7720184326171875 1.14112401008605957
50.5558509826660156 -39.53778076171875 0.0264175757765769958
49.4971656799316406 -40.3509140014648438 1.95152974128723145
49.7078628540039062 -43.6640739440917969 1.30102217197418213
51.0469322204589844 -37.6655158996582031 1.38525545597076416
48.4424819946289062 -42.1018600463867188 2.69907760620117188
48.4104576110839844 -39.059326171875 2.69508099555969238
49.4786415100097656 -38.9513626098632812 1.28367352485656738
52.6540298461914062 -41.8613662719726562 2.70600247383117676
52.5261573791503906 -43.6611671447753906 1.24097955226898193
48.1232337951660156 -40.2855033874511719 1.26930403709411621
50.1408004760742188 -42.5843162536621094 0.0202817823737859726
51.4444923400878906 -38.7198219299316406 2.70007777214050293
49.4760246276855469 -37.5745429992675781 1.39596092700958252
48.0228271484375 -43.1310768127441406 1.3583977222442627
48.49542236328125 -42.2067451477050781 0.0357901565730571747
48.9904670715332031 -43.672698974609375 2.46862363815307617
51.6688079833984375 -38.6973114013671875 0.48153272271156311
49.1485023498535156 -39.6683082580566406 0.016476016491651535
51.3041877746582031 -42.1402778625488281 2.7014005184173584
50.1323738098144531 -41.4134445190429688 2.71291208267211914
48.9272346496582031 -38.368133544921875 0.0356340110301971436
48.1794624328613281 -41.2089614868164062 1.27036583423614502
52.6201133728027344 -38.0621528625488281 1.28470242023468018
50.5347099304199219 -39.7298927307128906 2.71720433235168457
51.6809158325195312 -42.4334068298339844 0.0218069124966859818
48.8849716186523438 -37.8722000122070312 2.71448993682861328
49.5511550903320312 -40.1947402954101562 1.27737855911254883
49.4565887451171875 -41.537994384765625 1.35859787464141846
52.4549903869628906 -41.1618995666503906 0.00254808366298675537
49.3382911682128906 -43.527801513671875 0.00941052660346031189
51.3267364501953125 -37.6218452453613281 0.35106232762336731
52.670867919921875 -38.7848854064941406 0.0118446052074432373
51.7002067565917969 -40.3092002868652344 0.303054690361022949
48.3837852478027344 -38.2665824890136719 1.35073471069335938
52.4738502502441406 -40.0787391662597656 2.70984554290771484
52.5017509460449219 -42.6447067260742188 1.57436728477478027
50.8505630493164062 -37.6720771789550781 2.62784528732299805
47.5397605895996094 -42.6935005187988281 0.125183403491973877
47.4289321899414062 -40.0239219665527344 1.39464974403381348
50.2576828002929688 -40.6203956604003906 0.0211842227727174759
47.488128662109375 -40.5810050964355469 -0.0537708587944507599
52.5389823913574219 -43.1931114196777344 0.0238045733422040939
47.3699607849121094 -37.610931396484375 1.38049972057342529
50.5855636596679688 -38.4920845031738281 0.0383349023759365082
48.6904144287109375 -41.0079421997070312 2.71034884452819824
50.2035026550292969 -38.1689224243164062 1.21310794353485107
47.3865776062011719 -38.1391868591308594 1.10884261131286621
51.5358657836914062 -43.2215538024902344 2.70741486549377441
48.3343772888183594 -41.3973045349121094 1.38207662105560303
49.4731941223144531 -42.7850418090820312 1.38208258152008057
47.4684104919433594 -39.5248146057128906 2.68312788009643555
52.5623855590820312 -38.7038002014160156 2.70683407783508301
49.4483489990234375 -39.2230186462402344 1.30596065521240234
50.0636367797851562 -43.6790657043457031 1.39699459075927734
52.61944580078125 -39.936676025390625 1.23989629745483398
48.4690666198730469 -40.0500030517578125 2.70453548431396484
48.6658554077148438 -40.5402946472167969 0.00388796254992485046
51.8077354431152344 -37.8611259460449219 1.17929553985595703
47.46429443359375 -40.843719482421875 1.24713611602783203
49.7120552062988281 -38.8932228088378906 0.0271112117916345596
49.4552001953125 -42.065887451171875 2.66730618476867676
47.6818084716796875 -41.5081138610839844 2.71429252624511719
50.2854118347167969 -41.6055183410644531 0.0294374618679285049
50.3065032958984375 -43.5728378295898438 0.0100362412631511688
47.4011878967285156 -39.701934814453125 1.15229082107543945
49.1721000671386719 -37.8699531555175781 1.11522984504699707
47.8503227233886719 -41.5252799987792969 -0.00441581755876541138
47.7564926147460938 -42.72857666015625 2.71899127960205078
51.5937767028808594 -39.7343521118164062 2.70665717124938965
51.5465087890625 -39.4857978820800781 0.0294152647256851196
47.5329818725585938 -38.5844993591308594 2.71656298637390137
48.1239700317382812 -39.8098373413085938 0.0447045005857944489
51.8139419555664062 -37.6721611022949219 1.22652435302734375
49.2742843627929688 -42.8243904113769531 1.15746498107910156
52.1746292114257812 -43.6678123474121094 1.53578352928161621
52.5147552490234375 -40.9793205261230469 2.70083475112915039
49.4290313720703125 -42.0929450988769531 0.0285165198147296906
49.4383049011230469 -38.3785018920898438 1.20297574996948242
51.8679389953613281 -41.6765060424804688 0.24482429027557373
52.5086708068847656 -41.6792106628417969 1.57066547870635986
50.8164558410644531 -43.5803337097167969 2.67574501037597656
48.9715499877929688 -42.803558349609375 2.70176959037780762
49.7438278198242188 -37.6940994262695312 2.27110576629638672
52.5642166137695312 -42.2753677368164062 -0.0264159552752971649
52.2565879821777344 -42.6709823608398438 2.70734930038452148
48.0990867614746094 -38.3911666870117188 0.0133064649999141693
50.951080322265625 -42.9137077331542969 0.0393630415201187134
50.2044296264648438 -40.4871788024902344 2.73565459251403809
48.3726730346679688 -37.6048965454101562 0.239775031805038452
50.3409576416015625 -37.8022232055664062 1.90787887573242188
48.2266120910644531 -37.5806236267089844 1.30292952060699463
48.1430015563964844 -43.6514930725097656 1.19417202472686768
51.7291755676269531 -41.4318733215332031 2.72490382194519043
50.9413681030273438 -38.0496063232421875 1.28110837936401367
50.9396858215332031 -42.089111328125 -0.0255851522088050842
52.4698982238769531 -42.9077606201171875 1.15953230857849121
48.5804862976074219 -39.105499267578125 0.0194815471768379211
47.3071479797363281 -41.2151298522949219 1.4449688196182251
47.4404487609863281 -43.1758537292480469 1.28796005249023438
49.1930351257324219 -38.6264915466308594 2.71126222610473633
47.3937263488769531 -38.8371620178222656 1.13555741310119629
49.1092414855957031 -43.668792724609375 1.43646955490112305
48.8724784851074219 -40.7365493774414062 1.15241813659667969
48.7290115356445312 -43.0311508178710938 0.039474785327911377
48.8927993774414062 -41.4242172241210938 0.00724485889077186584
49.8685302734375 -39.929351806640625 0.0270088445395231247
50.9560012817382812 -41.3687019348144531 2.73820710182189941
48.1973457336425781 -40.5462875366210938 1.25308012962341309
50.5350494384765625 -42.177764892578125 2.71592354774475098
50.7037925720214844 -38.9370994567871094 2.69526886940002441
49.4890594482421875 -41.1073875427246094 2.56806588172912598
49.7643585205078125 -40.7510223388671875 1.25788724422454834
47.9290351867675781 -43.1451606750488281 1.14334607124328613
48.1212348937988281 -38.0688552856445312 2.70899438858032227
52.3607063293457031 -38.331878662109375 1.15431535243988037
49.7678031921386719 -39.7457466125488281 2.71509909629821777
48.6333961486816406 -37.5679664611816406 1.4285280704498291
51.9657363891601562 -43.6817131042480469 0.109214939177036285
48.3110466003417969 -43.223724365234375 2.70085239410400391
51.8771286010742188 -38.1032867431640625 2.69978833198547363
48.3296852111816406 -38.2767829895019531 1.1942138671875
50.8882408142089844 -42.8387336730957031 2.69816851615905762
47.7698173522949219 -38.2845306396484375 1.33648276329040527
49.7913742065429688 -38.1859893798828125 0.220671385526657104
49.6672897338867188 -43.4315452575683594 2.73010134696960449
49.2597808837890625 -37.7482032775878906 0.0113312788307666779
52.4940223693847656 -37.5506362915039062 1.36452066898345947
52.4822502136230469 -39.3742256164550781 1.1895061731338501
47.3488388061523438 -38.1726608276367188 1.25459277629852295
52.5175437927246094 -40.0583992004394531 1.46321558952331543
49.5248222351074219 -40.634765625 1.24974358081817627
52.2552490234375 -39.3461570739746094 2.71311569213867188
48.9749069213867188 -41.2337913513183594 1.3154444694519043
48.9456710815429688 -39.5069313049316406 2.71255350112915039
49.4526596069335938 -40.9515342712402344 1.32727456092834473
52.202911376953125 -40.4852485656738281 0.0397127196192741394
52.434417724609375 -37.5663909912109375 1.18818175792694092
51.6801567077636719 -40.9929733276367188 0.322236388921737671
49.4687614440917969 -38.2731513977050781 1.35500752925872803
51.013397216796875 -39.0489501953125 0.0164834596216678619
50.0070610046386719 -37.5710563659667969 1.20464634895324707
49.2534332275390625 -40.2053375244140625 1.1581108570098877
52.0345993041992188 -38.9493637084960938 -0.000410813838243484497
51.674896240234375 -43.1153373718261719 0.0253536105155944824
50.8837776184082031 -38.2995719909667969 2.71432209014892578
47.5349693298339844 -39.9287643432617188 0.090172596275806427
52.5441703796386719 -43.1871795654296875 1.32345902919769287
50.3692054748535156 -43.6694183349609375 1.43193602561950684
49.12481689453125 -37.5761222839355469 1.34652113914489746
50.9374160766601562 -38.7201576232910156 0.68810194730758667
47.5589332580566406 -42.0576362609863281 0.19884026050567627
47.975738525390625 -40.9312667846679688 1.07454931735992432
50.0819168090820312 -39.1152839660644531 2.70631027221679688
47.419586181640625 -43.1583633422851562 1.23740935325622559
49.3795089721679688 -40.7561569213867188 0.0520142987370491028
48.1107254028320312 -42.8465309143066406 0.0117113254964351654
47.5647163391113281 -43.3482894897460938 1.07197403907775879
52.693267822265625 -41.73828125 0.16123296320438385
48.9279823303222656 -41.5865821838378906 2.70842742919921875
50.3795814514160156 -38.1150436401367188 0.802231669425964355
52.38299560546875 -40.3311271667480469 1.13364624977111816
47.3864097595214844 -40.4695816040039062 1.16463816165924072
50.7845268249511719 -38.2303848266601562 1.31038522720336914
49.8381423950195312 -43.1274452209472656 0.0126904472708702087
48.0252037048339844 -40.9691238403320312 2.710693359375
49.5564956665039062 -42.8669586181640625 1.31100964546203613
52.0405540466308594 -42.0366897583007812 2.71115541458129883
51.7047767639160156 -43.7047767639160156 1.32456755638122559
48.7272987365722656 -43.6695060729980469 0.111188292503356934
47.5460777282714844 -42.1516876220703125 2.71582841873168945
47.5342330932617188 -37.563507080078125 1.12146520614624023
47.4867782592773438 -40.5637893676757812 1.31246399879455566
49.2686386108398438 -42.767120361328125 0.0197740569710731506
52.0515594482421875 -40.5698013305664062 2.71018743515014648
49.2470207214355469 -38.7174835205078125 1.18926239013671875
52.1363868713378906 -39.6631889343261719 0.0161388963460922241
48.5892181396484375 -38.440826416015625 2.69655847549438477
49.5533638000488281 -41.58807373046875 1.27920627593994141
51.2383308410644531 -38.4370880126953125 -0.0127913989126682281
51.1938972473144531 -37.6808395385742188 1.51406049728393555
49.8539962768554688 -41.1494560241699219 0.0241403281688690186
48.8020439147949219 -40.5828208923339844 1.28336727619171143
50.7483749389648438 -40.7300643920898438 2.7200767993927002
48.2721061706542969 -41.5180130004882812 2.69649457931518555
48.6998786926269531 -41.2405509948730469 1.38068532943725586
47.4143486022949219 -39.3687820434570312 1.36970531940460205
52.034576416015625 -37.669830322265625 1.39031505584716797
51.5266914367675781 -38.1053848266601562 0.977781414985656738
49.9742889404296875 -38.1712074279785156 1.31539011001586914
49.9405746459960938 -41.3044967651367188 1.38286221027374268
50.1199684143066406 -43.6790122985839844 1.18813550472259521
51.5094413757324219 -37.6530532836914062 2.71684861183166504
52.5281143188476562 -43.1754646301269531 1.16173398494720459
52.5417404174804688 -40.4806137084960938 1.37143933773040771
49.1163673400878906 -38.9627799987792969 0.0105405040085315704
48.1364631652832031 -40.61492919921875 0.233134105801582336
51.7362213134765625 -37.5941734313964844 1.15328145027160645
49.5006141662597656 -43.4912338256835938 1.17493748664855957
52.5511856079101562 -42.5153999328613281 1.31802737712860107
50.7402458190917969 -37.792938232421875 -0.0179887227714061737
52.7176170349121094 -38.1616630554199219 2.19648838043212891
48.0279464721679688 -39.6419677734375 2.69478225708007812
49.462738037109375 -40.2329635620117188 1.38081669807434082
52.4991989135742188 -42.1273155212402344 1.54096508026123047
51.050323486328125 -39.4124069213867188 2.71697187423706055
51.9105720520019531 -38.371429443359375 0.0309935454279184341
47.4037704467773438 -38.522125244140625 -0.0283740255981683731
51.1743659973144531 -41.7711029052734375 0.167016088962554932
50.3468513488769531 -39.0121116638183594 0.0250599831342697144
50.2392349243164062 -37.8150672912597656 2.71025609970092773
49.5020103454589844 -43.6151084899902344 1.24108123779296875
