ply
format ascii 1.0
element vertex 235
comment vertices
property float x
property float y
property float z
end_header
47.9984207153320312 -34.9795722961425781 0.0198387801647186279
34.1769142150878906 -44.8268699645996094 1.47162020206451416
35.4512825012207031 -33.5350761413574219 1.36522006988525391
43.4846458435058594 -44.2624168395996094 -0.00772851333022117615
41.3107566833496094 -37.6558761596679688 2.69142365455627441
52.4522018432617188 -37.8476905822753906 3.77437806129455566
35.1971778869628906 -39.3481788635253906 1.27371859550476074
38.9207992553710938 -42.4538078308105469 2.72151970863342285
42.7834663391113281 -33.3200263977050781 0.232814878225326538
35.5673332214355469 -36.19757080078125 4.42464685440063477
52.0546112060546875 -33.4769630432128906 1.43009662628173828
39.2520027160644531 -33.8534393310546875 2.70930957794189453
45.5784988403320312 -37.4321441650390625 2.73174619674682617
51.1017036437988281 -38.0527877807617188 0.0785496383905410767
43.1514854431152344 -40.2735939025878906 0.241404175758361816
38.5372238159179688 -36.7470512390136719 0.0280739571899175644
35.2968101501464844 -42.5412940979003906 4.48182058334350586
45.6274871826171875 -33.4395713806152344 2.71856856346130371
50.5162849426269531 -35.0082893371582031 4.20920801162719727
39.5773429870605469 -40.16357421875 0.0368482358753681183
37.4157867431640625 -44.2417945861816406 1.13626527786254883
43.5450401306152344 -36.734954833984375 0.03301987424492836
42.355316162109375 -42.3109169006347656 2.70281600952148438
49.0200767517089844 -37.3817520141601562 2.59367728233337402
37.6491889953613281 -39.0612602233886719 1.45146858692169189
34.1952972412109375 -36.5113449096679688 1.41916656494140625
48.9390678405761719 -33.2351455688476562 1.4567410945892334
35.8852882385253906 -42.1894111633300781 1.46880042552947998
42.8854789733886719 -34.9713668823242188 2.71299242973327637
40.4332160949707031 -44.2112655639648438 1.16173839569091797
37.568359375 -36.1162605285644531 2.69196987152099609
46.8081016540527344 -37.534820556640625 0.00480151083320379257
40.0365715026855469 -34.4030799865722656 0.0134604126214981079
43.2219123840332031 -39.6349678039550781 2.71158552169799805
41.4107131958007812 -38.2188796997070312 0.0447808429598808289
45.3893661499023438 -34.856597900390625 0.00581505894660949707
50.9761199951171875 -35.8284568786621094 1.40342879295349121
40.00341796875 -40.0777969360351562 2.70070028305053711
47.3041267395019531 -35.4923973083496094 2.71583962440490723
50.8075180053710938 -39.2052650451660156 2.17011308670043945
37.8223114013671875 -41.82135009765625 0.380000948905944824
41.773773193359375 -42.3923797607421875 1.31195068359375
36.1293220520019531 -35.8921394348144531 1.12480783462524414
35.9783363342285156 -44.0814628601074219 3.27317976951599121
34.70904541015625 -43.3946380615234375 0.105500265955924988
35.8327293395996094 -34.7682647705078125 2.01894402503967285
37.8070831298828125 -33.918792724609375 1.18548154830932617
49.1351318359375 -36.9538688659667969 0.0217534787952899933
49.3642311096191406 -33.3879623413085938 1.22163677215576172
33.946380615234375 -40.7333259582519531 1.38389003276824951
43.4554710388183594 -44.2508773803710938 1.3898162841796875
37.5309906005859375 -38.7511634826660156 0.0285361427813768387
50.2951545715332031 -37.3327369689941406 4.24261903762817383
33.6389923095703125 -37.8841476440429688 0.849688470363616943
43.4513587951660156 -37.4453849792480469 1.53775787353515625
52.4268684387207031 -34.4272384643554688 3.64727354049682617
39.1898193359375 -37.4422035217285156 1.3862994909286499
33.8026466369628906 -42.7165336608886719 2.43928074836730957
41.5098915100097656 -36.2297630310058594 0.491337120532989502
41.3619346618652344 -33.3756637573242188 2.60477733612060547
36.1015586853027344 -37.5193748474121094 1.91899991035461426
47.1240882873535156 -33.3437347412109375 1.26326584815979004
44.95867919921875 -35.4043922424316406 2.67572903633117676
39.8112983703613281 -42.3827247619628906 0.181184321641921997
41.7212982177734375 -40.64080810546875 1.37338924407958984
41.1656303405761719 -44.2537612915039062 1.4232715368270874
37.7215690612792969 -44.0685501098632812 1.31571030616760254
52.586273193359375 -37.0434455871582031 1.42522728443145752
38.3535041809082031 -40.7277565002441406 1.38219940662384033
43.8311691284179688 -33.3443641662597656 1.32892227172851562
51.51171875 -34.55792236328125 0.12169259786605835
43.1701698303222656 -34.9571723937988281 1.23169326782226562
35.6568412780761719 -40.2853584289550781 1.51352047920227051
45.0937995910644531 -37.4127998352050781 1.23171257972717285
37.4650154113769531 -33.3896446228027344 1.36027801036834717
47.4634017944335938 -37.4408340454101562 1.53409469127655029
39.558319091796875 -38.3353729248046875 0.0228391103446483612
35.7386436462402344 -44.3613433837890625 1.31551575660705566
50.8667831420898438 -33.5048789978027344 3.47384262084960938
43.3403549194335938 -42.9076461791992188 1.17480039596557617
34.9401359558105469 -37.160980224609375 3.36606574058532715
42.751220703125 -38.6998291015625 1.22953081130981445
39.4065132141113281 -44.1770095825195312 1.39594054222106934
34.2108879089355469 -35.6008987426757812 3.7863926887512207
35.6829109191894531 -41.1889839172363281 0.725017189979553223
50.4901542663574219 -37.650421142578125 1.49269449710845947
34.6636123657226562 -34.9583816528320312 1.22005224227905273
34.8626937866210938 -44.1857490539550781 4.38438606262207031
40.3294906616210938 -33.2591361999511719 1.25684559345245361
41.3570404052734375 -40.2554931640625 0.0241073071956634521
37.6350860595703125 -37.8692779541015625 1.38397598266601562
52.3150749206542969 -35.228424072265625 1.56696629524230957
44.9563674926757812 -33.3390922546386719 0.601259708404541016
51.2961616516113281 -35.9213600158691406 3.475860595703125
46.5599365234375 -35.8952903747558594 0.0414442941546440125
47.3666877746582031 -33.8373565673828125 2.70293664932250977
40.0443077087402344 -36.2154579162597656 0.0259662419557571411
37.4760246276855469 -42.4502983093261719 1.50191760063171387
41.8465042114257812 -34.6164093017578125 0.0401637405157089233
41.7426567077636719 -39.1473884582519531 1.32919061183929443
50.3059349060058594 -33.7954139709472656 1.27052342891693115
37.7577133178710938 -35.3566017150878906 0.066753484308719635
39.9598236083984375 -40.9590835571289062 1.34811568260192871
35.1045494079589844 -37.1507911682128906 1.29168045520782471
35.3515052795410156 -42.5005683898925781 3.41079854965209961
40.6390190124511719 -37.4515037536621094 1.22711682319641113
39.0803031921386719 -35.9844284057617188 2.69999337196350098
48.2951126098632812 -36.1706504821777344 1.42197179794311523
37.4682121276855469 -40.2898597717285156 1.11298930644989014
42.2487907409667969 -34.0015220642089844 1.33489012718200684
42.3851165771484375 -36.4157447814941406 2.70796537399291992
51.3981132507324219 -33.8287124633789062 4.50521755218505859
51.3293037414550781 -39.0096435546875 1.33343791961669922
36.5140304565429688 -35.39007568359375 3.60758662223815918
51.0817794799804688 -38.44451904296875 3.89400410652160645
37.4180488586425781 -34.7875862121582031 1.44092869758605957
37.4918670654296875 -36.4057464599609375 1.31839287281036377
34.2581214904785156 -35.1067924499511719 1.78444325923919678
46.44561767578125 -33.9444541931152344 0.102449484169483185
50.3425254821777344 -36.8408355712890625 2.95697283744812012
37.4396018981933594 -41.4294242858886719 1.38991940021514893
43.1338615417480469 -40.3300285339355469 1.26898252964019775
52.0201454162597656 -36.9246292114257812 2.88516020774841309
44.8521919250488281 -36.2934532165527344 0.0345818400382995605
48.1030158996582031 -33.4601707458496094 0.0615029074251651764
39.1620216369628906 -33.3783683776855469 0.108784019947052002
41.2004547119140625 -33.3647003173828125 0.0409926474094390869
47.6728134155273438 -36.3569984436035156 1.08498179912567139
38.55010986328125 -39.3031272888183594 1.09200859069824219
36.2860832214355469 -36.8894538879394531 3.58696675300598145
42.7417640686035156 -33.5640182495117188 2.69970417022705078
34.5612983703613281 -44.4820671081542969 3.29779243469238281
42.6563301086425781 -40.8892173767089844 2.71018433570861816
49.00177001953125 -37.5359420776367188 1.40772354602813721
43.7173118591308594 -36.076202392578125 2.70598673820495605
42.2719268798828125 -37.1407852172851562 0.0391608215868473053
52.6091575622558594 -38.3426971435546875 1.63815593719482422
38.41851806640625 -43.0058822631835938 0.0326467379927635193
39.9134674072265625 -41.4800949096679688 2.69575333595275879
35.1199913024902344 -36.0191307067871094 0.103144988417625427
46.2508697509765625 -34.6154708862304688 2.69450283050537109
35.9317817687988281 -43.2801132202148438 1.17669057846069336
45.8020362854003906 -33.3507194519042969 1.40453624725341797
42.60986328125 -35.8205070495605469 0.0325829014182090759
41.861602783203125 -37.8860321044921875 1.38575601577758789
44.18505859375 -34.2789497375488281 0.0393152609467506409
46.8388404846191406 -36.8182640075683594 2.70357227325439453
37.9547958374023438 -37.4601707458496094 1.38766610622406006
42.7375221252441406 -41.5824775695800781 1.27819192409515381
39.0023269653320312 -35.3176689147949219 0.0599036216735839844
47.0098533630371094 -34.6584739685058594 1.2659599781036377
42.3385848999023438 -43.5813865661621094 0.0289655551314353943
40.2373046875 -43.5124588012695312 1.35262084007263184
33.837066650390625 -43.2131996154785156 1.17546188831329346
40.1832847595214844 -36.9609336853027344 2.71490192413330078
40.4487190246582031 -38.8159637451171875 2.71430206298828125
38.7717666625976562 -33.3598861694335938 1.34275209903717041
50.0338478088378906 -38.0791168212890625 2.96191167831420898
43.4539260864257812 -38.1000213623046875 0.772763252258300781
33.9573135375976562 -42.9332389831542969 3.70998096466064453
39.0225372314453125 -41.3377418518066406 0.501800835132598877
36.3244247436523438 -36.2454452514648438 1.69778978824615479
52.0985984802246094 -37.4412574768066406 1.13491725921630859
50.0785751342773438 -34.1826972961425781 1.12899541854858398
52.1586952209472656 -35.1031875610351562 1.21924185752868652
44.1478919982910156 -34.2631111145019531 2.71547102928161621
42.3887405395507812 -43.5821685791015625 2.70007610321044922
38.6530647277832031 -39.9367446899414062 2.70075440406799316
37.3375320434570312 -37.4885292053222656 1.24735844135284424
41.3148956298828125 -40.2301902770996094 2.69508218765258789
49.2427177429199219 -34.4993743896484375 0.0193681083619594574
40.4696426391601562 -39.3135147094726562 0.0377959311008453369
34.6999549865722656 -41.8793144226074219 2.52321386337280273
34.4963722229003906 -41.6369705200195312 1.2100757360458374
41.5024261474609375 -34.7574081420898438 2.71680355072021484
35.5212440490722656 -44.8905410766601562 2.04830694198608398
39.3790359497070312 -37.1104278564453125 1.05774557590484619
36.1580047607421875 -43.3697280883789062 1.77388250827789307
37.7271957397460938 -43.0309257507324219 2.71254205703735352
40.3204498291015625 -34.3880996704101562 2.7106931209564209
44.4512443542480469 -37.0490913391113281 2.71254062652587891
48.2690162658691406 -34.7165870666503906 2.44576215744018555
42.4255142211914062 -38.3101539611816406 2.72545289993286133
48.0027046203613281 -37.5845603942871094 0.528177082538604736
40.6188430786132812 -41.5268707275390625 1.11329555511474609
49.0153961181640625 -33.23876953125 1.37428247928619385
51.8297500610351562 -33.8293380737304688 2.8487401008605957
39.5640602111816406 -43.4959716796875 0.100871190428733826
34.6544075012207031 -39.8020553588867188 1.3083946704864502
37.5189170837402344 -43.3513069152832031 1.18901288509368896
43.3885345458984375 -42.9586563110351562 2.02768874168395996
43.3000946044921875 -42.51153564453125 0.149927720427513123
43.8070487976074219 -35.01007080078125 1.40457046031951904
38.27545166015625 -38.0891036987304688 1.21909666061401367
44.0170249938964844 -35.5202674865722656 0.0237618926912546158
35.8780784606933594 -43.3738212585449219 4.27523422241210938
35.3118972778320312 -35.9351959228515625 1.3079230785369873
33.9351539611816406 -36.1678237915039062 2.85330772399902344
43.7561569213867188 -37.441497802734375 1.27777934074401855
49.3623199462890625 -36.3551559448242188 1.36761236190795898
43.2484245300292969 -38.6082038879394531 1.56113529205322266
38.4104576110839844 -34.7913856506347656 2.72451996803283691
37.4593124389648438 -40.2070808410644531 1.46475708484649658
50.2441864013671875 -36.9401741027832031 1.15401983261108398
43.3440132141113281 -44.0631027221679688 1.4747774600982666
33.8752365112304688 -44.2433013916015625 1.13578104972839355
37.462310791015625 -41.333709716796875 1.28769683837890625
34.6534461975097656 -42.7151565551757812 1.50433790683746338
42.3621902465820312 -39.1766471862792969 0.0496939718723297119
43.3912391662597656 -41.765594482421875 1.52126598358154297
43.7384147644042969 -33.3486976623535156 1.13578510284423828
45.8137016296386719 -37.0218467712402344 0.0219524092972278595
36.3047981262207031 -40.3940696716308594 1.17201685905456543
38.8423538208007812 -41.1646270751953125 2.7054440975189209
41.1318359375 -34.0356636047363281 1.31331467628479004
41.0449485778808594 -36.8963279724121094 0.051278289407491684
48.0193634033203125 -33.2358665466308594 1.49931955337524414
38.681732177734375 -42.2789230346679688 0.514356851577758789
35.0221290588378906 -37.2254142761230469 1.44604694843292236
48.0120048522949219 -36.5989570617675781 2.71099281311035156
36.4030799865722656 -35.2271575927734375 1.55482792854309082
39.580413818359375 -34.0320625305175781 1.22273123264312744
41.4524917602539062 -41.5868721008300781 1.28956317901611328
49.3584175109863281 -34.3304519653320312 1.5008094310760498
50.1279411315917969 -38.2741661071777344 1.2254260778427124
44.54205322265625 -37.2893562316894531 0.0492999032139778137
41.2498092651367188 -44.247650146484375 1.15951836109161377
40.1571731567382812 -38.0126266479492188 1.19400990009307861
41.1685523986816406 -44.1537361145019531 1.39009428024291992
36.37799072265625 -43.0897331237792969 2.94255542755126953
38.7400779724121094 -43.6054267883300781 1.39755129814147949
43.1999778747558594 -39.1691513061523438 1.20957064628601074
37.4875984191894531 -35.3705635070800781 1.26347875595092773
39.8617668151855469 -42.9923782348632812 1.5449758768081665
40.8459129333496094 -43.0120925903320312 1.27537333965301514
