ply
format ascii 1.0
element vertex 10
comment vertices
property float x
property float y
property float z
end_header
51.0469322204589844 -37.6655158996582031 1.38525545597076416
48.4424819946289062 -42.1018600463867188 2.69907760620117188
48.4104576110839844 -39.059326171875 2.69508099555969238
49.4786415100097656 -38.9513626098632812 1.28367352485656738
48.49542236328125 -42.2067451477050781 0.0357901565730571747
48.5804862976074219 -39.105499267578125 0.0194815471768379211
48.6333961486816406 -37.5679664611816406 1.4285280704498291
50.7483749389648438 -40.7300643920898438 2.7200767993927002
47.4143486022949219 -39.3687820434570312 1.36970531940460205
52.5417404174804688 -40.4806137084960938 1.37143933773040771
