ply
format ascii 1.0
element vertex 11
comment vertices
property float x
property float y
property float z
end_header
42.4987716674804688 -46.8001174926757812 1.80051064491271973
40.8791046142578125 -51.3603935241699219 1.5630180835723877
39.2979621887207031 -51.4538040161132812 1.46859884262084961
37.5234832763671875 -50.1661872863769531 1.42061853408813477
46.6356925964355469 -49.6222000122070312 1.43870842456817627
43.5151824951171875 -53.082061767578125 1.35782909393310547
38.3827667236328125 -46.8924713134765625 1.34678924083709717
40.4734268188476562 -46.7958221435546875 1.64335072040557861
39.5352821350097656 -46.8023834228515625 1.97001481056213379
46.5273170471191406 -50.4659957885742188 1.3580322265625
39.9807624816894531 -51.4596824645996094 1.75324249267578125
