ply
format ascii 1.0
element vertex 18
comment vertices
property float x
property float y
property float z
end_header
41.4190788269042969 -42.5529747009277344 1.33496510982513428
39.5702743530273438 -39.8645896911621094 1.21868443489074707
41.6153831481933594 -38.4657974243164062 2.70544600486755371
37.8663978576660156 -37.5067291259765625 1.39069926738739014
39.6118888854980469 -37.1390533447265625 1.34158968925476074
42.6317863464355469 -39.9016571044921875 1.30717062950134277
38.5643844604492188 -42.53656005859375 1.33277308940887451
41.5790977478027344 -39.1789779663085938 1.23459875583648682
38.4844284057617188 -39.3398818969726562 2.70570993423461914
41.4646377563476562 -41.7388343811035156 0.0105436220765113831
38.1513099670410156 -38.418853759765625 1.34942483901977539
40.2118377685546875 -37.5089950561523438 1.33733165264129639
38.5204849243164062 -37.8494224548339844 0.0186069086194038391
39.8935317993164062 -41.5698966979980469 1.28480899333953857
38.5423507690429688 -37.5060882568359375 1.47275376319885254
39.5889396667480469 -37.8872566223144531 1.3198084831237793
39.7519989013671875 -42.8666343688964844 1.3100895881652832
41.2757720947265625 -40.6335678100585938 1.38393831253051758
