ply
format ascii 1.0
element vertex 9
comment vertices
property float x
property float y
property float z
end_header
38.9459915161132812 -38.4263153076171875 1.3840256929397583
41.4190788269042969 -42.5529747009277344 1.33496510982513428
41.8316802978515625 -40.747833251953125 1.41349482536315918
38.9725723266601562 -43.4868659973144531 1.31559348106384277
41.5790977478027344 -39.1789779663085938 1.23459875583648682
42.66064453125 -37.9752578735351562 1.31613373756408691
40.6394805908203125 -37.9754562377929688 1.31031477451324463
41.2757720947265625 -40.6335678100585938 1.38393831253051758
41.8806114196777344 -42.9099273681640625 1.38622045516967773
