ply
format ascii 1.0
element vertex 256
comment vertices
property float x
property float y
property float z
end_header
40.1460304260253906 -45.0914268493652344 0.197017878293991089
32.3451423645019531 -30.3919811248779297 2.64700222015380859
43.8482513427734375 -33.5020256042480469 0.204686954617500305
32.4462051391601562 -39.9737396240234375 2.98731803894042969
43.4706001281738281 -51.6696548461914062 0.040098138153553009
39.3658943176269531 -38.4560279846191406 2.9896700382232666
38.7471046447753906 -30.4497871398925781 2.67965388298034668
34.0962944030761719 -45.0733184814453125 0.0597025491297245026
35.0877723693847656 -35.1687545776367188 0.350244790315628052
43.7439117431640625 -40.7944183349609375 0.523916542530059814
36.2499465942382812 -40.9253654479980469 0.384399443864822388
39.5326042175292969 -34.5085983276367188 0.767426788806915283
43.7449951171875 -36.9676551818847656 2.96995306015014648
39.8096237182617188 -49.4900970458984375 0.00873067323118448257
43.6371574401855469 -47.4322891235351562 0.0402755849063396454
43.5889434814453125 -44.0052146911621094 2.9899594783782959
35.3930740356445312 -30.2521686553955078 0.0132597070187330246
32.3451156616210938 -36.0139312744140625 2.94829487800598145
39.5474624633789062 -42.3187370300292969 2.95280337333679199
35.6051864624023438 -37.9071578979492188 2.98934841156005859
35.74603271484375 -32.5924491882324219 2.98936986923217773
32.2273406982421875 -41.9419174194335938 0.0296920929104089737
32.2272987365722656 -33.168853759765625 0.073352910578250885
41.8466720581054688 -33.3551177978515625 3.02610945701599121
41.7104682922363281 -37.8090324401855469 0.353660941123962402
33.3465957641601562 -38.1107444763183594 0.350505352020263672
37.5864334106445312 -37.4295768737792969 0.370308727025985718
37.1048927307128906 -43.9888496398925781 0.123129099607467651
40.5041084289550781 -40.7895431518554688 0.350473254919052124
37.5240936279296875 -35.4656753540039062 2.93088006973266602
41.9741363525390625 -40.1267623901367188 2.98970484733581543
35.206390380859375 -41.8554153442382812 3.02946901321411133
39.7575263977050781 -31.3394241333007812 0.0505933724343776703
42.5072860717773438 -43.3911018371582031 0.350801646709442139
40.8700981140136719 -36.0494728088378906 2.9894263744354248
32.7468414306640625 -33.1709861755371094 2.98941874504089355
37.0275955200195312 -33.1399803161621094 0.350975662469863892
37.5492439270019531 -40.435089111328125 2.89175248146057129
43.8478507995605469 -36.1877555847167969 0.11211983859539032
38.91143798828125 -33.1544914245605469 2.98908185958862305
32.6422920227050781 -30.2523708343505859 0.0079207979142665863
34.9057502746582031 -35.3895530700683594 2.98944234848022461
32.2277641296386719 -35.7635765075683594 0.170915275812149048
40.8809242248535156 -51.8083610534667969 0.0400731824338436127
34.5064849853515625 -32.5111122131347656 0.800623655319213867
34.838104248046875 -30.3647270202636719 2.50619626045227051
41.1652374267578125 -47.294647216796875 0.0401223674416542053
38.5238304138183594 -42.0978050231933594 0.340339332818984985
41.2653350830078125 -43.8580665588378906 2.31654000282287598
34.85845947265625 -42.8509330749511719 0.345250129699707031
41.5266304016113281 -33.3546943664550781 0.405026018619537354
42.4831733703613281 -49.577880859375 0.0404131971299648285
35.6075782775878906 -38.6137542724609375 0.35050848126411438
43.7449226379394531 -38.4661827087402344 1.22632789611816406
43.6497688293457031 -34.5908279418945312 2.32777953147888184
43.6493034362792969 -41.7154121398925781 2.90799736976623535
34.0261497497558594 -40.3724365234375 0.350495457649230957
37.5484046936035156 -30.8423614501953125 0.778185427188873291
38.5324172973632812 -39.6493377685546875 0.350196987390518188
39.6206550598144531 -37.0129508972167969 1.24772679805755615
41.4682998657226562 -35.5693168640136719 0.350919246673583984
33.2270088195800781 -41.8552818298339844 1.99117445945739746
43.5695724487304688 -45.2488861083984375 0.171383306384086609
39.0424919128417969 -47.1892662048339844 0.31479257345199585
33.2087669372558594 -38.010284423828125 2.98924660682678223
41.8222808837890625 -37.9103965759277344 2.82225322723388672
35.5253677368164062 -39.8916511535644531 2.3300933837890625
37.6676979064941406 -35.3495750427246094 0.350514888763427734
41.7479057312011719 -41.890411376953125 1.59706032276153564
39.646240234375 -40.4124755859375 2.20790433883666992
37.5493316650390625 -37.532318115234375 2.47334885597229004
40.4086723327636719 -42.8700027465820312 0.350659996271133423
38.2681427001953125 -45.4522933959960938 -0.644388318061828613
36.7062797546386719 -30.8142051696777344 2.98941755294799805
32.5057373046875 -43.95159912109375 0.109480895102024078
32.3456039428710938 -39.6914405822753906 1.06873798370361328
32.5099372863769531 -34.5076751708984375 1.60957372188568115
35.0087394714355469 -36.9407997131347656 1.07394862174987793
43.7447166442871094 -39.4092788696289062 2.9320979118347168
32.3447647094726562 -31.6930084228515625 1.26880669593811035
38.6845321655273438 -32.5903778076171875 1.0855705738067627
37.06396484375 -39.11968994140625 1.54964029788970947
41.6386260986328125 -39.5633277893066406 1.18578684329986572
39.5444755554199219 -43.9148445129394531 1.65131545066833496
36.2454338073730469 -35.7555694580078125 1.66967606544494629
37.6628150939941406 -33.9879417419433594 1.89032661914825439
36.6888542175292969 -41.7595252990722656 1.92786717414855957
40.4251708984375 -33.4508934020996094 1.9292832612991333
33.2685813903808594 -36.6338920593261719 1.39140355587005615
39.0687904357910156 -36.3710899353027344 2.98953366279602051
34.0300827026367188 -39.1265525817871094 1.70841002464294434
34.0263328552246094 -31.9307899475097656 2.98928451538085938
42.3875770568847656 -35.7396240234375 1.91597330570220947
41.8287506103515625 -45.578826904296875 0.119663432240486145
43.6496849060058594 -42.5157012939453125 1.33037197589874268
33.9269638061523438 -30.913970947265625 1.13041603565216064
33.6844329833984375 -34.0481643676757812 0.350093990564346313
36.0660667419433594 -31.6927089691162109 0.951488077640533447
36.18365478515625 -34.2519340515136719 2.98899292945861816
37.5495491027832031 -32.3341865539550781 2.33043217658996582
40.1561088562011719 -38.5046310424804688 0.350089073181152344
34.0654106140136719 -40.4756431579589844 2.98899245262145996
39.5340003967285156 -34.6947822570800781 2.65685105323791504
34.4917106628417969 -33.7487258911132812 2.98964095115661621
42.8658218383789062 -33.3548088073730469 1.54937684535980225
39.62689208984375 -31.8104782104492188 2.19015908241271973
40.9076423645019531 -41.39398193359375 2.98942208290100098
38.7658233642578125 -43.8750877380371094 0.208989173173904419
35.7077064514160156 -44.811370849609375 0.170180276036262512
38.3867416381835938 -41.7896881103515625 1.97044360637664795
42.9071121215820312 -34.7956390380859375 0.350941598415374756
34.9235000610351562 -41.449859619140625 1.13387405872344971
36.730926513671875 -42.4367713928222656 0.240016505122184753
32.3764305114746094 -38.0137252807617188 1.63269364833831787
37.5493087768554688 -40.6103134155273438 1.27071964740753174
39.3290252685546875 -30.3551731109619141 1.22951030731201172
33.9264602661132812 -36.6117401123046875 2.98969507217407227
33.9892845153808594 -35.1717605590820312 1.74210202693939209
39.0495986938476562 -38.6140518188476562 1.47011125087738037
35.5272293090820312 -33.5859184265136719 0.350430101156234741
42.3437080383300781 -42.8513603210449219 2.77333354949951172
40.6075210571289062 -39.4110260009765625 2.98865747451782227
40.8175773620605469 -37.9112434387207031 1.62219846248626709
39.7570838928222656 -33.1623687744140625 0.0615099817514419556
33.2441139221191406 -34.6310272216796875 2.98943710327148438
40.4067268371582031 -35.7391548156738281 1.52778756618499756
36.2667388916015625 -36.5109214782714844 2.98927187919616699
37.6947250366210938 -36.3332633972167969 1.56954705715179443
43.7451667785644531 -36.8526573181152344 1.45171523094177246
43.7245674133300781 -44.0051002502441406 1.21267879009246826
42.5659828186035156 -41.889923095703125 0.350409090518951416
37.4306182861328125 -38.9526786804199219 2.98975610733032227
39.1832389831542969 -35.8896102905273438 0.350544512271881104
41.7648506164550781 -34.8720779418945312 2.98933291435241699
43.1061897277832031 -39.4741020202636719 0.349893718957901001
36.1072731018066406 -30.3550014495849609 1.57588279247283936
39.6440391540527344 -41.6835479736328125 1.19877874851226807
43.6495361328125 -40.5669822692871094 1.97202670574188232
41.1512298583984375 -50.1920356750488281 0.0401721112430095673
43.3441200256347656 -33.3548126220703125 3.02807354927062988
38.2929534912109375 -33.8856124877929688 0.350565135478973389
33.6210823059082031 -41.8556671142578125 0.410406976938247681
41.2028350830078125 -48.7113838195800781 0.0403791628777980804
39.9473075866699219 -43.6886482238769531 2.98979926109313965
32.4692573547363281 -31.7753257751464844 2.91979765892028809
36.1673240661621094 -37.3109664916992188 0.350622266530990601
32.227935791015625 -37.168426513671875 0.154225319623947144
41.3855819702148438 -44.2335090637207031 0.333728879690170288
34.70404052734375 -38.9726486206054688 2.98958325386047363
32.3452072143554688 -41.07391357421875 1.22916245460510254
35.5053443908691406 -39.8888816833496094 0.930255651473999023
42.4995803833007812 -37.8094635009765625 1.48825693130493164
38.7465553283691406 -39.6911544799804688 2.98937511444091797
34.1058769226074219 -36.2138099670410156 0.350681602954864502
43.8483505249023438 -37.5418548583984375 0.0526038184762001038
36.4036064147949219 -34.8493194580078125 0.350526273250579834
42.4985198974609375 -48.1615104675292969 0.0404101237654685974
32.3754768371582031 -33.1726837158203125 1.45049607753753662
36.1444244384765625 -40.89111328125 2.9872899055480957
33.2903289794921875 -32.1564521789550781 0.350144833326339722
39.02899169921875 -45.8523292541503906 0.410615086555480957
39.9508857727050781 -50.8180007934570312 0.0403530113399028778
32.7234382629394531 -30.3550186157226562 1.33389174938201904
36.7216949462890625 -39.5846443176269531 0.350924879312515259
42.4093704223632812 -46.7712821960449219 0.0400726757943630219
42.0501632690429688 -51.1805076599121094 0.0402708761394023895
42.3472213745117188 -41.51043701171875 2.98975658416748047
33.7652778625488281 -43.6351203918457031 0.314795970916748047
39.6472625732421875 -39.9179725646972656 0.990990042686462402
42.4035377502441406 -40.8359222412109375 1.16970443725585938
33.6130905151367188 -30.4858741760253906 2.96868014335632324
43.535491943359375 -50.3573570251464844 0.0399808697402477264
40.1448440551757812 -46.4125595092773438 0.0406797118484973907
43.6329994201660156 -48.9725227355957031 0.0402452424168586731
40.0068016052246094 -48.0120620727539062 0.040808405727148056
43.8476676940917969 -42.8532028198242188 0.0975992605090141296
40.4852638244628906 -37.8109588623046875 2.95287656784057617
37.5333175659179688 -41.8551712036132812 2.93520617485046387
43.3263359069824219 -38.1929244995117188 2.98947978019714355
43.7450027465820312 -35.2925300598144531 1.18994545936584473
32.2270851135253906 -34.453460693359375 0.110350236296653748
32.5057296752929688 -41.4925498962402344 2.98934769630432129
40.92547607421875 -42.7089080810546875 2.7735750675201416
38.9874839782714844 -40.9105148315429688 0.35059627890586853
38.9470024108886719 -37.6157989501953125 0.350345373153686523
32.3449363708496094 -35.7668914794921875 1.68919384479522705
37.1839561462402344 -33.3507499694824219 2.9895470142364502
36.0458869934082031 -36.0571517944335938 0.453396230936050415
43.7448539733886719 -35.9002494812011719 2.29198098182678223
37.6322479248046875 -30.3552036285400391 2.10853242874145508
41.2420654296875 -43.0595932006835938 1.35940361022949219
32.227386474609375 -38.7182426452636719 0.300972908735275269
37.6505546569824219 -38.7735252380371094 0.506148874759674072
34.2456474304199219 -39.1516227722167969 0.350490152835845947
38.4118995666503906 -34.2957649230957031 2.98961091041564941
33.5160026550292969 -39.2800865173339844 2.98443007469177246
37.3224067687988281 -35.1019363403320312 1.51995754241943359
33.9859390258789062 -41.8550605773925781 2.97128009796142578
35.5478935241699219 -31.2330532073974609 2.98932147026062012
37.4881172180175781 -41.8550567626953125 0.987919032573699951
37.1721992492675781 -32.1700325012207031 1.19108545780181885
32.497802734375 -37.1506233215332031 2.53503727912902832
34.4069328308105469 -37.7928428649902344 2.98966741561889648
35.0649490356445312 -35.7653884887695312 1.45131385326385498
35.12603759765625 -30.9225673675537109 1.10041153430938721
32.3451576232910156 -38.7621498107910156 2.64020848274230957
34.5415802001953125 -37.9911842346191406 0.349802762269973755
32.2275505065917969 -40.4305992126464844 0.136301159858703613
36.5353584289550781 -30.3426742553710938 0.340068399906158447
35.8630409240722656 -43.4901161193847656 0.338336825370788574
42.6469993591308594 -33.2377471923828125 0.0304244253784418106
37.8739662170410156 -43.0907859802246094 0.340132921934127808
42.4047775268554688 -39.0211524963378906 2.98990321159362793
42.7711715698242188 -38.3346748352050781 0.349972128868103027
39.1231575012207031 -41.1322097778320312 2.9895024299621582
42.564849853515625 -43.8898658752441406 2.25446701049804688
38.6266288757324219 -31.5830497741699219 2.99028873443603516
42.863983154296875 -35.2940826416015625 2.9897613525390625
38.6052513122558594 -37.5080718994140625 2.98944592475891113
38.4677772521972656 -30.2596035003662109 0.335316210985183716
38.3875236511230469 -40.4205856323242188 2.07106208801269531
42.5654296875 -44.652008056640625 0.266179859638214111
41.4075088500976562 -42.0517959594726562 0.349424600601196289
40.8726310729980469 -41.0350914001464844 1.42691445350646973
39.5467300415039062 -42.7517776489257812 1.69108045101165771
36.190460205078125 -38.9117622375488281 2.98941779136657715
36.153961181640625 -40.7578353881835938 1.68592095375061035
35.7260017395019531 -38.9890518188476562 1.62804996967315674
40.4044113159179688 -36.0300216674804688 0.349447369575500488
43.0459632873535156 -40.59051513671875 2.9894871711730957
40.3011322021484375 -33.8920745849609375 2.98869204521179199
43.6496124267578125 -42.9717330932617188 2.39035415649414062
39.6594505310058594 -37.1919441223144531 2.43974494934082031
33.5450248718261719 -35.1915283203125 0.350353837013244629
39.9490623474121094 -43.9095993041992188 0.51063072681427002
36.4682846069335938 -31.3717861175537109 1.9758002758026123
39.6270751953125 -31.9515743255615234 1.00910115242004395
35.1284446716308594 -36.5302352905273438 2.9887700080871582
41.5474433898925781 -33.354949951171875 1.77005863189697266
43.649261474609375 -39.6067581176757812 1.36390388011932373
40.2871017456054688 -37.2109031677246094 0.350604355335235596
33.3474693298339844 -35.7304191589355469 2.51081562042236328
32.9708480834960938 -39.5884132385253906 2.04923772811889648
32.8264694213867188 -42.8717041015625 0.230572968721389771
34.8145523071289062 -44.02642822265625 0.320427805185317993
39.5328445434570312 -33.4959678649902344 1.24523079395294189
37.69384765625 -37.9493141174316406 1.44700193405151367
42.3526420593261719 -42.7708244323730469 1.27800071239471436
34.0647544860839844 -37.4518699645996094 1.35463237762451172
39.3008880615234375 -42.883209228515625 0.34032595157623291
38.2855377197265625 -36.5745048522949219 0.35027843713760376
36.386260986328125 -35.3335838317871094 2.98957347869873047
35.5473403930664062 -32.4537010192871094 0.351500093936920166
38.6187400817871094 -31.7205562591552734 1.75252997875213623
40.6526069641113281 -42.1119842529296875 1.1697314977645874
33.6050453186035156 -33.3725814819335938 2.34267354011535645
