ply
format ascii 1.0
element vertex 256
comment vertices
property float x
property float y
property float z
end_header
40.1748008728027344 -41.0520210266113281 1.88052761554718018
42.6452865600585938 -37.4972648620605469 0.0199869163334369659
37.8108367919921875 -37.51007080078125 0.0984022468328475952
40.2708320617675781 -37.5738983154296875 2.68963384628295898
42.6248588562011719 -42.7986526489257812 0.0214904248714447021
37.5116043090820312 -42.5478858947753906 0.29889187216758728
37.5505790710449219 -39.4154815673828125 2.68941569328308105
42.6228790283203125 -39.4163360595703125 2.39856910705566406
40.2304229736328125 -38.8736381530761719 0.0507011637091636658
42.4696235656738281 -42.2746162414550781 2.68943524360656738
37.8537826538085938 -40.0452651977539062 0.239744037389755249
38.2906379699707031 -42.4956817626953125 2.68946933746337891
40.0429458618164062 -42.9313087463378906 0.239894449710845947
42.6134796142578125 -40.1758041381835938 0.0405190959572792053
42.3308982849121094 -37.39501953125 2.10164642333984375
40.356903076171875 -42.9267196655273438 2.64079928398132324
38.9301719665527344 -38.4205474853515625 1.47996330261230469
40.8908424377441406 -41.1236648559570312 0.0499869920313358307
40.810272216796875 -39.2751693725585938 1.82052075862884521
39.0457534790039062 -41.4193496704101562 0.0499326512217521667
37.5218734741210938 -41.13458251953125 1.75985431671142578
40.8234939575195312 -37.3945693969726562 0.977116167545318604
39.2499122619628906 -39.7751541137695312 2.68933558464050293
41.4106674194335938 -42.5495986938476562 1.31928408145904541
41.8298606872558594 -40.7413101196289062 1.49997258186340332
38.9928627014160156 -43.4890289306640625 1.46248161792755127
42.5340766906738281 -38.814208984375 0.91936725378036499
38.7638702392578125 -37.1352500915527344 2.44528341293334961
39.5855712890625 -39.8406639099121094 1.055930495262146
37.5441398620605469 -38.7162857055664062 0.979519844055175781
39.7445106506347656 -37.2363395690917969 0.0151520716026425362
41.3308982849121094 -41.3948631286621094 2.68929767608642578
38.7510108947753906 -41.133819580078125 2.68945455551147461
41.6115570068359375 -38.4749336242675781 2.68953132629394531
38.290191650390625 -39.9492225646972656 1.60062503814697266
42.6250686645507812 -41.8381881713867188 1.14061844348907471
38.7939605712890625 -38.4995651245117188 0.0501905903220176697
42.6250228881835938 -40.8802757263183594 2.64256119728088379
41.5502281188964844 -39.2900657653808594 0.051017366349697113
39.7657012939453125 -42.2756385803222656 1.48026859760284424
37.8706588745117188 -37.5106964111328125 1.44008874893188477
41.4951591491699219 -40.043121337890625 2.6896975040435791
37.5112800598144531 -42.4938392639160156 1.63879120349884033
39.5948448181152344 -37.1352386474609375 1.32204461097717285
38.4507064819335938 -38.435516357421875 2.68935251235961914
37.8374748229980469 -41.3356132507324219 0.480144321918487549
42.1517791748046875 -41.3555259704589844 0.0505325309932231903
38.7711257934570312 -42.6564369201660156 0.0709176138043403625
41.3908653259277344 -38.0158920288085938 0.050838768482208252
39.7952537536621094 -38.6938285827636719 2.47938966751098633
39.8488197326660156 -40.4943122863769531 0.0495997294783592224
41.4408416748046875 -42.9113883972167969 0.181411862373352051
39.4510345458984375 -42.156982421875 2.68958330154418945
42.6148796081542969 -42.894287109375 1.69984090328216553
38.9702072143554688 -39.7151985168457031 0.0502626523375511169
42.0211830139160156 -37.3948707580566406 0.981790006160736084
40.350067138671875 -40.2569503784179688 2.68976736068725586
42.616668701171875 -39.8960113525390625 1.25929200649261475
41.2157020568847656 -37.5755996704101562 2.06072473526000977
37.7508316040039062 -40.5350761413574219 2.6895902156829834
41.549957275390625 -42.9095840454101562 2.59755134582519531
40.7502708435058594 -40.6348609924316406 1.0391228199005127
40.6408653259277344 -38.4737205505371094 1.04025661945343018
37.5478324890136719 -38.5141792297363281 2.03937220573425293
39.8768463134765625 -41.4312095642089844 0.737473368644714355
38.5553436279296875 -42.5352821350097656 1.22030365467071533
40.79022216796875 -42.1350555419921875 0.526450574398040771
37.6519203186035156 -41.6329231262207031 2.68968605995178223
38.6802139282226562 -37.6541023254394531 0.781737864017486572
40.7950973510742188 -40.0188674926757812 0.050196383148431778
42.6359062194824219 -38.2752227783203125 2.60160088539123535
41.5707435607910156 -39.1798286437988281 1.10015034675598145
38.6911888122558594 -40.5304679870605469 0.6194419264793396
42.0272178649902344 -38.4352684020996094 1.75990211963653564
42.6254539489746094 -40.8344230651855469 0.876780867576599121
40.3902320861816406 -41.7361946105957031 2.68959164619445801
37.6919174194335938 -39.0770721435546875 0.051069304347038269
39.7952346801757812 -38.9161148071289062 1.50036609172821045
39.7288093566894531 -37.8854293823242188 1.93893706798553467
39.5115776062011719 -38.4206962585449219 0.700017869472503662
42.3514823913574219 -38.4349822998046875 0.0508589334785938263
41.9305458068847656 -42.1562690734863281 0.540073513984680176
41.6934242248535156 -40.4504661560058594 0.0500755384564399719
37.5278472900390625 -40.376129150390625 1.18084609508514404
40.7103729248046875 -38.8943824768066406 2.68931102752685547
40.6168899536132812 -42.9229888916015625 1.73719608783721924
41.0736083984375 -40.6346397399902344 2.03920388221740723
39.6521377563476562 -40.89691162109375 2.68953704833984375
39.8203544616699219 -39.9757308959960938 1.97934746742248535
38.9678497314453125 -43.4542312622070312 0.498798906803131104
41.7885704040527344 -39.275054931640625 2.03916525840759277
39.0889015197753906 -42.6231231689453125 1.98978960514068604
39.5902061462402344 -42.1551094055175781 0.0504214465618133545
37.5353050231933594 -39.4351882934570312 1.5592961311340332
42.6249313354492188 -41.5342178344726562 1.99940204620361328
40.3528900146484375 -37.9707145690917969 0.0499107055366039276
40.6408233642578125 -38.3636245727539062 1.94335973262786865
38.7639007568359375 -37.1352691650390625 0.0452690161764621735
42.6396980285644531 -37.9746551513671875 1.30051207542419434
40.7304954528808594 -39.2752952575683594 0.679216980934143066
38.4725456237792969 -39.3527717590332031 2.68951177597045898
42.19744873046875 -42.9001045227050781 0.921141147613525391
38.4116744995117188 -39.2101478576660156 0.529898643493652344
42.4574851989746094 -39.3150138854980469 0.0509047433733940125
38.1515922546386719 -42.0253982543945312 0.0518134534358978271
38.0509910583496094 -38.2701263427734375 0.419095695018768311
39.386566162109375 -42.8530921936035156 0.939342260360717773
39.8706817626953125 -40.6345939636230469 1.18025112152099609
42.5162010192871094 -40.2963371276855469 2.00588870048522949
39.5948982238769531 -37.1351890563964844 2.34001445770263672
37.5188789367675781 -41.7175674438476562 1.14016008377075195
40.9903678894042969 -42.3147926330566406 2.68934202194213867
38.4896163940429688 -40.1756935119628906 2.68930459022521973
41.4297676086425781 -41.7358589172363281 0.0514550134539604187
41.7477302551269531 -37.6741065979003906 2.68935322761535645
39.1942863464355469 -39.5333747863769531 1.70028877258300781
41.8292884826660156 -40.7412376403808594 2.45692682266235352
40.3109512329101562 -41.6957511901855469 0.050716836005449295
40.1128616333007812 -39.4335861206054688 2.68960237503051758
37.5114784240722656 -42.4936103820800781 2.44140028953552246
37.5511474609375 -40.0449485778808594 2.0803985595703125
40.9498863220214844 -37.9958343505859375 2.68924689292907715
42.6348762512207031 -39.0956993103027344 1.66042017936706543
42.6261405944824219 -41.9987754821777344 0.0583709105849266052
39.776275634765625 -41.696685791015625 2.12034702301025391
41.9302444458007812 -42.549530029296875 1.9204857349395752
39.7455711364746094 -37.636962890625 0.725171327590942383
42.1298103332519531 -41.4944114685058594 2.68951225280761719
40.9047813415527344 -37.3950653076171875 0.0396690927445888519
40.0326042175292969 -39.6366729736328125 0.049983099102973938
41.5314483642578125 -40.7459831237792969 0.758316874504089355
39.2117881774902344 -39.135894775390625 0.521454274654388428
38.1503715515136719 -38.4202919006347656 1.39983844757080078
38.3707199096679688 -40.9562797546386719 0.052434876561164856
37.5248260498046875 -40.734893798828125 0.0993662327527999878
37.5339202880859375 -39.5946083068847656 0.799335896968841553
41.4512138366699219 -38.0105400085449219 1.46083807945251465
39.1105804443359375 -38.4207038879394531 2.23974752426147461
40.6177482604980469 -42.920654296875 0.980705499649047852
40.6903877258300781 -40.9344444274902344 2.68959474563598633
39.8907699584960938 -42.549468994140625 2.18038010597229004
41.9314155578613281 -37.5400428771972656 0.240439862012863159
39.1699600219726562 -39.0351829528808594 2.68930721282958984
39.8610572814941406 -42.3336524963378906 0.716677069664001465
42.2291526794433594 -40.092559814453125 2.68975281715393066
40.2170829772949219 -37.5122184753417969 1.4141685962677002
38.8911819458007812 -40.0452995300292969 1.16126811504364014
38.2118797302246094 -40.0459175109863281 0.879349231719970703
38.7306938171386719 -41.9144744873046875 2.68951416015625
39.1425399780273438 -40.6693038940429688 0.0512273423373699188
41.7504653930664062 -42.1140861511230469 2.68940067291259766
42.6249122619628906 -40.8982048034667969 1.59925007820129395
41.4310264587402344 -39.179107666015625 2.66010618209838867
37.5167274475097656 -41.8149299621582031 2.00018978118896484
38.2708663940429688 -42.5494194030761719 1.88024866580963135
38.4917716979980469 -37.8383026123046875 0.051041238009929657
37.7889595031738281 -42.5489387512207031 0.979997098445892334
38.631744384765625 -38.4205398559570312 0.798908650875091553
39.7312049865722656 -41.2358245849609375 0.0506663285195827484
38.8909645080566406 -40.0456390380859375 2.12166357040405273
42.6395492553710938 -37.9956321716308594 0.520360827445983887
40.9301910400390625 -38.8437881469726562 0.0504168495535850525
39.5315475463867188 -38.6761207580566406 0.0504520609974861145
42.2103767395019531 -38.8352127075195312 2.68934917449951172
42.6148757934570312 -42.8943214416503906 2.40100908279418945
37.830047607421875 -38.7758979797363281 2.68943190574645996
39.8747291564941406 -41.5744476318359375 1.42087125778198242
42.0889396667480469 -39.2750740051269531 0.639862775802612305
42.6450004577636719 -37.4802589416503906 2.71837925910949707
42.6249961853027344 -42.2153358459472656 1.84051096439361572
39.7491683959960938 -38.0375556945800781 2.6898958683013916
39.3712539672851562 -40.3548583984375 0.619729101657867432
40.4113883972167969 -40.6348953247070312 0.439531892538070679
37.7809867858886719 -37.6771278381347656 0.759751439094543457
39.6719551086425781 -37.996551513671875 0.050520721822977066
38.4706611633300781 -38.4205322265625 2.00071334838867188
41.2512474060058594 -42.5495414733886719 1.98125934600830078
42.6248703002929688 -41.4944381713867188 0.518335461616516113
42.6252632141113281 -40.8803672790527344 0.160799935460090637
41.9789657592773438 -39.8128776550292969 0.0500716529786586761
40.7405242919921875 -39.6767463684082031 2.68988823890686035
39.3695335388183594 -42.9490242004394531 0.162525102496147156
40.37127685546875 -42.3752899169921875 0.0507773980498313904
40.35235595703125 -37.4194869995117188 0.497370481491088867
39.1498489379882812 -40.4558372497558594 2.68952655792236328
38.3164901733398438 -42.3959274291992188 0.599134504795074463
39.8141212463378906 -39.3128776550292969 2.06027340888977051
42.6385650634765625 -38.0752944946289062 1.95939123630523682
38.53204345703125 -37.5109024047851562 1.49300539493560791
42.6255226135253906 -42.4347686767578125 0.719256043434143066
37.5415687561035156 -41.0079689025878906 0.970987677574157715
39.8203506469726562 -39.2544822692871094 0.742056488990783691
41.8048896789550781 -37.395233154296875 1.60134410858154297
41.3308372497558594 -37.5303840637207031 0.519574403762817383
40.3672103881835938 -41.2367095947265625 1.15973341464996338
40.3484458923339844 -38.2795448303222656 2.68944454193115234
37.516021728515625 -41.8953323364257812 0.447090953588485718
42.6176986694335938 -39.8554420471191406 0.618710160255432129
40.3311195373535156 -37.5146293640136719 2.05839872360229492
38.8200645446777344 -42.0214614868164062 0.0500041507184505463
38.3097991943359375 -39.6140975952148438 0.0505850613117218018
42.6355743408203125 -37.4345703125 0.839261710643768311
39.5074386596679688 -39.7806854248046875 0.396037787199020386
42.4693374633789062 -37.395172119140625 1.47942900657653809
41.6902503967285156 -38.0106887817382812 2.07957696914672852
38.95001220703125 -42.5352897644042969 2.68947720527648926
37.5701942443847656 -38.4355583190917969 0.0508199967443943024
40.6406364440917969 -37.9635086059570312 0.61508786678314209
40.6407508850097656 -37.9744186401367188 1.41963434219360352
41.4721603393554688 -42.5497779846191406 0.699562609195709229
40.835296630859375 -42.9204330444335938 0.323107212781906128
39.5895271301269531 -41.5353355407714844 2.68955469131469727
42.1953849792480469 -39.2751731872558594 1.26189756393432617
40.169677734375 -42.3338127136230469 2.68932700157165527
40.6508674621582031 -39.3959426879882812 0.0502057112753391266
40.6310310363769531 -42.54931640625 2.23931074142456055
40.9583511352539062 -40.3366241455078125 2.68964648246765137
40.5450096130371094 -39.1778335571289062 1.25418734550476074
39.5888595581054688 -37.8856391906738281 1.26077258586883545
39.1758880615234375 -43.227264404296875 1.98410248756408691
37.5378074645996094 -39.1155929565429688 2.14059972763061523
41.0549201965332031 -37.3951072692871094 2.67952704429626465
41.0194816589355469 -40.635589599609375 0.432162672281265259
39.7860221862792969 -40.0440635681152344 2.59871697425842285
38.2921180725097656 -41.7691764831542969 0.580203771591186523
37.5222587585449219 -41.0962257385253906 2.4404747486114502
42.6348762512207031 -38.775421142578125 2.26084256172180176
42.1096534729003906 -42.9017829895019531 0.318302154541015625
39.5305938720703125 -38.42041015625 1.71947646141052246
42.1517906188964844 -40.7367286682128906 0.520493984222412109
37.9107246398925781 -39.894317626953125 2.68952250480651855
42.0080604553222656 -39.3982887268066406 2.68996000289916992
41.4086265563964844 -37.3950347900390625 1.09655559062957764
42.61981201171875 -39.674163818359375 1.86010348796844482
39.7548065185546875 -42.872161865234375 1.46162235736846924
39.9544219970703125 -40.63458251953125 2.24065780639648438
41.5918235778808594 -41.0349617004394531 0.05084267258644104
41.2701759338378906 -40.634765625 1.33973908424377441
40.5313262939453125 -40.6347808837890625 1.66014325618743896
40.2306785583496094 -42.5494041442871094 1.22001302242279053
38.2295379638671875 -40.0457115173339844 2.17846488952636719
41.7623329162597656 -38.7418785095214844 0.0503685548901557922
38.1318397521972656 -40.5208282470703125 0.439719021320343018
41.3739089965820312 -39.9317550659179688 0.0502661652863025665
38.1123580932617188 -40.9953422546386719 2.68966245651245117
39.7927360534667969 -40.78155517578125 0.619175910949707031
41.8819007873535156 -42.9048614501953125 1.46262633800506592
39.5486221313476562 -39.2570686340332031 0.0501977019011974335
40.312713623046875 -41.1165962219238281 0.0496285818517208099
40.1672210693359375 -41.1763648986816406 2.6894078254699707
38.5694923400878906 -39.9496994018554688 0.439870297908782959
41.3502044677734375 -39.2751922607421875 1.62091612815856934
40.5448493957519531 -38.7399787902832031 0.545255839824676514
38.2900581359863281 -41.5349960327148438 2.68962383270263672
41.0548782348632812 -37.3950653076171875 1.5391315221786499
42.4914627075195312 -42.3952713012695312 1.32078981399536133
